<?xml version="1.0" encoding="UTF-8" standalone="no"?>
<svg
   viewBox="0 0 1024 1024"
   version="1.1"
   id="svg16"
   sodipodi:docname="prime_video.svg"
   inkscape:version="1.4.4 (dcaf3e7d9e, 2026-05-05)"
   inkscape:export-filename="kodi.png"
   inkscape:export-xdpi="48"
   inkscape:export-ydpi="48"
   width="1024"
   height="1024"
   xml:space="preserve"
   xmlns:inkscape="http://www.inkscape.org/namespaces/inkscape"
   xmlns:sodipodi="http://sodipodi.sourceforge.net/DTD/sodipodi-0.dtd"
   xmlns:xlink="http://www.w3.org/1999/xlink"
   xmlns="http://www.w3.org/2000/svg"
   xmlns:svg="http://www.w3.org/2000/svg"
   xmlns:bx="https://boxy-svg.com"><sodipodi:namedview
     id="namedview16"
     pagecolor="#ffffff"
     bordercolor="#000000"
     borderopacity="0.25"
     inkscape:showpageshadow="2"
     inkscape:pageopacity="0.0"
     inkscape:pagecheckerboard="0"
     inkscape:deskcolor="#d1d1d1"
     inkscape:zoom="0.70710678"
     inkscape:cx="407.2935"
     inkscape:cy="359.21024"
     inkscape:window-width="1920"
     inkscape:window-height="978"
     inkscape:window-x="0"
     inkscape:window-y="0"
     inkscape:window-maximized="1"
     inkscape:current-layer="svg16"
     showguides="true"><sodipodi:guide
       position="512,887.00002"
       orientation="0,-1"
       id="guide4"
       inkscape:locked="false" /><sodipodi:guide
       position="512,136.99998"
       orientation="0,-1"
       id="guide5"
       inkscape:locked="false" /><sodipodi:guide
       position="136.99986,512"
       orientation="1,0"
       id="guide6"
       inkscape:locked="false" /><sodipodi:guide
       position="887.00014,512"
       orientation="1,0"
       id="guide7"
       inkscape:locked="false" /><sodipodi:guide
       position="512,0"
       orientation="1,0"
       id="guide1"
       inkscape:locked="false" /></sodipodi:namedview><defs
     id="defs12"><linearGradient
       id="linearGradient63"
       inkscape:collect="always"><stop
         style="stop-color:#d8ecf2;stop-opacity:1;"
         offset="0"
         id="stop63" /><stop
         style="stop-color:#b4e5e5;stop-opacity:1;"
         offset="1"
         id="stop64" /></linearGradient><filter
       id="shadow"
       bx:pinned="true"
       x="0"
       y="0"
       width="1"
       height="1"><title
         id="title1">Drop Shadow</title><feDropShadow
         result="drop-shadow-0"
         in="SourceGraphic"
         style="flood-opacity: 0.3;"
         stdDeviation="10"
         dx="0"
         dy="10" /></filter><bx:guide
       x="-10"
       y="100"
       angle="90" /><bx:guide
       x="100"
       y="-10"
       angle="0" /><bx:guide
       x="924"
       y="-10"
       angle="0" /><bx:guide
       x="-10"
       y="924"
       angle="90" /><clipPath
       id="clip-0"><path
         style="fill:#ffffff;stroke-width:3px"
         d="M 100,724 V 300 C 100,185.001 170,99.995 300.026,100 L 724,99.995 C 854,100 924,185.001 924,300 v 424 c 0,115.001 -70,199.995 -200,200 H 300.026 C 170,924 100,839.001 100,724 Z"
         id="path2"><title
           id="title2">Icon Mask</title></path></clipPath><symbol
       id="symbol-0"
       viewBox="0 0 1024 1024"
       bx:pinned="true"><title
         id="title3">App Icon Guides</title><g
         id="g12"><title
           id="title4">App Icon Guides</title><path
           style="fill:none;stroke:#919191;stroke-width:3px"
           d="m 0,739.001 v -454 C 0,135.001 112,0 284.999,0 H 739.001 C 912,0 1024,135.001 1024,285.001 v 454 C 1024,889.001 912,1024 739.001,1024 H 284.999 C 112,1024 0,889.001 0,739.001 Z"
           id="path5"><title
             id="title5">Outer Bounding Box</title></path><path
           style="fill:none;stroke:#919191;stroke-width:3px"
           d="m 50,739.001 v -454 C 50,162 140,50 284.999,50 H 739.001 C 884.001,50 974,162 974,285.001 v 454 C 974,862 884.001,974 739.001,974 H 284.999 C 140,974 50,862 50,739.001 Z"
           id="path6"><title
             id="title6">Inner Bounding Box</title></path><path
           style="fill:none;stroke:#ff0000;stroke-width:3px"
           d="m 100,724.005 v -424 C 100,185.006 170,100 300.026,100.005 L 724,100 c 130,0.005 200,85.006 200,200.005 v 424 c 0,115.001 -70,199.995 -200,200 H 300.026 C 170,924.005 100,839.006 100,724.005 Z"
           id="path7"><title
             id="title7">Icon Grid Bounding Box</title></path><path
           style="fill:none;stroke:#ff0000"
           d="M 154.017,870.001 H 870.001 V 154.014 H 154.017 Z m 0,0 715.984,-715.987 z M 100,511.995 h 824 z m 0,157.365 H 924 Z M 924,354.631 H 100 Z M 669.365,99.995 v 824 z m -314.73,824 v -824 z M 512,99.995 v 824 z m -357.983,54.019 715.984,715.987 z"
           id="path8"><title
             id="title8">Icon Grid</title></path><circle
           style="fill:none"
           cx="512"
           cy="511.995"
           r="157.397"
           id="circle9"><title
             id="title9">Grid Circle 1</title></circle><circle
           style="fill:none"
           cx="512"
           cy="511.995"
           r="222.577"
           id="circle10"><title
             id="title10">Grid Circle 2</title></circle><circle
           style="fill:none"
           cx="512"
           cy="511.995"
           r="358.00101"
           id="circle11"><title
             id="title11">Grid Circle 3</title></circle><path
           d="m 1084.343,548.001 h -941 c -28.719,0 -52,-23.281 -52,-52 0,-28.719 23.281,-52 52,-52 h 941 c 28.719,0 52,23.281 52,52 0,28.719 -23.281,52 -52,52 z m 51.957,-51.962 -1045,-0.078"
           style="stroke:#0077ff;stroke-width:5px;stroke-dasharray:24, 10"
           transform="rotate(-64.504252,613.82146,496.00118)"
           id="path12"><title
             id="title12">Tool Angle</title></path></g></symbol><linearGradient
       inkscape:collect="always"
       xlink:href="#linearGradient63"
       id="linearGradient64"
       x1="576.76422"
       y1="51.5"
       x2="576.76422"
       y2="972.5"
       gradientUnits="userSpaceOnUse"
       gradientTransform="matrix(1.0029383,0,0,1.0029383,-1.5044074,-1.5044074)" /><filter
       style="color-interpolation-filters:sRGB"
       inkscape:label="Drop Shadow"
       id="filter69"
       x="0"
       y="0"
       width="1.0057613"
       height="1.0098504"><feFlood
         result="flood"
         in="SourceGraphic"
         flood-opacity="0.498039"
         flood-color="rgb(0,0,0)"
         id="feFlood68" /><feGaussianBlur
         result="blur"
         in="SourceGraphic"
         stdDeviation="0.000000"
         id="feGaussianBlur68" /><feOffset
         result="offset"
         in="blur"
         dx="3.000000"
         dy="6.000000"
         id="feOffset68" /><feComposite
         result="comp1"
         operator="in"
         in="flood"
         in2="offset"
         id="feComposite68" /><feComposite
         result="comp2"
         operator="over"
         in="SourceGraphic"
         in2="comp1"
         id="feComposite69" /></filter></defs><path
     id="path63"
     style="baseline-shift:baseline;display:inline;overflow:visible;vector-effect:none;fill:url(#linearGradient64);fill-opacity:1;stroke-width:1.00294;paint-order:markers fill stroke;enable-background:accumulate;stop-color:#000000"
     d="M 284.33105,0 C 111.60637,0 0,134.64308 0,284.33496 V 739.66895 C 0,889.36084 111.60636,1024 284.33105,1024 h 455.3379 C 912.39364,1024 1024,889.36084 1024,739.66895 V 284.33496 C 1024,134.64308 912.39363,0 739.66895,0 Z m 545.53183,65.882468 c 17.8755,6.750901 34.25776,15.510275 49.04799,25.952987 C 864.12063,81.392726 847.73839,72.63338 829.86288,65.882468 Z M 111.75514,903.0284 c 5.7006,6.1289 11.77245,11.94491 18.20568,17.41039 -6.43365,-5.46582 -12.50476,-11.28108 -18.20568,-17.41039 z" /><path
     id="path2-3"
     style="fill:#00a8e1;stroke-width:1.71624"
     d="m 818.09784,719.66633 c -12.01371,0.3432 -23.8578,1.5426 -35.52825,3.9453 -15.10294,3.6041 -29.34775,9.0988 -42.04796,18.1949 -2.0595,1.2014 -3.77573,2.9156 -5.14873,4.8035 -1.20137,2.0594 -1.71423,4.1183 -0.51286,6.1778 1.20137,2.0595 3.25951,2.2331 5.4906,2.0615 l 20.76589,-2.5744 c 15.6178,-2.0595 31.40727,-2.748 47.19672,-2.0615 5.6636,0.3432 11.15825,1.3743 16.4786,3.0906 5.6636,1.7162 9.43867,6.6947 9.6103,12.5299 0.34324,3.4325 0.17237,6.8649 -0.17085,10.2974 -1.20137,9.4394 -3.08992,18.7057 -5.83592,27.8018 -4.63385,16.6476 -10.46841,32.6093 -16.47525,48.742 -0.6865,1.7162 -1.03175,3.4325 -1.20336,5.1487 0.17161,3.2609 2.2331,4.9778 5.49396,4.1197 2.0595,-0.6865 3.94603,-1.8879 5.49064,-3.4325 7.7231,-7.2082 14.41577,-15.4475 19.90774,-24.5436 15.10295,-25.2288 24.19972,-53.5481 26.43084,-82.8959 0.34326,-4.9771 0.17027,-9.9535 -0.51623,-14.759 -0.51487,-4.119 -3.08856,-7.8947 -7.03593,-9.4394 -2.9176,-1.373 -5.83387,-2.4034 -8.92311,-3.2615 -10.98396,-2.9176 -22.13954,-3.6021 -33.46675,-3.9453 z m -656.49326,8.6348 c -1.5419,0.1157 -3.01681,0.8246 -4.08948,2.0045 -1.71623,1.8879 -2.22976,4.4623 -1.20002,6.865 0.6865,1.7162 1.88518,3.4345 3.25818,4.6359 5.83523,5.4919 11.50085,10.9839 17.50769,16.3043 64.53075,57.1509 138.49882,96.4522 222.76638,116.0174 24.37065,5.6636 49.25753,9.4386 74.31468,11.3265 9.43934,0.6865 18.87868,1.0304 28.31802,1.5453 6.86497,-0.1716 13.72995,-0.1716 20.59492,0 27.28826,-1.0298 54.40558,-3.9467 81.3506,-8.7522 46.6818,-8.7528 91.98862,-24.0274 134.37984,-45.4804 22.48279,-11.3272 43.76419,-24.8856 63.50099,-40.3318 2.40274,-1.7162 4.29195,-3.9487 5.66494,-6.523 0.34326,-0.6865 0.68651,-1.546 0.85813,-2.2325 1.37299,-5.6636 -2.0595,-11.4988 -7.72311,-12.8718 -3.43247,-0.8581 -7.20821,-0.3419 -10.29744,1.3743 -20.76655,9.611 -42.04663,17.8483 -63.84293,25.0565 -41.36146,13.7299 -84.09792,23.5132 -127.34725,29.0052 -18.53544,2.4027 -37.07086,4.1177 -55.7779,4.6325 -34.66813,1.2014 -69.50719,-0.3419 -104.00368,-4.6325 -24.02743,-3.0892 -47.88187,-7.3799 -71.56602,-12.8718 -70.53761,-16.476 -137.81635,-44.2791 -199.42949,-82.3797 -1.373,-0.8581 -2.91694,-1.5459 -4.46156,-2.2324 -0.90102,-0.3862 -1.85031,-0.5287 -2.77549,-0.4593 z" /><path
     id="path3"
     style="fill:#00a8e1;stroke-width:1.81075"
     d="m 453.4713,137.02995 c -0.72147,-0.0396 -1.44718,-0.0416 -2.17147,0.004 -14.48603,0 -22.99446,7.06194 -24.08092,19.91828 -0.7243,13.03741 6.88088,20.64259 17.20218,22.63442 3.98363,0.7243 8.14695,0.7243 12.13063,0 9.41591,-1.4486 16.47784,-9.05238 17.20215,-18.46827 0.90537,-11.0456 -4.16332,-19.55541 -13.9414,-22.81478 -2.03709,-0.67903 -4.17676,-1.15435 -6.34116,-1.2732 z m -216.6467,60.64959 c -14.20875,-0.0423 -27.34872,4.67615 -39.57131,13.77518 -1.08645,1.08647 -2.35329,1.99185 -3.80188,2.71616 -0.36216,-0.18119 -0.72502,-0.36004 -0.72502,-0.54111 -0.54321,-1.81076 -0.90677,-3.6215 -1.45001,-5.43225 -1.44859,-4.52688 -3.25935,-6.15728 -8.14837,-6.15728 -5.43228,0 -11.0449,0.18119 -16.47717,0 -4.16473,-0.18118 -7.96732,0.36215 -10.86451,3.62152 0,63.37634 -7.1e-4,126.93377 0.18042,190.12907 2.35396,3.8026 5.97476,4.5276 10.1395,4.3465 6.51872,-0.181 13.03882,0 19.55755,0 11.40775,0 11.40914,0 11.40914,-11.2288 v -51.60645 c 0,-1.26754 -0.54607,-2.71542 0.7215,-3.80188 9.05375,7.06195 20.10006,11.40844 31.50776,12.49491 15.93464,1.62967 30.42067,-2.35539 42.55272,-13.21992 8.87268,-8.14839 15.39212,-18.64934 18.83254,-30.23816 4.88905,-14.84817 5.24975,-29.87814 3.98223,-45.08845 -0.72428,-9.41592 -3.25652,-18.65076 -7.0591,-27.1613 -7.42409,-15.57246 -18.83184,-26.97951 -36.21503,-30.96317 -4.97959,-1.08645 -9.83467,-1.63038 -14.57093,-1.64455 z m 354.62821,0.10611 c -4.52688,0 -9.05376,0.45268 -13.58064,1.35806 -11.7699,2.17292 -22.27015,7.4241 -32.22929,13.58064 -1.26754,0.72431 -2.35541,1.99112 -4.16615,1.99112 -0.90538,-2.71611 -1.45001,-5.06869 -2.35541,-7.60375 -1.08642,-3.07827 -3.07826,-5.07151 -6.33762,-5.07151 h -22.63442 c -2.1729,0 -4.34369,1.26823 -5.06798,3.44113 -0.36216,1.4486 -0.54462,2.89792 -0.54462,4.34651 v 125.66344 c 0,6.15656 1.63037,7.96801 7.96801,7.96801 h 24.26478 c 6.6998,0 8.14839,-1.4486 8.14839,-8.14839 v -96.51104 c -0.36214,-1.44862 0.54251,-3.07899 1.99114,-3.44114 9.77806,-4.70796 20.82364,-6.88157 31.68817,-6.15727 6.15655,0.36215 11.40775,4.70795 12.67527,10.86451 0.72429,3.07828 0.90538,6.33622 0.90538,9.4145 v 85.65003 c 0,6.6998 1.4486,8.32876 8.14837,8.32876 h 19.19329 c 2.89721,0 5.61264,7.1e-4 8.32875,-0.18042 2.53507,0 4.5269,-1.81145 4.5269,-4.34651 0.36214,-1.81074 0.36425,-3.44114 0.36425,-5.2519 v -95.24489 c -0.18119,-1.44861 0.72291,-2.89508 2.1715,-3.25725 9.77806,-4.52687 20.46363,-6.70119 31.14707,-5.97688 5.79441,0.36214 10.8624,4.3458 12.31101,9.95913 0.90536,3.25937 1.2668,6.51872 1.08575,9.95915 v 83.83927 c 0,1.99183 0.002,3.98154 0.36426,5.97337 0.36215,2.1729 2.17362,3.98507 4.34652,4.16615 1.44859,0.18099 2.89437,0.18042 4.34297,0.18042 h 22.09331 c 8.14839,0 9.23413,-1.08575 9.23413,-9.23414 v -93.79842 c 0,-2.17291 7.1e-4,-4.16544 -0.18042,-6.15727 -0.72431,-9.41592 -3.25864,-18.10469 -10.13951,-25.16662 -7.24302,-7.60517 -16.65964,-10.5052 -26.98092,-11.04843 -14.30497,-0.72431 -28.43096,2.53506 -41.10623,9.05375 -4.88901,2.53509 -9.59486,5.43228 -14.12175,8.14841 -0.18119,-0.36214 -0.36144,-0.36003 -0.18042,-0.54111 -0.36215,-0.36214 -0.72713,-0.72643 -1.08927,-1.26965 -4.88904,-7.24301 -12.49349,-12.31099 -21.00404,-14.12175 -4.52688,-0.90538 -9.05376,-1.35808 -13.58065,-1.35808 z m 220.79517,0.85234 c -3.04151,0.051 -6.08441,0.2787 -9.11744,0.6861 -28.60991,3.25935 -47.26206,19.01221 -55.77261,46.35456 -5.97547,18.65076 -5.24974,37.66579 -0.36072,56.49762 6.33763,24.08301 22.27153,38.38796 46.35456,43.45807 13.76172,3.07829 27.70523,2.53365 41.46695,0.36075 7.24302,-1.26754 14.48744,-3.07688 21.36832,-5.793 4.16473,-1.62969 6.3348,-4.16544 6.15372,-8.87341 -0.18118,-4.3458 0,-8.87339 0,-13.40026 0,-5.43228 -2.17221,-7.06053 -7.42339,-5.793 -5.25118,1.26752 -10.32057,2.35115 -15.57177,3.43761 -11.22665,2.35397 -22.81689,2.35608 -34.04356,0.36427 -15.39139,-3.0783 -25.35054,-16.29679 -24.44516,-32.59357 1.62967,0.18099 3.44184,0.36287 5.07153,0.72501 13.58065,2.53503 27.52202,2.71399 41.10267,0.54109 7.96732,-1.08645 15.57247,-3.44042 22.6344,-7.24301 8.14841,-4.70797 14.126,-11.22526 16.66105,-20.27903 6.33763,-22.81549 -3.44042,-45.81205 -27.16127,-54.32259 -8.69163,-2.85193 -17.79279,-4.28001 -26.91728,-4.12721 z m -410.62363,1.82489 c -10.26646,0.1856 -20.30874,3.74883 -28.54764,10.08648 -3.62151,2.89719 -7.06054,5.97827 -10.3199,9.23764 -0.72429,1.08645 -1.81287,1.80934 -3.08041,2.17151 -1.08645,-4.88904 -2.17358,-9.4145 -3.4411,-13.9414 -1.26754,-4.52687 -3.44043,-6.15727 -8.14839,-6.15727 h -17.38253 c -8.32947,0 -9.23414,0.90467 -9.23414,9.23414 v 123.1312 c 0,1.44862 -7e-4,2.89792 0.18043,4.34652 0.18117,2.35399 1.9925,4.34582 4.34651,4.52689 1.26752,0.181 2.7147,0.18042 3.98222,0.18042 h 23.5398 c 1.26752,0 2.71824,6.9e-4 3.98577,-0.18042 2.35399,0 4.16546,-1.81219 4.34651,-4.16617 0.18119,-1.62968 0.18042,-3.07755 0.18042,-4.70724 v -86.91614 c 0,-1.99183 7.1e-4,-3.80188 2.53575,-4.70726 11.40775,-3.80256 23.17764,-6.15796 35.30967,-5.07152 2.53507,0.18118 4.88835,0.36143 7.4234,0.18042 3.25935,-0.36218 4.52758,-1.62829 5.25189,-4.88764 0.36214,-2.53507 0.54182,-4.88832 0.36073,-7.42336 0,-6.15658 0.18176,-12.49565 -0.18042,-18.65218 -0.36217,-4.52689 -1.99398,-5.9762 -6.70191,-6.15727 -1.47125,-0.11319 -2.94,-0.15399 -4.40667,-0.12736 z m 34.8287,1.39696 c -4.34581,0.18119 -5.97618,1.81147 -6.15727,6.15727 v 64.28174 c 0,20.64259 7e-4,41.28235 -0.18042,61.3817 0,1.44859 -7.1e-4,2.89792 0.18042,4.34651 0.18118,2.53505 2.3561,4.52619 4.89116,4.70726 0.90538,0.18119 1.62685,0.18387 2.53224,0.18387 h 25.17018 c 1.08643,0 1.99395,-0.002 3.0804,-0.18387 2.35395,-0.181 4.1619,-1.80863 4.34297,-4.16262 0.18119,-1.99184 0.36426,-3.98506 0.36426,-5.97689 V 211.99938 c 0,-1.62969 7.2e-4,-3.07758 -0.18042,-4.70726 -0.36214,-4.16473 -1.63181,-5.43228 -5.79654,-5.43228 -9.41592,-0.18118 -18.83113,-0.18118 -28.24704,0 z m 372.49172,24.96859 c 1.43162,-0.0802 2.87667,-0.0728 4.32529,0.0172 3.25935,0.18099 6.52012,0.9075 9.5984,2.17503 4.70795,1.99183 7.78552,6.33551 8.32876,11.40562 0.54323,3.07828 0.36072,6.33976 -0.54464,9.41804 -2.17292,6.5187 -7.42339,9.23271 -13.76103,10.50024 -3.80257,0.90538 -7.78623,1.26754 -11.76989,0.90538 -7.06194,0 -14.30282,-0.5404 -21.36477,-1.62685 -2.71611,-0.36215 -2.71753,-0.36357 -2.35539,-3.26077 0.54322,-4.34581 1.81147,-8.51125 3.44116,-12.49491 4.75322,-11.56618 14.08071,-16.47749 24.10211,-17.03946 z m -585.33655,1.53136 c 2.65106,0.0283 5.33324,0.2985 8.04938,0.84173 7.60515,1.08645 14.12388,5.97405 17.20214,13.036 2.71612,5.79441 4.3451,12.13417 4.70726,18.47181 1.08645,11.58881 1.08787,23.17834 -2.17149,34.22392 -1.26754,5.61333 -4.16756,10.68346 -8.3323,14.48601 -4.70794,3.98368 -10.50094,6.33765 -16.65751,6.33765 -9.23484,0.54324 -18.2879,-1.45072 -26.43629,-5.79652 -1.99183,-0.90538 -3.26146,-2.89508 -3.08043,-5.06799 v -32.77745 c 0,-10.86453 0.18119,-21.72904 0,-32.59355 -0.18119,-2.53509 1.26754,-4.70726 3.62153,-5.61264 7.46937,-3.53098 15.14453,-5.63386 23.09771,-5.54897 z" /><path
     id="path4"
     style="fill:#232f3e;stroke-width:1.91529"
     d="m 344.52162,415.37503 c -1.00554,-0.017 -2.00957,0.1257 -3.01509,0.2694 -11.30024,0.9576 -19.53825,8.8133 -20.4959,19.3475 -1.14918,13.2155 4.98126,22.4074 16.85609,25.2804 2.10682,0.383 4.21141,0.7668 6.31822,0.7668 15.51389,0.3831 27.19794,-8.4273 25.6657,-25.8565 -0.38306,-8.0442 -5.55211,-14.9408 -13.02175,-17.8137 -3.63906,-1.5322 -7.4704,-2.2984 -11.30099,-1.9153 -0.33518,-0.048 -0.67111,-0.073 -1.00628,-0.079 z m 161.12418,1.4216 c -7.27812,0 -8.61883,1.3406 -8.61883,8.6188 v 62.0525 c 0,1.3408 0.57608,2.6844 -0.38157,4.0251 -1.72376,-0.1915 -2.68439,-1.3437 -4.0251,-2.1098 -19.91906,-11.6833 -40.79353,-13.7894 -61.86179,-4.0213 -14.74777,6.895 -23.94044,19.346 -29.87785,34.0938 -5.74589,14.1731 -7.08659,29.1117 -6.70353,44.2425 0,14.1732 3.256,28.1563 9.57647,40.7973 7.27813,13.9816 17.81001,24.7051 33.13237,29.3018 20.87671,6.5119 40.41347,3.2575 58.2257,-9.9581 1.34071,-0.7661 2.10683,-2.1083 3.83059,-2.4914 0.95765,2.1069 1.72302,4.4052 2.10608,6.7036 0.76612,3.0645 3.44753,5.1735 6.70353,5.1735 h 4.59747 c 6.89505,0 13.59784,0.1915 20.30137,0 5.36283,0 6.8973,-1.7252 7.08884,-7.2796 v -201.8729 c -0.19153,-5.9374 -1.72452,-7.2758 -7.47041,-7.2758 z m 292.63237,62.4603 c -6.105,-0.2155 -12.23469,0.1683 -18.36363,1.126 -25.85649,3.8305 -44.43187,17.6207 -53.43374,42.1365 -8.81038,23.3666 -8.6196,49.033 0.19076,72.3996 7.66117,21.2598 22.98353,34.6669 45.00942,40.2212 11.68331,2.873 23.93894,3.6391 36.00528,1.9153 40.2212,-4.7882 56.88725,-35.2437 59.56866,-61.6747 h -0.19452 v -2.6822 c -0.19152,-1.1492 -0.38231,-2.1068 0.76687,-2.873 v 0.3854 c 0,-0.1916 0.1938,-0.5754 0.38532,-0.7669 v -22.0259 c 0,-0.1915 -0.19452,-0.19 -0.19452,-0.3816 v 0.7632 c -0.76612,-0.7661 -1.14619,-1.9153 -0.76313,-2.873 v -1.53 c 0,0 -6.9e-4,-0.1697 0.15706,-0.1907 h -0.15706 v -1.9153 h 0.38157 c 0,-0.1915 -0.19077,-0.1938 -0.19077,-0.3853 -0.38306,-3.6391 -1.14843,-7.2774 -2.10607,-10.7249 -7.0866,-25.2819 -22.98354,-41.9465 -48.84002,-48.4585 -6.03316,-1.4365 -12.11649,-2.2497 -18.22148,-2.4652 z m -158.94329,1.702 c -32.17695,0.7662 -56.69422,17.0447 -66.65376,49.2217 -6.70353,21.2597 -5.74513,42.9026 0.76687,64.1623 6.70353,21.8344 22.02664,35.0507 43.861,40.9881 9.38494,2.2983 19.15295,3.256 28.72942,2.8729 13.98165,-0.1915 27.96331,-2.8722 41.17884,-7.8519 5.55436,-2.1069 6.89432,-4.0244 6.89432,-9.9618 v -13.7886 c -0.19153,-5.5544 -2.49213,-7.4719 -8.04648,-6.1312 -4.21365,1.1492 -8.23577,2.1098 -12.44942,3.0674 -12.83248,3.0645 -26.23954,3.6376 -39.26354,1.3392 -13.02401,-2.4898 -21.83287,-9.9595 -25.2804,-22.9835 -0.95765,-3.8306 -1.72302,-7.6604 -2.10608,-11.6826 0.95765,0 1.91604,0 2.68216,0.3816 12.64095,2.2984 25.47342,3.2583 38.3059,2.3006 11.1087,-0.7661 22.21518,-2.8744 32.17471,-8.2373 10.15106,-4.9797 17.2369,-14.3662 19.34373,-25.4749 1.34071,-6.895 1.34145,-14.1732 -0.19076,-21.0682 -4.02212,-17.2377 -14.94005,-27.9634 -31.41159,-33.5177 -9.19341,-2.873 -18.95845,-4.0191 -28.53492,-3.6361 z m -478.82372,3.0638 c -3.83059,0 -5.17204,1.9153 -4.59745,5.7458 0.57459,2.4899 1.33846,5.1721 2.48764,7.4704 11.49177,30.2617 23.17806,60.3304 34.66982,90.4005 4.78824,12.6409 9.76724,25.4742 14.55548,38.1151 2.10684,5.3628 5.55435,8.0435 11.49177,7.852 8.4273,-0.1915 16.8531,-0.1915 25.2804,0 4.21367,0.383 8.23577,-2.2999 9.57647,-6.322 0.38308,-1.1492 0.95989,-2.2961 1.34297,-3.4453 12.83247,-33.3261 25.6642,-66.8453 38.49666,-100.1714 l 11.49177,-30.454 c 2.48988,-6.895 0.95617,-9.0004 -6.32197,-9.0004 h -29.11097 c -3.44753,0 -6.70353,2.1076 -7.66118,5.5551 l -1.14843,3.4453 c -8.81035,29.6871 -17.6222,59.1834 -26.43256,88.8705 -1.14918,3.8306 -2.29985,7.4704 -3.44903,11.301 -0.22744,0 -0.38537,0 -0.43768,-0.041 h -0.004 -0.004 -0.004 c -7.7e-4,0 -0.004,-0.01 -0.004,-0.012 h -0.004 v 0 0 c 2e-5,0 -1.9e-4,-0.01 0,-0.012 v 0 c 0.008,-0.025 0.0329,-0.063 0.0749,-0.1048 -7.85271,-26.6226 -15.5124,-53.4382 -23.36511,-80.0608 -2.29835,-7.2781 -4.40592,-14.7478 -6.51275,-22.0259 -1.14917,-4.0222 -3.25525,-7.0851 -7.85196,-7.0851 -10.72565,0 -21.64283,-0.1916 -32.56001,0 z m 171.03359,0.1907 c -5.93741,0 -7.46965,1.7238 -7.66118,7.6612 v 132.537 c 0,1.1491 -7.4e-4,2.4906 0.19077,3.6398 0.38306,3.639 2.10981,5.5551 5.9404,5.5551 10.34259,0.1915 20.49291,0.1915 30.8355,0 3.83059,-0.1916 5.55361,-1.9153 5.93667,-5.7459 v -68.9506 -67.0354 c 0,-5.9374 -1.72377,-7.6612 -7.66118,-7.6612 z m 307.90237,25.995 c 1.34405,0.019 2.71133,0.1 4.09991,0.2431 0.95765,0 1.72452,0.3853 2.68216,0.3853 13.40707,2.1068 16.66382,12.8317 14.17393,23.1743 -1.91529,7.6612 -8.23576,10.5327 -15.32236,11.8734 -3.83059,0.7661 -7.85495,1.1491 -11.87706,0.9576 -7.85271,-0.1915 -15.51315,-0.7661 -23.17433,-1.9153 -1.72376,-0.1915 -2.48913,-0.9546 -2.10607,-2.6784 1.3407,-7.4697 3.06447,-14.7485 7.66118,-20.8775 6.20075,-8.2118 14.45411,-11.2909 23.86264,-11.1625 z m -167.38256,1.5898 c 7.5684,0.3322 15.00363,2.1966 21.89869,5.3568 2.29836,0.7662 3.63682,3.0652 3.44529,5.5551 -0.38306,11.8749 -0.19076,23.3681 -0.19076,35.0514 v 34.8569 c 0.38306,2.2984 -0.9569,4.4067 -3.06373,5.3643 -9.19341,5.1713 -19.72604,7.2781 -30.06863,5.7459 -8.81036,-0.9576 -16.47378,-6.3212 -20.4959,-14.1739 -3.06447,-6.129 -4.78599,-12.6402 -5.36058,-19.3438 -1.53224,-12.0663 -0.57608,-24.3257 2.29686,-36.009 0.95764,-3.256 2.10682,-6.3212 3.83059,-9.3857 4.02212,-7.4696 11.6833,-12.2564 20.11059,-12.831 2.53777,-0.2394 5.07479,-0.2977 7.5976,-0.1871 z m 324.03646,0.9053 c 1.81953,0.048 3.63831,0.2379 5.45784,0.6209 7.66118,1.5323 13.98091,6.515 17.42844,13.6016 3.256,6.7035 5.17204,14.171 5.5551,21.6406 0.19153,3.4475 0.38231,6.8958 0.19076,10.3433 0.57459,8.4273 -0.3838,16.6646 -2.68216,24.5173 -1.14917,4.0221 -2.8707,7.6589 -5.36058,11.1065 -4.21365,5.9374 -10.91718,9.7687 -18.1953,10.3433 -3.63906,0.3831 -7.28036,0.3846 -10.91942,-0.3815 -8.04424,-1.5323 -14.74479,-6.8951 -18.00079,-14.3648 -2.87294,-5.9374 -4.59895,-12.4501 -5.17355,-18.9621 -0.95765,-11.3003 -1.14767,-22.5998 1.53375,-33.7085 0.95764,-4.4051 2.87144,-8.8133 5.16978,-12.6439 4.21367,-6.895 11.49401,-11.2987 19.53827,-11.8733 1.81953,-0.1915 3.63831,-0.2873 5.45784,-0.2394 z" /></svg>
