<?xml version="1.0" encoding="UTF-8" standalone="no"?>
<svg
   viewBox="0 0 1024 1024"
   version="1.1"
   id="svg16"
   sodipodi:docname="debian.svg"
   inkscape:version="1.4.4 (dcaf3e7d9e, 2026-05-05)"
   inkscape:export-filename="../app-icons/debian.png"
   inkscape:export-xdpi="48"
   inkscape:export-ydpi="48"
   width="1024"
   height="1024"
   xml:space="preserve"
   xmlns:inkscape="http://www.inkscape.org/namespaces/inkscape"
   xmlns:sodipodi="http://sodipodi.sourceforge.net/DTD/sodipodi-0.dtd"
   xmlns:xlink="http://www.w3.org/1999/xlink"
   xmlns="http://www.w3.org/2000/svg"
   xmlns:svg="http://www.w3.org/2000/svg"
   xmlns:rdf="http://www.w3.org/1999/02/22-rdf-syntax-ns#"
   xmlns:cc="http://creativecommons.org/ns#"
   xmlns:dc="http://purl.org/dc/elements/1.1/"
   xmlns:bx="https://boxy-svg.com"><sodipodi:namedview
     id="namedview16"
     pagecolor="#ffffff"
     bordercolor="#000000"
     borderopacity="0.25"
     inkscape:showpageshadow="2"
     inkscape:pageopacity="0.0"
     inkscape:pagecheckerboard="0"
     inkscape:deskcolor="#d1d1d1"
     inkscape:zoom="0.1767767"
     inkscape:cx="-820.24387"
     inkscape:cy="-164.04877"
     inkscape:window-width="1920"
     inkscape:window-height="978"
     inkscape:window-x="0"
     inkscape:window-y="0"
     inkscape:window-maximized="1"
     inkscape:current-layer="svg16"
     showguides="true"><sodipodi:guide
       position="594,887.00002"
       orientation="0,-1"
       id="guide4"
       inkscape:locked="false" /><sodipodi:guide
       position="511.34315,137.00002"
       orientation="0,-1"
       id="guide5"
       inkscape:locked="false" /><sodipodi:guide
       position="137,542.0938"
       orientation="1,0"
       id="guide6"
       inkscape:locked="false" /><sodipodi:guide
       position="887,480.94199"
       orientation="1,0"
       id="guide7"
       inkscape:locked="false" /><sodipodi:guide
       position="512,0"
       orientation="1,0"
       id="guide1"
       inkscape:locked="false" /></sodipodi:namedview><defs
     id="defs12"><linearGradient
       id="linearGradient63"
       inkscape:collect="always"><stop
         style="stop-color:#a81d33;stop-opacity:1;"
         offset="0"
         id="stop63" /><stop
         style="stop-color:#651320;stop-opacity:1;"
         offset="1"
         id="stop64" /></linearGradient><filter
       id="shadow"
       bx:pinned="true"
       x="0"
       y="0"
       width="1"
       height="1"><title
         id="title1">Drop Shadow</title><feDropShadow
         result="drop-shadow-0"
         in="SourceGraphic"
         style="flood-opacity: 0.3;"
         stdDeviation="10"
         dx="0"
         dy="10" /></filter><bx:guide
       x="-10"
       y="100"
       angle="90" /><bx:guide
       x="100"
       y="-10"
       angle="0" /><bx:guide
       x="924"
       y="-10"
       angle="0" /><bx:guide
       x="-10"
       y="924"
       angle="90" /><clipPath
       id="clip-0"><path
         style="fill:#ffffff;stroke-width:3px"
         d="M 100,724 V 300 C 100,185.001 170,99.995 300.026,100 L 724,99.995 C 854,100 924,185.001 924,300 v 424 c 0,115.001 -70,199.995 -200,200 H 300.026 C 170,924 100,839.001 100,724 Z"
         id="path2"><title
           id="title2">Icon Mask</title></path></clipPath><symbol
       id="symbol-0"
       viewBox="0 0 1024 1024"
       bx:pinned="true"><title
         id="title3">App Icon Guides</title><g
         id="g12"><title
           id="title4">App Icon Guides</title><path
           style="fill:none;stroke:#919191;stroke-width:3px"
           d="m 0,739.001 v -454 C 0,135.001 112,0 284.999,0 H 739.001 C 912,0 1024,135.001 1024,285.001 v 454 C 1024,889.001 912,1024 739.001,1024 H 284.999 C 112,1024 0,889.001 0,739.001 Z"
           id="path5"><title
             id="title5">Outer Bounding Box</title></path><path
           style="fill:none;stroke:#919191;stroke-width:3px"
           d="m 50,739.001 v -454 C 50,162 140,50 284.999,50 H 739.001 C 884.001,50 974,162 974,285.001 v 454 C 974,862 884.001,974 739.001,974 H 284.999 C 140,974 50,862 50,739.001 Z"
           id="path6"><title
             id="title6">Inner Bounding Box</title></path><path
           style="fill:none;stroke:#ff0000;stroke-width:3px"
           d="m 100,724.005 v -424 C 100,185.006 170,100 300.026,100.005 L 724,100 c 130,0.005 200,85.006 200,200.005 v 424 c 0,115.001 -70,199.995 -200,200 H 300.026 C 170,924.005 100,839.006 100,724.005 Z"
           id="path7"><title
             id="title7">Icon Grid Bounding Box</title></path><path
           style="fill:none;stroke:#ff0000"
           d="M 154.017,870.001 H 870.001 V 154.014 H 154.017 Z m 0,0 715.984,-715.987 z M 100,511.995 h 824 z m 0,157.365 H 924 Z M 924,354.631 H 100 Z M 669.365,99.995 v 824 z m -314.73,824 v -824 z M 512,99.995 v 824 z m -357.983,54.019 715.984,715.987 z"
           id="path8"><title
             id="title8">Icon Grid</title></path><circle
           style="fill:none"
           cx="512"
           cy="511.995"
           r="157.397"
           id="circle9"><title
             id="title9">Grid Circle 1</title></circle><circle
           style="fill:none"
           cx="512"
           cy="511.995"
           r="222.577"
           id="circle10"><title
             id="title10">Grid Circle 2</title></circle><circle
           style="fill:none"
           cx="512"
           cy="511.995"
           r="358.00101"
           id="circle11"><title
             id="title11">Grid Circle 3</title></circle><path
           d="m 1084.343,548.001 h -941 c -28.719,0 -52,-23.281 -52,-52 0,-28.719 23.281,-52 52,-52 h 941 c 28.719,0 52,23.281 52,52 0,28.719 -23.281,52 -52,52 z m 51.957,-51.962 -1045,-0.078"
           style="stroke:#0077ff;stroke-width:5px;stroke-dasharray:24, 10"
           transform="rotate(-64.504252,613.82146,496.00118)"
           id="path12"><title
             id="title12">Tool Angle</title></path></g></symbol><linearGradient
       inkscape:collect="always"
       xlink:href="#linearGradient63"
       id="linearGradient64"
       x1="576.76422"
       y1="51.5"
       x2="576.76422"
       y2="972.5"
       gradientUnits="userSpaceOnUse"
       gradientTransform="matrix(1.0029383,0,0,1.0029383,-1.5044074,-1.5044074)" /><filter
       style="color-interpolation-filters:sRGB"
       inkscape:label="Drop Shadow"
       id="filter69"
       x="0"
       y="0"
       width="1.0057613"
       height="1.0098504"><feFlood
         result="flood"
         in="SourceGraphic"
         flood-opacity="0.498039"
         flood-color="rgb(0,0,0)"
         id="feFlood68" /><feGaussianBlur
         result="blur"
         in="SourceGraphic"
         stdDeviation="0.000000"
         id="feGaussianBlur68" /><feOffset
         result="offset"
         in="blur"
         dx="3.000000"
         dy="6.000000"
         id="feOffset68" /><feComposite
         result="comp1"
         operator="in"
         in="flood"
         in2="offset"
         id="feComposite68" /><feComposite
         result="comp2"
         operator="over"
         in="SourceGraphic"
         in2="comp1"
         id="feComposite69" /></filter></defs><path
     id="path63"
     style="baseline-shift:baseline;display:inline;overflow:visible;vector-effect:none;fill:url(#linearGradient64);fill-opacity:1;stroke-width:1.00294;paint-order:markers fill stroke;enable-background:accumulate;stop-color:#000000"
     d="M 284.33105,0 C 111.60637,0 0,134.64308 0,284.33496 V 739.66895 C 0,889.36084 111.60636,1024 284.33105,1024 h 455.3379 C 912.39364,1024 1024,889.36084 1024,739.66895 V 284.33496 C 1024,134.64308 912.39363,0 739.66895,0 Z m 545.53183,65.882468 c 17.8755,6.750901 34.25776,15.510275 49.04799,25.952987 C 864.12063,81.392726 847.73839,72.63338 829.86288,65.882468 Z M 111.75514,903.0284 c 5.7006,6.1289 11.77245,11.94491 18.20568,17.41039 -6.43365,-5.46582 -12.50476,-11.28108 -18.20568,-17.41039 z" /><title
     id="title1-7">Heroic Games Launcher</title><title
     id="title1-3">KDE</title><title
     id="title1-6">Steam</title><metadata
     id="metadata1"><rdf:RDF><cc:Work
         rdf:about=""><dc:title>Heroic Games Launcher</dc:title></cc:Work></rdf:RDF></metadata><title
     id="title1-75">Fedora</title><title
     id="title1-35">Debian</title><path
     d="m 570.75186,533.40618 c -12.5,0 2.5,6.2501 18.7813,8.75 4.375,-3.125 8.4375,-6.875 12.1875,-10.3125 a 93.78125,93.78125 0 0 1 -30.9375,1.5625 m 66.875,-16.5625 c 7.1875,-10.31245 12.5,-21.56245 14.6875,-33.12495 -1.875,8.4375 -6.25,15.625 -10.3125,22.8125 -23.4375,14.68745 -2.1875,-8.4375 0,-17.5 -25,31.56245 -3.4375,18.75 -4.375,27.81245 m 24.4062,-64.06245 c 1.5625,-22.53125 -4.375,-15.65625 -6.25,-6.90625 2.1875,1.25 4.0625,15.625 6.25,6.875 m -138.1875,-306.0625 c 6.25,1.25 14.0625,2.1875 13.125,3.75 7.1875,-1.5625 8.75,-3.125 -13.4375,-3.75 m 13.4375,3.75 -4.6875,0.9375 4.375,-0.3125 v -0.625 m 207.2813,310.75 c 0.625,20 -6.25,29.6875 -11.875,46.875 l -10.9375,5.65625 c -8.75,16.87495 0.9375,10.93755 -5.3125,24.37495 -13.75,12.1876 -41.875,38.1251 -50.625,40.6563 -6.2813,0 4.375,-7.8125 5.9375,-10.625 -18.4688,12.5 -15.0313,18.75 -42.8438,26.5625 l -0.9375,-1.875 c -69.4062,32.5 -165.71871,-31.875 -164.15621,-120.0625 -0.9375,5.3125 -2.1875,4.0625 -3.75,6.25 a 110.96875,111 0 0 1 62.53121,-109.40625 105.03125,105.0625 0 0 1 116.625,15 104.40625,104.4375 0 0 0 -85.0312,-40.625 c -36.875,0.3125 -71.28126,23.75 -82.84376,49.0625 -18.75,11.875 -20.9375,45.9375 -29.0625,51.90625 -11.28125,81.2813 20.625,116.3125 74.37496,157.5625 8.4375,5.9375 2.5,6.5625 3.75,10.9375 a 146.9375,146.9375 0 0 1 -47.81246,-36.25 c 7.1875,10.3125 14.6875,20.625 25,28.4375 -17.1875,-5.625 -39.6875,-40.625 -46.25,-42.1875 29.0625,51.875 118.12496,91.2813 164.40626,71.875 a 193.84375,193.84375 0 0 1 -72.8125,-8.75 c -10.3125,-5 -24.0625,-15.9375 -21.875,-17.8125 a 181.3125,181.34375 0 0 0 184.4375,-26.25 c 13.75,-10.9375 29.0625,-29.375 33.4375,-29.6875 -6.25,10 1.25,5 -3.75,13.75 13.75,-22.5 -6.25,-9.375 14.375,-38.75 l 7.5,10.3125 c -2.8125,-18.75 23.125,-41.28125 20.625,-70.6875 5.9375,-9.375 6.25,9.375 0,30.3125 9.0625,-23.125 2.5,-26.5625 4.6875,-45.625 2.5,6.25 5.625,13.125 7.1875,19.6875 -5.625,-21.875 6.25,-37.5 8.75,-50 -2.8125,-1.5625 -8.75,9.375 -10,-16.5625 0,-11.5625 3.125,-6.25 4.375,-8.75 -2.5,-1.5625 -8.125,-10 -11.875,-26.90625 2.5,-4.0625 6.875,10.3125 10.625,10.625 -2.5,-13.125 -6.25,-23.4375 -6.25,-33.75 -10.625,-21.25 -3.75,3.125 -12.5,-9.375 -10.625,-34.09375 9.375,-7.8125 10.625,-23.125 16.875,24.0625 26.25,61.25 30.6562,76.875 -3.125,-18.75 -8.75,-37.5 -15.3125,-55 5,2.1875 -8.125,-38.78125 6.5625,-11.5625 A 244.46875,244.5 0 0 0 690.18936,186.99998 c 5.625,5.3125 13.125,12.1875 10.3125,13.125 -23.4375,-14.0625 -19.375,-15 -22.8125,-20.9375 -19.0625,-7.8125 -20.3125,0.625 -33.125,0 -36.25,-19.375 -43.125,-17.1875 -76.3125,-29.6875 l 1.5625,7.1875 c -24.0625,-7.8125 -28.125,3.125 -54.0625,0 -1.5625,-1.25 8.4375,-4.375 16.5625,-5.625 -23.1562,3.125 -21.9062,-4.375 -44.71871,0.9375 5.3125,-4.0625 11.25,-6.5625 17.1875,-10 -18.75,1.25 -45,10.9375 -36.875,2.1875 -30.90625,14.0625 -85.6875,33.4375 -116.3125,62.1875 l -0.90625,-6.875 c -14.0625,16.875 -61.25,50.34375 -65,72.21875 l -4.09375,0.9375 c -7.1875,12.5 -11.875,26.5625 -17.8125,39.40625 -9.375,16.25 -14.0625,6.25 -12.5,8.75 -18.75,38.125 -28.125,70.34375 -36.25,96.9375 5.625,8.4375 0,51.5625 2.1875,86.25 -9.375,170.7187 120,336.75 261.34375,375.1875 20.9375,7.1875 51.56246,7.1875 77.81246,7.8125 -30.9375,-8.75 -35,-4.6875 -64.99996,-15.3125 -21.875,-10 -26.5625,-21.875 -41.875,-35.3125 l 6.25,10.9375 c -30.34375,-10.625 -17.8125,-13.125 -42.53125,-20.9375 l 6.5625,-8.4375 c -9.6875,-0.9375 -25.9375,-16.5625 -30.3125,-25.3125 l -10.625,0.3125 c -12.8125,-15.6562 -19.6875,-27.2187 -19.0625,-36.2812 l -3.46875,6.25 c -4.0625,-6.5625 -47.5,-59.4063 -25,-47.2188 -4.0625,-3.75 -9.6875,-6.25 -15.625,-17.1875 l 4.375,-5.3125 c -10.9375,-13.75 -20,-31.875 -19.375,-37.5 6.25,7.5 10,9.375 14.0625,10.3125 -27.5,-67.875 -29.0625,-3.75 -50.03125,-68.8125 l 4.6875,-0.625 c -3.125,-5 -5.625,-10.625 -8.125,-15.9375 l 1.875,-18.75 c -19.6875,-23.125 -5.625,-96.9375 -2.8125,-137.5625 2.1875,-16.875 16.5625,-34.375 27.5,-61.90625 l -6.5625,-1.25 c 12.5,-22.1875 73.15625,-89.75 101.28125,-86.28125 13.4375,-17.1875 -2.8125,0 -5.625,-4.375 30,-30.96875 39.375,-21.875 59.40625,-27.5 21.875,-12.53125 -18.75,5 -8.4375,-4.71875 37.5,-9.375 26.5625,-21.875 75.65625,-26.5625 4.99996,3.125 -12.1875,4.375 -16.25,8.125 31.24996,-15.3125 98.46876,-11.5625 142.56246,8.4375 50.9375,24.0625 108.1563,94.09375 110.3438,160.375 l 2.5,0.625 c -1.25,26.5625 4.0625,56.90625 -5.3125,84.71875 l 6.25,-13.125 m -308.53126,89.75 -1.5625,8.75 c 8.125,10.9375 14.6875,22.8125 25,31.5625 -7.5,-14.6875 -13.125,-20.625 -23.4375,-40.625 m 19.375,-0.625 c -4.375,-4.6875 -6.875,-10.625 -9.6875,-16.25 2.5,10 8.125,18.75 13.4375,27.5 l -3.75,-11.25 m 342.03126,-74.4375 -2.1875,4.6875 c -3.125,23.75 -10.625,47.2188 -21.5625,69.125 12.5,-22.8125 20.3125,-48.15625 23.4375,-73.8125 m -270.1563,-334.5 c 8.4375,-3.125 20.625,-1.5625 29.6875,-3.75 -11.5625,0.9375 -23.125,1.5625 -34.375,3.125 l 4.6875,0.625 M 230.9394,297.68748 c 2.1875,17.8125 -13.4375,25 3.4375,13.125 9.375,-20.625 -3.4375,-5.625 -3.125,-13.125 m -20,83.15625 c 3.75,-12.1875 4.6875,-19.375 6.25,-26.25 -10.9375,13.75 -5.3125,16.5625 -6.25,25.9375"
     id="path1"
     style="stroke-width:31.25;fill:#ffffff" /></svg>
