<?xml version="1.0" encoding="UTF-8" standalone="no"?>
<svg
   viewBox="0 0 1024 1024"
   version="1.1"
   id="svg16"
   sodipodi:docname="epic_games.svg"
   inkscape:version="1.4.4 (dcaf3e7d9e, 2026-05-05)"
   inkscape:export-filename="epic_games.png"
   inkscape:export-xdpi="48"
   inkscape:export-ydpi="48"
   width="1024"
   height="1024"
   xml:space="preserve"
   xmlns:inkscape="http://www.inkscape.org/namespaces/inkscape"
   xmlns:sodipodi="http://sodipodi.sourceforge.net/DTD/sodipodi-0.dtd"
   xmlns:xlink="http://www.w3.org/1999/xlink"
   xmlns="http://www.w3.org/2000/svg"
   xmlns:svg="http://www.w3.org/2000/svg"
   xmlns:rdf="http://www.w3.org/1999/02/22-rdf-syntax-ns#"
   xmlns:cc="http://creativecommons.org/ns#"
   xmlns:dc="http://purl.org/dc/elements/1.1/"
   xmlns:bx="https://boxy-svg.com"><sodipodi:namedview
     id="namedview16"
     pagecolor="#ffffff"
     bordercolor="#000000"
     borderopacity="0.25"
     inkscape:showpageshadow="2"
     inkscape:pageopacity="0.0"
     inkscape:pagecheckerboard="0"
     inkscape:deskcolor="#d1d1d1"
     inkscape:zoom="0.35355339"
     inkscape:cx="118.79394"
     inkscape:cy="704.27836"
     inkscape:window-width="1920"
     inkscape:window-height="978"
     inkscape:window-x="0"
     inkscape:window-y="0"
     inkscape:window-maximized="1"
     inkscape:current-layer="svg16"
     showguides="true"><sodipodi:guide
       position="594,887.00002"
       orientation="0,-1"
       id="guide4"
       inkscape:locked="false" /><sodipodi:guide
       position="511.34315,137.00002"
       orientation="0,-1"
       id="guide5"
       inkscape:locked="false" /><sodipodi:guide
       position="137,542.0938"
       orientation="1,0"
       id="guide6"
       inkscape:locked="false" /><sodipodi:guide
       position="887,480.94199"
       orientation="1,0"
       id="guide7"
       inkscape:locked="false" /><sodipodi:guide
       position="512,0"
       orientation="1,0"
       id="guide1"
       inkscape:locked="false" /></sodipodi:namedview><defs
     id="defs12"><linearGradient
       id="linearGradient63"
       inkscape:collect="always"><stop
         style="stop-color:#313131;stop-opacity:1;"
         offset="0"
         id="stop63" /><stop
         style="stop-color:#1a1a1a;stop-opacity:1;"
         offset="1"
         id="stop64" /></linearGradient><filter
       id="shadow"
       bx:pinned="true"
       x="0"
       y="0"
       width="1"
       height="1"><title
         id="title1">Drop Shadow</title><feDropShadow
         result="drop-shadow-0"
         in="SourceGraphic"
         style="flood-opacity: 0.3;"
         stdDeviation="10"
         dx="0"
         dy="10" /></filter><bx:guide
       x="-10"
       y="100"
       angle="90" /><bx:guide
       x="100"
       y="-10"
       angle="0" /><bx:guide
       x="924"
       y="-10"
       angle="0" /><bx:guide
       x="-10"
       y="924"
       angle="90" /><clipPath
       id="clip-0"><path
         style="fill:#ffffff;stroke-width:3px"
         d="M 100,724 V 300 C 100,185.001 170,99.995 300.026,100 L 724,99.995 C 854,100 924,185.001 924,300 v 424 c 0,115.001 -70,199.995 -200,200 H 300.026 C 170,924 100,839.001 100,724 Z"
         id="path2"><title
           id="title2">Icon Mask</title></path></clipPath><symbol
       id="symbol-0"
       viewBox="0 0 1024 1024"
       bx:pinned="true"><title
         id="title3">App Icon Guides</title><g
         id="g12"><title
           id="title4">App Icon Guides</title><path
           style="fill:none;stroke:#919191;stroke-width:3px"
           d="m 0,739.001 v -454 C 0,135.001 112,0 284.999,0 H 739.001 C 912,0 1024,135.001 1024,285.001 v 454 C 1024,889.001 912,1024 739.001,1024 H 284.999 C 112,1024 0,889.001 0,739.001 Z"
           id="path5"><title
             id="title5">Outer Bounding Box</title></path><path
           style="fill:none;stroke:#919191;stroke-width:3px"
           d="m 50,739.001 v -454 C 50,162 140,50 284.999,50 H 739.001 C 884.001,50 974,162 974,285.001 v 454 C 974,862 884.001,974 739.001,974 H 284.999 C 140,974 50,862 50,739.001 Z"
           id="path6"><title
             id="title6">Inner Bounding Box</title></path><path
           style="fill:none;stroke:#ff0000;stroke-width:3px"
           d="m 100,724.005 v -424 C 100,185.006 170,100 300.026,100.005 L 724,100 c 130,0.005 200,85.006 200,200.005 v 424 c 0,115.001 -70,199.995 -200,200 H 300.026 C 170,924.005 100,839.006 100,724.005 Z"
           id="path7"><title
             id="title7">Icon Grid Bounding Box</title></path><path
           style="fill:none;stroke:#ff0000"
           d="M 154.017,870.001 H 870.001 V 154.014 H 154.017 Z m 0,0 715.984,-715.987 z M 100,511.995 h 824 z m 0,157.365 H 924 Z M 924,354.631 H 100 Z M 669.365,99.995 v 824 z m -314.73,824 v -824 z M 512,99.995 v 824 z m -357.983,54.019 715.984,715.987 z"
           id="path8"><title
             id="title8">Icon Grid</title></path><circle
           style="fill:none"
           cx="512"
           cy="511.995"
           r="157.397"
           id="circle9"><title
             id="title9">Grid Circle 1</title></circle><circle
           style="fill:none"
           cx="512"
           cy="511.995"
           r="222.577"
           id="circle10"><title
             id="title10">Grid Circle 2</title></circle><circle
           style="fill:none"
           cx="512"
           cy="511.995"
           r="358.00101"
           id="circle11"><title
             id="title11">Grid Circle 3</title></circle><path
           d="m 1084.343,548.001 h -941 c -28.719,0 -52,-23.281 -52,-52 0,-28.719 23.281,-52 52,-52 h 941 c 28.719,0 52,23.281 52,52 0,28.719 -23.281,52 -52,52 z m 51.957,-51.962 -1045,-0.078"
           style="stroke:#0077ff;stroke-width:5px;stroke-dasharray:24, 10"
           transform="rotate(-64.504252,613.82146,496.00118)"
           id="path12"><title
             id="title12">Tool Angle</title></path></g></symbol><linearGradient
       inkscape:collect="always"
       xlink:href="#linearGradient63"
       id="linearGradient64"
       x1="576.76422"
       y1="51.5"
       x2="576.76422"
       y2="972.5"
       gradientUnits="userSpaceOnUse"
       gradientTransform="matrix(1.0029383,0,0,1.0029383,-1.5044074,-1.5044074)" /><filter
       style="color-interpolation-filters:sRGB"
       inkscape:label="Drop Shadow"
       id="filter69"
       x="0"
       y="0"
       width="1.0057613"
       height="1.0098504"><feFlood
         result="flood"
         in="SourceGraphic"
         flood-opacity="0.498039"
         flood-color="rgb(0,0,0)"
         id="feFlood68" /><feGaussianBlur
         result="blur"
         in="SourceGraphic"
         stdDeviation="0.000000"
         id="feGaussianBlur68" /><feOffset
         result="offset"
         in="blur"
         dx="3.000000"
         dy="6.000000"
         id="feOffset68" /><feComposite
         result="comp1"
         operator="in"
         in="flood"
         in2="offset"
         id="feComposite68" /><feComposite
         result="comp2"
         operator="over"
         in="SourceGraphic"
         in2="comp1"
         id="feComposite69" /></filter></defs><path
     id="path63"
     style="baseline-shift:baseline;display:inline;overflow:visible;vector-effect:none;fill:url(#linearGradient64);fill-opacity:1;stroke-width:1.00294;paint-order:markers fill stroke;enable-background:accumulate;stop-color:#000000"
     d="M 284.33105,0 C 111.60637,0 0,134.64308 0,284.33496 V 739.66895 C 0,889.36084 111.60636,1024 284.33105,1024 h 455.3379 C 912.39364,1024 1024,889.36084 1024,739.66895 V 284.33496 C 1024,134.64308 912.39363,0 739.66895,0 Z m 545.53183,65.882468 c 17.8755,6.750901 34.25776,15.510275 49.04799,25.952987 C 864.12063,81.392726 847.73839,72.63338 829.86288,65.882468 Z M 111.75514,903.0284 c 5.7006,6.1289 11.77245,11.94491 18.20568,17.41039 -6.43365,-5.46582 -12.50476,-11.28108 -18.20568,-17.41039 z" /><title
     id="title1-7">Heroic Games Launcher</title><title
     id="title1-6">Steam</title><metadata
     id="metadata1"><rdf:RDF><cc:Work
         rdf:about=""><dc:title>Heroic Games Launcher</dc:title></cc:Work></rdf:RDF></metadata><title
     id="title1-3">Epic Games</title><path
     d="m 247.51919,137.0156 c -42.87443,0 -58.65546,15.81229 -58.65546,58.71796 v 517.52427 a 133.1857,133.1857 0 0 0 0.62499,13.53108 c 0.96873,9.37487 1.15623,18.43724 9.87486,28.74961 0.84374,1.03123 9.71862,7.65614 9.71862,7.65614 4.78119,2.34372 8.06239,4.06244 13.43732,6.24992 l 260.46524,109.09228 c 13.53107,6.21866 19.18724,8.62488 28.99961,8.43738 h 0.0625 c 9.81237,0.1875 15.46855,-2.21872 28.99961,-8.43738 L 801.51172,769.41332 c 5.37493,-2.18746 8.65613,-3.87494 13.43732,-6.24991 0,0 8.87488,-6.59366 9.71862,-7.59365 8.74988,-10.31236 8.90613,-19.40598 9.87486,-28.74961 a 133.15446,133.15446 0 0 0 0.62499,-13.56232 V 195.73356 c 0,-42.90567 -15.81229,-58.74921 -58.6867,-58.74921 z m 417.68187,97.18619 h 21.24971 c 35.56202,0 52.74928,17.28102 52.74928,52.99929 v 58.7492 h -42.93692 v -56.24924 c 0,-11.53109 -5.31242,-16.87477 -16.34352,-16.87477 h -7.34366 c -11.46859,0 -16.78102,5.31243 -16.78102,16.84352 v 181.56006 c 0,11.53109 5.31243,16.87477 16.78102,16.87477 h 8.1874 c 11.0311,0 16.34352,-5.34368 16.34352,-16.87477 v -64.87413 h 42.90567 v 66.96784 c 0,35.74952 -17.56225,53.43679 -53.12428,53.43679 h -21.6872 c -35.56203,0 -53.12429,-17.68727 -53.12429,-53.43679 V 287.63857 c 0,-35.74952 17.56226,-53.40553 53.12429,-53.40553 z m -380.80737,2.49997 h 97.31119 v 39.81196 H 328.1431 v 81.34265 h 51.4993 v 39.84322 h -51.4993 v 86.68633 h 54.37426 v 39.84321 h -98.12367 z m 119.24838,0 h 68.68659 c 35.56201,0 53.12428,17.62476 53.12428,53.37428 v 76.40522 c 0,35.74952 -17.56227,53.43678 -53.12428,53.43678 h -24.96842 v 104.31109 h -43.74941 z m 141.5606,0 h 43.74941 v 287.52737 h -43.74941 z m -97.81118,38.59323 v 105.99857 h 17.9685 c 11.06236,0 16.34354,-5.34368 16.34354,-16.87477 v -72.24903 c 0,-11.49985 -5.31244,-16.87477 -16.34354,-16.87477 z M 330.51806,592.38446 a 53.374281,53.374281 0 0 1 18.46851,3.37496 54.530515,54.530515 0 0 1 15.31229,9.34362 l -14.12481,17.06228 a 38.968225,38.968225 0 0 0 -9.62487,-6.09367 28.437117,28.437117 0 0 0 -11.3436,-2.12498 20.562223,20.562223 0 0 0 -8.74988,1.87498 21.968454,21.968454 0 0 0 -6.99991,5.09368 24.46842,24.46842 0 0 0 -4.71868,7.59365 24.968413,24.968413 0 0 0 -1.74998,9.34362 v 0.24999 a 26.624641,26.624641 0 0 0 1.74998,9.68738 21.874705,21.874705 0 0 0 4.90618,7.65615 22.99969,22.99969 0 0 0 7.43741,4.99993 24.187174,24.187174 0 0 0 9.46862,1.81247 24.687167,24.687167 0 0 0 13.90606,-3.62495 v -10.59361 h -17.12477 v -17.65601 h 39.96821 v 39.21822 a 63.092899,63.092899 0 0 1 -16.37478,9.59362 55.905497,55.905497 0 0 1 -21.34346,3.8437 51.311808,51.311808 0 0 1 -18.81225,-3.34371 45.624385,45.624385 0 0 1 -14.9373,-9.37487 42.843172,42.843172 0 0 1 -9.93736,-14.21855 44.936894,44.936894 0 0 1 -3.59371,-18.12476 v -0.25 a 44.5619,44.5619 0 0 1 3.53121,-17.81226 45.28064,45.28064 0 0 1 9.74986,-14.37481 44.311903,44.311903 0 0 1 14.8123,-9.65611 49.374335,49.374335 0 0 1 18.68726,-3.46871 53.374281,53.374281 0 0 1 1.40623,0 z m 373.83871,0.25 a 62.686655,62.686655 0 0 1 19.12475,2.93746 50.311822,50.311822 0 0 1 15.84354,8.65613 l -12.06234,17.06227 a 48.811842,48.811842 0 0 0 -12.18734,-6.40616 36.812004,36.812004 0 0 0 -12.12484,-2.18748 10.843604,10.843604 0 0 0 -6.49991,1.62499 4.8124351,4.8124351 0 0 0 -2.18746,3.9687 v 0.24999 a 4.9374335,4.9374335 0 0 0 0.68748,2.62497 6.1874166,6.1874166 0 0 0 2.37498,2.06247 25.9684,25.9684 0 0 0 4.59368,1.87497 c 1.93747,0.62499 4.37494,1.24999 7.3749,1.90623 a 105.90482,105.90482 0 0 1 13.43732,3.81244 40.374456,40.374456 0 0 1 10.24986,5.31243 21.187214,21.187214 0 0 1 6.46866,7.4999 23.093439,23.093439 0 0 1 2.21872,10.53111 v 0.25 a 27.030886,27.030886 0 0 1 -2.53121,11.93733 25.624655,25.624655 0 0 1 -7.15615,8.90613 32.249565,32.249565 0 0 1 -11.0311,5.62493 50.186824,50.186824 0 0 1 -14.37482,1.90623 67.499091,67.499091 0 0 1 -22.18719,-3.62495 53.686776,53.686776 0 0 1 -18.531,-10.81236 l 13.43731,-16.06228 c 8.65613,6.96865 18.06226,10.46861 28.12462,10.46861 a 14.281057,14.281057 0 0 0 7.37491,-1.56248 4.9061839,4.9061839 0 0 0 2.56246,-4.43744 v -0.25 a 4.6874368,4.6874368 0 0 0 -0.62499,-2.40622 6.3749141,6.3749141 0 0 0 -2.28122,-2.06247 23.530933,23.530933 0 0 0 -4.46869,-1.93748 76.561468,76.561468 0 0 0 -7.28115,-1.93747 157.37288,157.37288 0 0 1 -12.90608,-3.5312 39.374469,39.374469 0 0 1 -10.3436,-4.99993 22.499697,22.499697 0 0 1 -6.93741,-7.59365 22.812193,22.812193 0 0 1 -2.56247,-11.24985 v -0.25 a 26.968386,26.968386 0 0 1 2.31247,-11.2186 24.812165,24.812165 0 0 1 6.68741,-8.84363 31.468326,31.468326 0 0 1 10.62486,-5.78117 44.468151,44.468151 0 0 1 13.99981,-2.06247 62.686655,62.686655 0 0 1 0.78123,0 z m -292.43355,0.78124 h 23.18719 l 36.96825,87.81132 h -25.7809 l -6.34367,-15.59354 h -33.49955 l -6.18742,15.56229 h -25.31215 z m 68.65533,0.62499 h 25.43715 l 20.71847,33.74954 20.71847,-33.74954 h 25.43716 v 87.18633 h -23.93718 v -50.06183 l -22.21845,34.09329 h -0.5 l -22.09344,-33.8433 v 49.78059 h -23.56218 z m 108.40478,0 h 69.84281 v 20.56222 h -46.03063 v 13.18732 h 41.68694 v 19.06225 h -41.68694 v 13.81231 h 46.65562 v 20.56223 h -70.4678 z m -165.62277,28.03088 -9.84361,24.78091 h 19.49973 z m -35.78077,162.18531 h 250.43414 l -127.81079,42.12443 z"
     id="path1"
     style="stroke-width:31.2496;fill:#ffffff" /></svg>
