<?xml version="1.0" encoding="UTF-8" standalone="no"?>
<svg
   viewBox="0 0 1024 1024"
   version="1.1"
   id="svg16"
   sodipodi:docname="firefox.svg"
   inkscape:version="1.4.4 (dcaf3e7d9e, 2026-05-05)"
   inkscape:export-filename="../app-icons/firefox.png"
   inkscape:export-xdpi="48"
   inkscape:export-ydpi="48"
   width="1024"
   height="1024"
   xml:space="preserve"
   xmlns:inkscape="http://www.inkscape.org/namespaces/inkscape"
   xmlns:sodipodi="http://sodipodi.sourceforge.net/DTD/sodipodi-0.dtd"
   xmlns:xlink="http://www.w3.org/1999/xlink"
   xmlns="http://www.w3.org/2000/svg"
   xmlns:svg="http://www.w3.org/2000/svg"
   xmlns:bx="https://boxy-svg.com"><sodipodi:namedview
     id="namedview16"
     pagecolor="#ffffff"
     bordercolor="#000000"
     borderopacity="0.25"
     inkscape:showpageshadow="2"
     inkscape:pageopacity="0.0"
     inkscape:pagecheckerboard="0"
     inkscape:deskcolor="#d1d1d1"
     inkscape:zoom="0.37695312"
     inkscape:cx="615.46115"
     inkscape:cy="705.65804"
     inkscape:window-width="1920"
     inkscape:window-height="978"
     inkscape:window-x="0"
     inkscape:window-y="0"
     inkscape:window-maximized="1"
     inkscape:current-layer="svg16"
     showguides="true"><sodipodi:guide
       position="644.64062,887"
       orientation="0,-1"
       id="guide1"
       inkscape:locked="false" /><sodipodi:guide
       position="718.3125,137"
       orientation="0,-1"
       id="guide2"
       inkscape:locked="false" /><sodipodi:guide
       position="137,512"
       orientation="1,0"
       id="guide3"
       inkscape:locked="false" /><sodipodi:guide
       position="886.9972,512.68649"
       orientation="1,0"
       id="guide4"
       inkscape:locked="false" /></sodipodi:namedview><defs
     id="defs12"><linearGradient
       id="linearGradient63"
       inkscape:collect="always"><stop
         style="stop-color:#50009c;stop-opacity:1;"
         offset="0"
         id="stop63" /><stop
         style="stop-color:#2b0054;stop-opacity:1;"
         offset="1"
         id="stop64" /></linearGradient><filter
       id="shadow"
       bx:pinned="true"
       x="0"
       y="0"
       width="1"
       height="1"><title
         id="title1">Drop Shadow</title><feDropShadow
         result="drop-shadow-0"
         in="SourceGraphic"
         style="flood-opacity: 0.3;"
         stdDeviation="10"
         dx="0"
         dy="10" /></filter><bx:guide
       x="-10"
       y="100"
       angle="90" /><bx:guide
       x="100"
       y="-10"
       angle="0" /><bx:guide
       x="924"
       y="-10"
       angle="0" /><bx:guide
       x="-10"
       y="924"
       angle="90" /><clipPath
       id="clip-0"><path
         style="fill:#ffffff;stroke-width:3px"
         d="M 100,724 V 300 C 100,185.001 170,99.995 300.026,100 L 724,99.995 C 854,100 924,185.001 924,300 v 424 c 0,115.001 -70,199.995 -200,200 H 300.026 C 170,924 100,839.001 100,724 Z"
         id="path2"><title
           id="title2">Icon Mask</title></path></clipPath><symbol
       id="symbol-0"
       viewBox="0 0 1024 1024"
       bx:pinned="true"><title
         id="title3">App Icon Guides</title><g
         id="g12"><title
           id="title4">App Icon Guides</title><path
           style="fill:none;stroke:#919191;stroke-width:3px"
           d="m 0,739.001 v -454 C 0,135.001 112,0 284.999,0 H 739.001 C 912,0 1024,135.001 1024,285.001 v 454 C 1024,889.001 912,1024 739.001,1024 H 284.999 C 112,1024 0,889.001 0,739.001 Z"
           id="path5"><title
             id="title5">Outer Bounding Box</title></path><path
           style="fill:none;stroke:#919191;stroke-width:3px"
           d="m 50,739.001 v -454 C 50,162 140,50 284.999,50 H 739.001 C 884.001,50 974,162 974,285.001 v 454 C 974,862 884.001,974 739.001,974 H 284.999 C 140,974 50,862 50,739.001 Z"
           id="path6"><title
             id="title6">Inner Bounding Box</title></path><path
           style="fill:none;stroke:#ff0000;stroke-width:3px"
           d="m 100,724.005 v -424 C 100,185.006 170,100 300.026,100.005 L 724,100 c 130,0.005 200,85.006 200,200.005 v 424 c 0,115.001 -70,199.995 -200,200 H 300.026 C 170,924.005 100,839.006 100,724.005 Z"
           id="path7"><title
             id="title7">Icon Grid Bounding Box</title></path><path
           style="fill:none;stroke:#ff0000"
           d="M 154.017,870.001 H 870.001 V 154.014 H 154.017 Z m 0,0 715.984,-715.987 z M 100,511.995 h 824 z m 0,157.365 H 924 Z M 924,354.631 H 100 Z M 669.365,99.995 v 824 z m -314.73,824 v -824 z M 512,99.995 v 824 z m -357.983,54.019 715.984,715.987 z"
           id="path8"><title
             id="title8">Icon Grid</title></path><circle
           style="fill:none"
           cx="512"
           cy="511.995"
           r="157.397"
           id="circle9"><title
             id="title9">Grid Circle 1</title></circle><circle
           style="fill:none"
           cx="512"
           cy="511.995"
           r="222.577"
           id="circle10"><title
             id="title10">Grid Circle 2</title></circle><circle
           style="fill:none"
           cx="512"
           cy="511.995"
           r="358.00101"
           id="circle11"><title
             id="title11">Grid Circle 3</title></circle><path
           d="m 1084.343,548.001 h -941 c -28.719,0 -52,-23.281 -52,-52 0,-28.719 23.281,-52 52,-52 h 941 c 28.719,0 52,23.281 52,52 0,28.719 -23.281,52 -52,52 z m 51.957,-51.962 -1045,-0.078"
           style="stroke:#0077ff;stroke-width:5px;stroke-dasharray:24, 10"
           transform="rotate(-64.504252,613.82146,496.00118)"
           id="path12"><title
             id="title12">Tool Angle</title></path></g></symbol><linearGradient
       inkscape:collect="always"
       xlink:href="#linearGradient63"
       id="linearGradient64"
       x1="576.76422"
       y1="51.5"
       x2="576.76422"
       y2="972.5"
       gradientUnits="userSpaceOnUse"
       gradientTransform="matrix(1.0029383,0,0,1.0029383,-1.5044074,-1.5044074)" /><filter
       style="color-interpolation-filters:sRGB"
       inkscape:label="Drop Shadow"
       id="filter69"
       x="0"
       y="0"
       width="1.0057613"
       height="1.0098504"><feFlood
         result="flood"
         in="SourceGraphic"
         flood-opacity="0.498039"
         flood-color="rgb(0,0,0)"
         id="feFlood68" /><feGaussianBlur
         result="blur"
         in="SourceGraphic"
         stdDeviation="0.000000"
         id="feGaussianBlur68" /><feOffset
         result="offset"
         in="blur"
         dx="3.000000"
         dy="6.000000"
         id="feOffset68" /><feComposite
         result="comp1"
         operator="in"
         in="flood"
         in2="offset"
         id="feComposite68" /><feComposite
         result="comp2"
         operator="over"
         in="SourceGraphic"
         in2="comp1"
         id="feComposite69" /></filter><radialGradient
       id="g"
       cx="240.61284"
       cy="36.806651"
       r="170.02094"
       gradientTransform="scale(0.99822767,1.0017755)"
       fx="240.61284"
       fy="36.806651"
       gradientUnits="userSpaceOnUse"><stop
         offset=".1"
         stop-color="#ffe226"
         id="stop1" /><stop
         offset=".79"
         stop-color="#ff7139"
         id="stop2" /></radialGradient><radialGradient
       id="c"
       cx="226.56298"
       cy="290.17784"
       r="554.14583"
       gradientTransform="scale(1.1087373,0.9019269)"
       fx="226.56298"
       fy="290.17784"
       gradientUnits="userSpaceOnUse"><stop
         offset=".3"
         stop-color="#960e18"
         id="stop3" /><stop
         offset=".35"
         stop-color="#b11927"
         stop-opacity=".74"
         id="stop4" /><stop
         offset=".43"
         stop-color="#db293d"
         stop-opacity=".34"
         id="stop5" /><stop
         offset=".5"
         stop-color="#f5334b"
         stop-opacity=".09"
         id="stop6" /><stop
         offset=".53"
         stop-color="#ff3750"
         stop-opacity="0"
         id="stop7" /></radialGradient><radialGradient
       id="d"
       cx="395.44365"
       cy="-17.973478"
       r="210.2099"
       gradientTransform="scale(0.76747288,1.3029776)"
       fx="395.44365"
       fy="-17.973478"
       gradientUnits="userSpaceOnUse"><stop
         offset=".13"
         stop-color="#fff44f"
         id="stop8" /><stop
         offset=".53"
         stop-color="#ff980e"
         id="stop9" /></radialGradient><radialGradient
       id="e"
       cx="206.27053"
       cy="373.24011"
       r="223.49659"
       gradientTransform="scale(0.95519576,1.0469058)"
       fx="206.27053"
       fy="373.24011"
       gradientUnits="userSpaceOnUse"><stop
         offset=".35"
         stop-color="#3a8ee6"
         id="stop10" /><stop
         offset=".67"
         stop-color="#9059ff"
         id="stop11" /><stop
         offset="1"
         stop-color="#c139e6"
         id="stop12" /></radialGradient><radialGradient
       id="f"
       cx="271.62092"
       cy="200.9019"
       r="131.86298"
       gradientTransform="scale(0.95519576,1.0469058)"
       fx="271.62092"
       fy="200.9019"
       gradientUnits="userSpaceOnUse"><stop
         offset=".21"
         stop-color="#9059ff"
         stop-opacity="0"
         id="stop13" /><stop
         offset=".97"
         stop-color="#6e008b"
         stop-opacity=".6"
         id="stop14" /></radialGradient><radialGradient
       id="b"
       cx="392.80674"
       cy="61.159757"
       r="554.14583"
       gradientTransform="scale(1.1087373,0.9019269)"
       fx="392.80674"
       fy="61.159757"
       gradientUnits="userSpaceOnUse"><stop
         offset=".13"
         stop-color="#ffbd4f"
         id="stop15" /><stop
         offset=".28"
         stop-color="#ff980e"
         id="stop16" /><stop
         offset=".47"
         stop-color="#ff3750"
         id="stop17" /><stop
         offset=".78"
         stop-color="#eb0878"
         id="stop18" /><stop
         offset=".86"
         stop-color="#e50080"
         id="stop19" /></radialGradient><radialGradient
       id="h"
       cx="362.075"
       cy="-81.709216"
       r="742.38693"
       gradientTransform="scale(1.0914501,0.91621229)"
       fx="362.075"
       fy="-81.709216"
       gradientUnits="userSpaceOnUse"><stop
         offset=".11"
         stop-color="#fff44f"
         id="stop20" /><stop
         offset=".46"
         stop-color="#ff980e"
         id="stop21" /><stop
         offset=".72"
         stop-color="#ff3647"
         id="stop22" /><stop
         offset=".9"
         stop-color="#e31587"
         id="stop23" /></radialGradient><radialGradient
       id="i"
       cx="475.58807"
       cy="-41.588268"
       r="779.90861"
       gradientTransform="scale(0.68818401,1.4530997)"
       fx="475.58807"
       fy="-41.588268"
       gradientUnits="userSpaceOnUse"><stop
         offset="0"
         stop-color="#fff44f"
         id="stop24" /><stop
         offset=".3"
         stop-color="#ff980e"
         id="stop25" /><stop
         offset=".57"
         stop-color="#ff3647"
         id="stop26" /><stop
         offset=".74"
         stop-color="#e31587"
         id="stop27" /></radialGradient><radialGradient
       id="j"
       cx="239.79737"
       cy="99.00617"
       r="461.1138"
       gradientTransform="scale(1.008901,0.9911775)"
       fx="239.79737"
       fy="99.00617"
       gradientUnits="userSpaceOnUse"><stop
         offset=".14"
         stop-color="#fff44f"
         id="stop28" /><stop
         offset=".48"
         stop-color="#ff980e"
         id="stop29" /><stop
         offset=".66"
         stop-color="#ff3647"
         id="stop30" /><stop
         offset=".9"
         stop-color="#e31587"
         id="stop31" /></radialGradient><radialGradient
       id="k"
       cx="343.03801"
       cy="132.0125"
       r="528.89329"
       gradientTransform="scale(1.0572577,0.94584319)"
       fx="343.03801"
       fy="132.0125"
       gradientUnits="userSpaceOnUse"><stop
         offset=".09"
         stop-color="#fff44f"
         id="stop32" /><stop
         offset=".63"
         stop-color="#ff980e"
         id="stop33" /></radialGradient><linearGradient
       id="a"
       x1="441.98419"
       y1="75.63131"
       x2="62.126281"
       y2="454.26937"
       gradientTransform="scale(0.98374383,1.0165248)"
       gradientUnits="userSpaceOnUse"><stop
         offset=".05"
         stop-color="#fff44f"
         id="stop34" /><stop
         offset=".37"
         stop-color="#ff980e"
         id="stop35" /><stop
         offset=".53"
         stop-color="#ff3647"
         id="stop36" /><stop
         offset=".7"
         stop-color="#e31587"
         id="stop37" /></linearGradient><linearGradient
       id="l"
       x1="406.61137"
       y1="68.31199"
       x2="104.09252"
       y2="409.86551"
       gradientTransform="scale(0.98373973,1.016529)"
       gradientUnits="userSpaceOnUse"><stop
         offset=".17"
         stop-color="#fff44f"
         stop-opacity=".8"
         id="stop38" /><stop
         offset=".6"
         stop-color="#fff44f"
         stop-opacity="0"
         id="stop39" /></linearGradient></defs><path
     id="path63"
     style="baseline-shift:baseline;display:inline;overflow:visible;vector-effect:none;fill:url(#linearGradient64);fill-opacity:1;stroke-width:1.00294;paint-order:markers fill stroke;enable-background:accumulate;stop-color:#000000"
     d="M 284.33105,0 C 111.60637,0 0,134.64308 0,284.33496 V 739.66895 C 0,889.36084 111.60636,1024 284.33105,1024 h 455.3379 C 912.39364,1024 1024,889.36084 1024,739.66895 V 284.33496 C 1024,134.64308 912.39363,0 739.66895,0 Z m 545.53183,65.882468 c 17.8755,6.750901 34.25776,15.510275 49.04799,25.952987 C 864.12063,81.392726 847.73839,72.63338 829.86288,65.882468 Z M 111.75514,903.0284 c 5.7006,6.1289 11.77245,11.94491 18.20568,17.41039 -6.43365,-5.46582 -12.50476,-11.28108 -18.20568,-17.41039 z" /><g
     id="g1"
     transform="matrix(1.5121007,0,0,1.5121007,126.13988,133.82068)"><path
       d="m 478.711,166.353 c -10.445,-25.124 -31.6,-52.248 -48.212,-60.821 13.52,26.505 21.345,53.093 24.335,72.936 0,0.039 0.015,0.136 0.047,0.4 C 427.706,111.135 381.627,83.823 344,24.355 c -1.9,-3.007 -3.805,-6.022 -5.661,-9.2 a 73.716,73.716 0 0 1 -2.646,-4.972 43.7,43.7 0 0 1 -3.593,-9.506 0.626,0.626 0 0 0 -0.546,-0.644 0.818,0.818 0 0 0 -0.451,0 c -0.034,0.012 -0.084,0.051 -0.12,0.065 -0.053,0.021 -0.12,0.069 -0.176,0.1 0.027,-0.036 0.083,-0.117 0.1,-0.136 -60.37,35.356 -80.85,100.761 -82.732,133.484 a 120.249,120.249 0 0 0 -66.142,25.488 71.355,71.355 0 0 0 -6.225,-4.7 111.338,111.338 0 0 1 -0.674,-58.732 c -24.688,11.241 -43.89,29.01 -57.85,44.7 h -0.111 c -9.527,-12.067 -8.855,-51.873 -8.312,-60.184 -0.114,-0.515 -7.107,3.63 -8.023,4.255 a 175.073,175.073 0 0 0 -23.486,20.12 210.478,210.478 0 0 0 -22.442,26.913 c 0,0.012 -0.007,0.026 -0.011,0.038 0,-0.013 0.007,-0.026 0.011,-0.038 a 202.838,202.838 0 0 0 -32.247,72.805 c -0.115,0.521 -0.212,1.061 -0.324,1.586 -0.452,2.116 -2.08,12.7 -2.365,15 -0.022,0.177 -0.032,0.347 -0.053,0.524 a 229.066,229.066 0 0 0 -3.9,33.157 c 0,0.41 -0.025,0.816 -0.025,1.227 C 16,388.418 123.6,496 256.324,496 c 118.865,0 217.56,-86.288 236.882,-199.63 0.407,-3.076 0.733,-6.168 1.092,-9.271 4.777,-41.21 -0.53,-84.525 -15.587,-120.746 z M 201.716,354.447 c 1.124,0.537 2.18,1.124 3.334,1.639 0.048,0.033 0.114,0.07 0.163,0.1 a 126.191,126.191 0 0 1 -3.497,-1.739 z m 55.053,-144.93 z m 198.131,-30.59 -0.032,-0.233 c 0.012,0.085 0.027,0.174 0.04,0.259 z"
       fill="url(#a)"
       id="path39"
       style="fill:url(#a)" /><path
       d="m 478.711,166.353 c -10.445,-25.124 -31.6,-52.248 -48.212,-60.821 13.52,26.505 21.345,53.093 24.335,72.936 0,-0.058 0.011,0.048 0.036,0.226 0.012,0.085 0.027,0.174 0.04,0.259 22.675,61.47 10.322,123.978 -7.479,162.175 -27.539,59.1 -94.215,119.67 -198.576,116.716 C 136.1,454.651 36.766,370.988 18.223,261.41 c -3.379,-17.28 0,-26.054 1.7,-40.084 -2.071,10.816 -2.86,13.94 -3.9,33.157 0,0.41 -0.025,0.816 -0.025,1.227 C 16,388.418 123.6,496 256.324,496 c 118.865,0 217.56,-86.288 236.882,-199.63 0.407,-3.076 0.733,-6.168 1.092,-9.271 4.777,-41.21 -0.53,-84.525 -15.587,-120.746 z"
       fill="url(#b)"
       id="path40"
       style="fill:url(#b)" /><path
       d="m 478.711,166.353 c -10.445,-25.124 -31.6,-52.248 -48.212,-60.821 13.52,26.505 21.345,53.093 24.335,72.936 0,-0.058 0.011,0.048 0.036,0.226 0.012,0.085 0.027,0.174 0.04,0.259 22.675,61.47 10.322,123.978 -7.479,162.175 -27.539,59.1 -94.215,119.67 -198.576,116.716 C 136.1,454.651 36.766,370.988 18.223,261.41 c -3.379,-17.28 0,-26.054 1.7,-40.084 -2.071,10.816 -2.86,13.94 -3.9,33.157 0,0.41 -0.025,0.816 -0.025,1.227 C 16,388.418 123.6,496 256.324,496 c 118.865,0 217.56,-86.288 236.882,-199.63 0.407,-3.076 0.733,-6.168 1.092,-9.271 4.777,-41.21 -0.53,-84.525 -15.587,-120.746 z"
       fill="url(#c)"
       id="path41"
       style="fill:url(#c)" /><path
       d="m 361.922,194.6 c 0.524,0.368 1,0.734 1.493,1.1 a 130.706,130.706 0 0 0 -22.31,-29.112 C 266.4,91.892 321.516,4.626 330.811,0.194 c 0.027,-0.036 0.083,-0.117 0.1,-0.136 -60.37,35.356 -80.85,100.761 -82.732,133.484 2.8,-0.194 5.592,-0.429 8.442,-0.429 45.051,0 84.289,24.77 105.301,61.487 z"
       fill="url(#d)"
       id="path42"
       style="fill:url(#d)" /><path
       d="m 256.772,209.514 c -0.393,5.978 -21.514,26.593 -28.9,26.593 -68.339,0 -79.432,41.335 -79.432,41.335 3.027,34.81 27.261,63.475 56.611,78.643 1.339,0.692 2.694,1.317 4.05,1.935 a 132.768,132.768 0 0 0 7.059,2.886 106.743,106.743 0 0 0 31.271,6.031 c 119.78,5.618 142.986,-143.194 56.545,-186.408 22.137,-3.85 45.115,5.053 57.947,14.067 -21.012,-36.714 -60.25,-61.484 -105.3,-61.484 -2.85,0 -5.641,0.235 -8.442,0.429 a 120.249,120.249 0 0 0 -66.142,25.488 c 3.664,3.1 7.8,7.244 16.514,15.828 16.302,16.067 58.13,32.705 58.219,34.657 z"
       fill="url(#e)"
       id="path43"
       style="fill:url(#e)" /><path
       d="m 256.772,209.514 c -0.393,5.978 -21.514,26.593 -28.9,26.593 -68.339,0 -79.432,41.335 -79.432,41.335 3.027,34.81 27.261,63.475 56.611,78.643 1.339,0.692 2.694,1.317 4.05,1.935 a 132.768,132.768 0 0 0 7.059,2.886 106.743,106.743 0 0 0 31.271,6.031 c 119.78,5.618 142.986,-143.194 56.545,-186.408 22.137,-3.85 45.115,5.053 57.947,14.067 -21.012,-36.714 -60.25,-61.484 -105.3,-61.484 -2.85,0 -5.641,0.235 -8.442,0.429 a 120.249,120.249 0 0 0 -66.142,25.488 c 3.664,3.1 7.8,7.244 16.514,15.828 16.302,16.067 58.13,32.705 58.219,34.657 z"
       fill="url(#f)"
       id="path44"
       style="fill:url(#f)" /><path
       d="m 170.829,151.036 a 244.042,244.042 0 0 1 4.981,3.3 111.338,111.338 0 0 1 -0.674,-58.732 c -24.688,11.241 -43.89,29.01 -57.85,44.7 1.155,-0.033 36.014,-0.66 53.543,10.732 z"
       fill="url(#g)"
       id="path45"
       style="fill:url(#g)" /><path
       d="m 18.223,261.41 c 18.543,109.578 117.877,193.241 230.632,196.434 104.361,2.954 171.037,-57.62 198.576,-116.716 17.8,-38.2 30.154,-100.7 7.479,-162.175 l -0.008,-0.026 -0.032,-0.233 c -0.025,-0.178 -0.04,-0.284 -0.036,-0.226 0,0.039 0.015,0.136 0.047,0.4 8.524,55.661 -19.79,109.584 -64.051,146.044 l -0.133,0.313 c -86.245,70.223 -168.774,42.368 -185.484,30.966 a 144.108,144.108 0 0 1 -3.5,-1.743 c -50.282,-24.029 -71.054,-69.838 -66.6,-109.124 -42.457,0 -56.934,-35.809 -56.934,-35.809 0,0 38.119,-27.179 88.358,-3.541 46.53,21.893 90.228,3.543 90.233,3.541 -0.089,-1.952 -41.917,-18.59 -58.223,-34.656 -8.713,-8.584 -12.85,-12.723 -16.514,-15.828 a 71.355,71.355 0 0 0 -6.225,-4.7 282.929,282.929 0 0 0 -4.981,-3.3 c -17.528,-11.392 -52.388,-10.765 -53.543,-10.735 h -0.111 c -9.527,-12.067 -8.855,-51.873 -8.312,-60.184 -0.114,-0.515 -7.107,3.63 -8.023,4.255 a 175.073,175.073 0 0 0 -23.486,20.12 210.478,210.478 0 0 0 -22.442,26.919 c 0,0.012 -0.007,0.026 -0.011,0.038 0,-0.013 0.007,-0.026 0.011,-0.038 a 202.838,202.838 0 0 0 -32.247,72.805 c -0.115,0.521 -8.65,37.842 -4.44,57.199 z"
       fill="url(#h)"
       id="path46"
       style="fill:url(#h)" /><path
       d="m 341.105,166.587 a 130.706,130.706 0 0 1 22.31,29.112 c 1.323,0.994 2.559,1.985 3.608,2.952 54.482,50.2 25.936,121.2 23.807,126.26 44.261,-36.46 72.575,-90.383 64.051,-146.044 C 427.706,111.135 381.627,83.823 344,24.355 c -1.9,-3.007 -3.805,-6.022 -5.661,-9.2 a 73.716,73.716 0 0 1 -2.646,-4.972 43.7,43.7 0 0 1 -3.593,-9.506 0.626,0.626 0 0 0 -0.546,-0.644 0.818,0.818 0 0 0 -0.451,0 c -0.034,0.012 -0.084,0.051 -0.12,0.065 -0.053,0.021 -0.12,0.069 -0.176,0.1 -9.291,4.428 -64.407,91.694 10.298,166.389 z"
       fill="url(#i)"
       id="path47"
       style="fill:url(#i)" /><path
       d="m 367.023,198.651 c -1.049,-0.967 -2.285,-1.958 -3.608,-2.952 -0.489,-0.368 -0.969,-0.734 -1.493,-1.1 -12.832,-9.014 -35.81,-17.917 -57.947,-14.067 86.441,43.214 63.235,192.026 -56.545,186.408 a 106.743,106.743 0 0 1 -31.271,-6.031 134.51,134.51 0 0 1 -7.059,-2.886 c -1.356,-0.618 -2.711,-1.243 -4.05,-1.935 0.048,0.033 0.114,0.07 0.163,0.1 16.71,11.4 99.239,39.257 185.484,-30.966 l 0.133,-0.313 c 2.129,-5.054 30.675,-76.057 -23.807,-126.258 z"
       fill="url(#j)"
       id="path48"
       style="fill:url(#j)" /><path
       d="m 148.439,277.443 c 0,0 11.093,-41.335 79.432,-41.335 7.388,0 28.509,-20.615 28.9,-26.593 0.391,-5.978 -43.7,18.352 -90.233,-3.541 -50.239,-23.638 -88.358,3.541 -88.358,3.541 0,0 14.477,35.809 56.934,35.809 -4.453,39.286 16.319,85.1 66.6,109.124 1.124,0.537 2.18,1.124 3.334,1.639 -29.348,-15.169 -53.582,-43.834 -56.609,-78.644 z"
       fill="url(#k)"
       id="path49"
       style="fill:url(#k)" /><path
       d="m 478.711,166.353 c -10.445,-25.124 -31.6,-52.248 -48.212,-60.821 13.52,26.505 21.345,53.093 24.335,72.936 0,0.039 0.015,0.136 0.047,0.4 C 427.706,111.135 381.627,83.823 344,24.355 c -1.9,-3.007 -3.805,-6.022 -5.661,-9.2 a 73.716,73.716 0 0 1 -2.646,-4.972 43.7,43.7 0 0 1 -3.593,-9.506 0.626,0.626 0 0 0 -0.546,-0.644 0.818,0.818 0 0 0 -0.451,0 c -0.034,0.012 -0.084,0.051 -0.12,0.065 -0.053,0.021 -0.12,0.069 -0.176,0.1 0.027,-0.036 0.083,-0.117 0.1,-0.136 -60.37,35.356 -80.85,100.761 -82.732,133.484 2.8,-0.194 5.592,-0.429 8.442,-0.429 45.053,0 84.291,24.77 105.3,61.484 -12.832,-9.014 -35.81,-17.917 -57.947,-14.067 86.441,43.214 63.235,192.026 -56.545,186.408 a 106.743,106.743 0 0 1 -31.271,-6.031 134.51,134.51 0 0 1 -7.059,-2.886 c -1.356,-0.618 -2.711,-1.243 -4.05,-1.935 0.048,0.033 0.114,0.07 0.163,0.1 a 144.108,144.108 0 0 1 -3.5,-1.743 c 1.124,0.537 2.18,1.124 3.334,1.639 -29.35,-15.168 -53.584,-43.833 -56.611,-78.643 0,0 11.093,-41.335 79.432,-41.335 7.388,0 28.509,-20.615 28.9,-26.593 -0.089,-1.952 -41.917,-18.59 -58.223,-34.656 -8.713,-8.584 -12.85,-12.723 -16.514,-15.828 a 71.355,71.355 0 0 0 -6.225,-4.7 111.338,111.338 0 0 1 -0.674,-58.732 c -24.688,11.241 -43.89,29.01 -57.85,44.7 h -0.111 c -9.527,-12.067 -8.855,-51.873 -8.312,-60.184 -0.114,-0.515 -7.107,3.63 -8.023,4.255 A 175.073,175.073 0 0 0 77.345,104.49 210.478,210.478 0 0 0 54.91,131.406 c 0,0.012 -0.007,0.026 -0.011,0.038 0,-0.013 0.007,-0.026 0.011,-0.038 a 202.838,202.838 0 0 0 -32.247,72.805 c -0.115,0.521 -0.212,1.061 -0.324,1.586 -0.452,2.116 -2.486,12.853 -2.77,15.156 -0.022,0.177 0.021,-0.176 0,0 a 279.565,279.565 0 0 0 -3.544,33.53 c 0,0.41 -0.025,0.816 -0.025,1.227 C 16,388.418 123.6,496 256.324,496 c 118.865,0 217.56,-86.288 236.882,-199.63 0.407,-3.076 0.733,-6.168 1.092,-9.271 4.777,-41.21 -0.53,-84.525 -15.587,-120.746 z m -23.841,12.341 c 0.012,0.085 0.027,0.174 0.04,0.259 l -0.008,-0.026 z"
       fill="url(#l)"
       id="path50"
       style="fill:url(#l)" /></g></svg>
