<?xml version="1.0" encoding="UTF-8" standalone="no"?>
<svg
   viewBox="0 0 1024 1024"
   version="1.1"
   id="svg16"
   sodipodi:docname="google_chrome.svg"
   inkscape:version="1.4.4 (dcaf3e7d9e, 2026-05-05)"
   inkscape:export-filename="../app_icons/google_chrome.png"
   inkscape:export-xdpi="48"
   inkscape:export-ydpi="48"
   width="1024"
   height="1024"
   xml:space="preserve"
   xmlns:inkscape="http://www.inkscape.org/namespaces/inkscape"
   xmlns:sodipodi="http://sodipodi.sourceforge.net/DTD/sodipodi-0.dtd"
   xmlns:xlink="http://www.w3.org/1999/xlink"
   xmlns="http://www.w3.org/2000/svg"
   xmlns:svg="http://www.w3.org/2000/svg"
   xmlns:rdf="http://www.w3.org/1999/02/22-rdf-syntax-ns#"
   xmlns:cc="http://creativecommons.org/ns#"
   xmlns:dc="http://purl.org/dc/elements/1.1/"
   xmlns:bx="https://boxy-svg.com"><sodipodi:namedview
     id="namedview16"
     pagecolor="#ffffff"
     bordercolor="#000000"
     borderopacity="0.25"
     inkscape:showpageshadow="2"
     inkscape:pageopacity="0.0"
     inkscape:pagecheckerboard="0"
     inkscape:deskcolor="#d1d1d1"
     inkscape:zoom="0.26654611"
     inkscape:cx="-247.61194"
     inkscape:cy="498.97558"
     inkscape:window-width="1920"
     inkscape:window-height="978"
     inkscape:window-x="0"
     inkscape:window-y="0"
     inkscape:window-maximized="1"
     inkscape:current-layer="svg16"
     showguides="true"><sodipodi:guide
       position="137,512"
       orientation="1,0"
       id="guide1"
       inkscape:locked="false" /><sodipodi:guide
       position="887,512"
       orientation="1,0"
       id="guide2"
       inkscape:locked="false" /></sodipodi:namedview><defs
     id="defs12"><linearGradient
       id="linearGradient63"
       inkscape:collect="always"><stop
         style="stop-color:#ffffff;stop-opacity:1;"
         offset="0"
         id="stop63" /><stop
         style="stop-color:#e2e2e2;stop-opacity:1;"
         offset="1"
         id="stop64" /></linearGradient><filter
       id="shadow"
       bx:pinned="true"
       x="0"
       y="0"
       width="1"
       height="1"><title
         id="title1">Drop Shadow</title><feDropShadow
         result="drop-shadow-0"
         in="SourceGraphic"
         style="flood-opacity: 0.3;"
         stdDeviation="10"
         dx="0"
         dy="10" /></filter><bx:guide
       x="-10"
       y="100"
       angle="90" /><bx:guide
       x="100"
       y="-10"
       angle="0" /><bx:guide
       x="924"
       y="-10"
       angle="0" /><bx:guide
       x="-10"
       y="924"
       angle="90" /><clipPath
       id="clip-0"><path
         style="fill:#ffffff;stroke-width:3px"
         d="M 100,724 V 300 C 100,185.001 170,99.995 300.026,100 L 724,99.995 C 854,100 924,185.001 924,300 v 424 c 0,115.001 -70,199.995 -200,200 H 300.026 C 170,924 100,839.001 100,724 Z"
         id="path2"><title
           id="title2">Icon Mask</title></path></clipPath><symbol
       id="symbol-0"
       viewBox="0 0 1024 1024"
       bx:pinned="true"><title
         id="title3">App Icon Guides</title><g
         id="g12"><title
           id="title4">App Icon Guides</title><path
           style="fill:none;stroke:#919191;stroke-width:3px"
           d="m 0,739.001 v -454 C 0,135.001 112,0 284.999,0 H 739.001 C 912,0 1024,135.001 1024,285.001 v 454 C 1024,889.001 912,1024 739.001,1024 H 284.999 C 112,1024 0,889.001 0,739.001 Z"
           id="path5"><title
             id="title5">Outer Bounding Box</title></path><path
           style="fill:none;stroke:#919191;stroke-width:3px"
           d="m 50,739.001 v -454 C 50,162 140,50 284.999,50 H 739.001 C 884.001,50 974,162 974,285.001 v 454 C 974,862 884.001,974 739.001,974 H 284.999 C 140,974 50,862 50,739.001 Z"
           id="path6"><title
             id="title6">Inner Bounding Box</title></path><path
           style="fill:none;stroke:#ff0000;stroke-width:3px"
           d="m 100,724.005 v -424 C 100,185.006 170,100 300.026,100.005 L 724,100 c 130,0.005 200,85.006 200,200.005 v 424 c 0,115.001 -70,199.995 -200,200 H 300.026 C 170,924.005 100,839.006 100,724.005 Z"
           id="path7"><title
             id="title7">Icon Grid Bounding Box</title></path><path
           style="fill:none;stroke:#ff0000"
           d="M 154.017,870.001 H 870.001 V 154.014 H 154.017 Z m 0,0 715.984,-715.987 z M 100,511.995 h 824 z m 0,157.365 H 924 Z M 924,354.631 H 100 Z M 669.365,99.995 v 824 z m -314.73,824 v -824 z M 512,99.995 v 824 z m -357.983,54.019 715.984,715.987 z"
           id="path8"><title
             id="title8">Icon Grid</title></path><circle
           style="fill:none"
           cx="512"
           cy="511.995"
           r="157.397"
           id="circle9"><title
             id="title9">Grid Circle 1</title></circle><circle
           style="fill:none"
           cx="512"
           cy="511.995"
           r="222.577"
           id="circle10"><title
             id="title10">Grid Circle 2</title></circle><circle
           style="fill:none"
           cx="512"
           cy="511.995"
           r="358.00101"
           id="circle11"><title
             id="title11">Grid Circle 3</title></circle><path
           d="m 1084.343,548.001 h -941 c -28.719,0 -52,-23.281 -52,-52 0,-28.719 23.281,-52 52,-52 h 941 c 28.719,0 52,23.281 52,52 0,28.719 -23.281,52 -52,52 z m 51.957,-51.962 -1045,-0.078"
           style="stroke:#0077ff;stroke-width:5px;stroke-dasharray:24, 10"
           transform="rotate(-64.504252,613.82146,496.00118)"
           id="path12"><title
             id="title12">Tool Angle</title></path></g></symbol><linearGradient
       inkscape:collect="always"
       xlink:href="#linearGradient63"
       id="linearGradient64"
       x1="576.76422"
       y1="51.5"
       x2="576.76422"
       y2="972.5"
       gradientUnits="userSpaceOnUse"
       gradientTransform="matrix(1.0029383,0,0,1.0029383,-1.5044074,-1.5044074)" /><filter
       style="color-interpolation-filters:sRGB"
       inkscape:label="Drop Shadow"
       id="filter69"
       x="0"
       y="0"
       width="1.0057613"
       height="1.0098504"><feFlood
         result="flood"
         in="SourceGraphic"
         flood-opacity="0.498039"
         flood-color="rgb(0,0,0)"
         id="feFlood68" /><feGaussianBlur
         result="blur"
         in="SourceGraphic"
         stdDeviation="0.000000"
         id="feGaussianBlur68" /><feOffset
         result="offset"
         in="blur"
         dx="3.000000"
         dy="6.000000"
         id="feOffset68" /><feComposite
         result="comp1"
         operator="in"
         in="flood"
         in2="offset"
         id="feComposite68" /><feComposite
         result="comp2"
         operator="over"
         in="SourceGraphic"
         in2="comp1"
         id="feComposite69" /></filter><radialGradient
       cy="19.524991"
       cx="106.73546"
       id="r"
       gradientTransform="scale(1.2320179,0.81167652)"
       fx="106.73546"
       fy="19.524991"
       r="78.326784"
       gradientUnits="userSpaceOnUse"><stop
         offset="0"
         stop-color="#f06b59"
         id="stop1" /><stop
         offset="1"
         stop-color="#df2227"
         id="stop2" /></radialGradient><radialGradient
       r="122.76932"
       cy="108.80645"
       cx="122.26707"
       id="g"
       gradientTransform="scale(0.92838267,1.077142)"
       fx="122.26707"
       fy="108.80645"
       gradientUnits="userSpaceOnUse"><stop
         offset="0.65"
         stop-color="#4cb749"
         id="stop3" /><stop
         offset="1"
         stop-color="#388b41"
         id="stop4" /></radialGradient><radialGradient
       r="111.5125"
       cy="102.2451"
       cx="187.90098"
       id="y"
       gradientTransform="scale(0.86406979,1.1573139)"
       fx="187.90098"
       fy="102.2451"
       gradientUnits="userSpaceOnUse"><stop
         offset="0.6"
         stop-color="#FCD209"
         id="stop5" /><stop
         offset="0.7"
         stop-color="#f7c616"
         id="stop6" /><stop
         offset="1"
         stop-color="#bc821e"
         id="stop7" /></radialGradient><radialGradient
       r="99"
       cy="78.099998"
       cx="127.5"
       spreadMethod="pad"
       id="cf"
       fx="127.5"
       fy="78.099998"
       gradientUnits="userSpaceOnUse"><stop
         offset="0.1"
         stop-color="#7FB3DF"
         id="stop8" /><stop
         offset="0.9"
         stop-color="#0F5B94"
         id="stop9" /></radialGradient><radialGradient
       id="cb"
       r="99"
       cy="78.099998"
       cx="127.5"
       fx="127.5"
       fy="78.099998"
       gradientUnits="userSpaceOnUse"><stop
         offset="0"
         stop-color="#F6F0EE"
         id="stop10" /><stop
         offset="1"
         stop-color="#ddd"
         id="stop11" /></radialGradient><linearGradient
       id="a"
       x1="3.2173"
       y1="15"
       x2="44.7812"
       y2="15"
       gradientUnits="userSpaceOnUse"><stop
         offset="0"
         stop-color="#d93025"
         id="stop1-7" /><stop
         offset="1"
         stop-color="#ea4335"
         id="stop2-5" /></linearGradient><linearGradient
       id="b"
       x1="20.7219"
       y1="47.6791"
       x2="41.5039"
       y2="11.6837"
       gradientUnits="userSpaceOnUse"><stop
         offset="0"
         stop-color="#fcc934"
         id="stop3-3" /><stop
         offset="1"
         stop-color="#fbbc04"
         id="stop4-5" /></linearGradient><linearGradient
       id="c"
       x1="26.5981"
       y1="46.5015"
       x2="5.8161"
       y2="10.506"
       gradientUnits="userSpaceOnUse"><stop
         offset="0"
         stop-color="#1e8e3e"
         id="stop5-6" /><stop
         offset="1"
         stop-color="#34a853"
         id="stop6-2" /></linearGradient></defs><path
     id="path63"
     style="baseline-shift:baseline;display:inline;overflow:visible;vector-effect:none;fill:url(#linearGradient64);fill-opacity:1;stroke-width:1.00294;paint-order:markers fill stroke;enable-background:accumulate;stop-color:#000000"
     d="M 284.33105,0 C 111.60637,0 0,134.64308 0,284.33496 V 739.66895 C 0,889.36084 111.60636,1024 284.33105,1024 h 455.3379 C 912.39364,1024 1024,889.36084 1024,739.66895 V 284.33496 C 1024,134.64308 912.39363,0 739.66895,0 Z m 545.53183,65.882468 c 17.8755,6.750901 34.25776,15.510275 49.04799,25.952987 C 864.12063,81.392726 847.73839,72.63338 829.86288,65.882468 Z M 111.75514,903.0284 c 5.7006,6.1289 11.77245,11.94491 18.20568,17.41039 -6.43365,-5.46582 -12.50476,-11.28108 -18.20568,-17.41039 z" /><title
     id="title1-3">Telegram</title><metadata
     id="metadata1"><rdf:RDF><cc:Work
         rdf:about=""><dc:title>Telegram</dc:title></cc:Work></rdf:RDF></metadata><g
     id="g1"
     transform="matrix(3.3570138,0,0,3.3561443,83.185801,83.8119)"
     style="display:none"><path
       d="m 198,148 a 70,70 0 0 0 -140,0 h 20 a 50,50 0 0 1 100,0"
       fill-opacity="0.1"
       id="path11" /><circle
       r="45"
       cx="127.5"
       cy="127.6"
       fill="url(#cf)"
       stroke="url(#cb)"
       stroke-width="9"
       id="circle11-3"
       style="fill:url(#cf);stroke:url(#cb)" /><path
       d="M 228,78 A 112,112 0 0 0 35,65 l 45,78 a 50,50 0 0 1 47,-65"
       fill="url(#r)"
       id="path12-6"
       style="fill:url(#r)" /><path
       d="m 35,65 a 112,112 0 0 0 84,174 l 47,-80 A 50,50 0 0 1 80,143"
       fill="url(#g)"
       id="path13"
       style="fill:url(#g)" /><path
       d="M 119,239 A 112,112 0 0 0 228,78 H 127 a 50,50 0 0 1 39,81"
       fill="url(#y)"
       id="path14"
       style="fill:url(#y)" /><path
       d="m 35,65 45,78 a 50,50 0 0 1 2,-34 L 37,62"
       opacity="0.075"
       id="path15" /><path
       d="m 119,239 47,-80 a 50,50 0 0 1 -29,17 l -20,63"
       opacity="0.05"
       id="path16" /><path
       d="M 228,78 H 127 a 50,50 0 0 1 39,19 l 64,-16"
       opacity="0.05"
       id="path17" /></g><g
     id="g2"
     transform="matrix(15.625,0,0,15.624984,136.99982,137.0007)"
     style="display:inline"><circle
       cx="24"
       cy="23.994699"
       r="12"
       style="fill:#ffffff"
       id="circle6" /><path
       d="M 3.2154,36 A 24,24 0 1 0 12,3.2154 24,24 0 0 0 3.2154,36 Z M 34.3923,18 A 12,12 0 1 1 18,13.6077 12,12 0 0 1 34.3923,18 Z"
       style="fill:none"
       id="path6-9" /><path
       d="M 24,12 H 44.7812 A 23.9939,23.9939 0 0 0 3.2173,12.0029 L 13.6079,30 13.6172,29.9976 A 11.9852,11.9852 0 0 1 24,12 Z"
       style="fill:url(#a)"
       id="path7-1" /><circle
       cx="24"
       cy="24"
       r="9.5"
       style="fill:#1a73e8"
       id="circle7" /><path
       d="M 34.3913,30.0029 24.0007,48 A 23.994,23.994 0 0 0 44.78,12.0031 H 23.9989 l -0.0025,0.0093 a 11.985,11.985 0 0 1 10.3949,17.9905 z"
       style="fill:url(#b)"
       id="path8-2" /><path
       d="M 13.6086,30.0031 3.218,12.006 A 23.994,23.994 0 0 0 24.0025,48 L 34.3931,30.0029 34.3864,29.9961 a 11.9852,11.9852 0 0 1 -20.7778,0.007 z"
       style="fill:url(#c)"
       id="path9" /></g></svg>
