<?xml version="1.0" encoding="UTF-8" standalone="no"?>
<svg
   viewBox="0 0 1024 1024"
   version="1.1"
   id="svg16"
   sodipodi:docname="instagram.svg"
   inkscape:version="1.4.4 (dcaf3e7d9e, 2026-05-05)"
   inkscape:export-filename="../app-icons/instagram.png"
   inkscape:export-xdpi="48"
   inkscape:export-ydpi="48"
   width="1024"
   height="1024"
   xml:space="preserve"
   xmlns:inkscape="http://www.inkscape.org/namespaces/inkscape"
   xmlns:sodipodi="http://sodipodi.sourceforge.net/DTD/sodipodi-0.dtd"
   xmlns:xlink="http://www.w3.org/1999/xlink"
   xmlns="http://www.w3.org/2000/svg"
   xmlns:svg="http://www.w3.org/2000/svg"
   xmlns:rdf="http://www.w3.org/1999/02/22-rdf-syntax-ns#"
   xmlns:cc="http://creativecommons.org/ns#"
   xmlns:dc="http://purl.org/dc/elements/1.1/"
   xmlns:bx="https://boxy-svg.com"><sodipodi:namedview
     id="namedview16"
     pagecolor="#ffffff"
     bordercolor="#000000"
     borderopacity="0.25"
     inkscape:showpageshadow="2"
     inkscape:pageopacity="0.0"
     inkscape:pagecheckerboard="0"
     inkscape:deskcolor="#d1d1d1"
     inkscape:zoom="0.25"
     inkscape:cx="-318"
     inkscape:cy="136"
     inkscape:window-width="1920"
     inkscape:window-height="978"
     inkscape:window-x="0"
     inkscape:window-y="0"
     inkscape:window-maximized="1"
     inkscape:current-layer="svg16"
     showguides="true"><sodipodi:guide
       position="594,887.00002"
       orientation="0,-1"
       id="guide4"
       inkscape:locked="false" /><sodipodi:guide
       position="511.34315,137.00002"
       orientation="0,-1"
       id="guide5"
       inkscape:locked="false" /><sodipodi:guide
       position="137,542.0938"
       orientation="1,0"
       id="guide6"
       inkscape:locked="false" /><sodipodi:guide
       position="887,480.94199"
       orientation="1,0"
       id="guide7"
       inkscape:locked="false" /><sodipodi:guide
       position="512,0"
       orientation="1,0"
       id="guide1"
       inkscape:locked="false" /></sodipodi:namedview><defs
     id="defs12"><filter
       id="shadow"
       bx:pinned="true"
       x="0"
       y="0"
       width="1"
       height="1"><title
         id="title1">Drop Shadow</title><feDropShadow
         result="drop-shadow-0"
         in="SourceGraphic"
         style="flood-opacity: 0.3;"
         stdDeviation="10"
         dx="0"
         dy="10" /></filter><bx:guide
       x="-10"
       y="100"
       angle="90" /><bx:guide
       x="100"
       y="-10"
       angle="0" /><bx:guide
       x="924"
       y="-10"
       angle="0" /><bx:guide
       x="-10"
       y="924"
       angle="90" /><clipPath
       id="clip-0"><path
         style="fill:#ffffff;stroke-width:3px"
         d="M 100,724 V 300 C 100,185.001 170,99.995 300.026,100 L 724,99.995 C 854,100 924,185.001 924,300 v 424 c 0,115.001 -70,199.995 -200,200 H 300.026 C 170,924 100,839.001 100,724 Z"
         id="path2"><title
           id="title2">Icon Mask</title></path></clipPath><symbol
       id="symbol-0"
       viewBox="0 0 1024 1024"
       bx:pinned="true"><title
         id="title3">App Icon Guides</title><g
         id="g12"><title
           id="title4">App Icon Guides</title><path
           style="fill:none;stroke:#919191;stroke-width:3px"
           d="m 0,739.001 v -454 C 0,135.001 112,0 284.999,0 H 739.001 C 912,0 1024,135.001 1024,285.001 v 454 C 1024,889.001 912,1024 739.001,1024 H 284.999 C 112,1024 0,889.001 0,739.001 Z"
           id="path5"><title
             id="title5">Outer Bounding Box</title></path><path
           style="fill:none;stroke:#919191;stroke-width:3px"
           d="m 50,739.001 v -454 C 50,162 140,50 284.999,50 H 739.001 C 884.001,50 974,162 974,285.001 v 454 C 974,862 884.001,974 739.001,974 H 284.999 C 140,974 50,862 50,739.001 Z"
           id="path6"><title
             id="title6">Inner Bounding Box</title></path><path
           style="fill:none;stroke:#ff0000;stroke-width:3px"
           d="m 100,724.005 v -424 C 100,185.006 170,100 300.026,100.005 L 724,100 c 130,0.005 200,85.006 200,200.005 v 424 c 0,115.001 -70,199.995 -200,200 H 300.026 C 170,924.005 100,839.006 100,724.005 Z"
           id="path7"><title
             id="title7">Icon Grid Bounding Box</title></path><path
           style="fill:none;stroke:#ff0000"
           d="M 154.017,870.001 H 870.001 V 154.014 H 154.017 Z m 0,0 715.984,-715.987 z M 100,511.995 h 824 z m 0,157.365 H 924 Z M 924,354.631 H 100 Z M 669.365,99.995 v 824 z m -314.73,824 v -824 z M 512,99.995 v 824 z m -357.983,54.019 715.984,715.987 z"
           id="path8"><title
             id="title8">Icon Grid</title></path><circle
           style="fill:none"
           cx="512"
           cy="511.995"
           r="157.397"
           id="circle9"><title
             id="title9">Grid Circle 1</title></circle><circle
           style="fill:none"
           cx="512"
           cy="511.995"
           r="222.577"
           id="circle10"><title
             id="title10">Grid Circle 2</title></circle><circle
           style="fill:none"
           cx="512"
           cy="511.995"
           r="358.00101"
           id="circle11"><title
             id="title11">Grid Circle 3</title></circle><path
           d="m 1084.343,548.001 h -941 c -28.719,0 -52,-23.281 -52,-52 0,-28.719 23.281,-52 52,-52 h 941 c 28.719,0 52,23.281 52,52 0,28.719 -23.281,52 -52,52 z m 51.957,-51.962 -1045,-0.078"
           style="stroke:#0077ff;stroke-width:5px;stroke-dasharray:24, 10"
           transform="rotate(-64.504252,613.82146,496.00118)"
           id="path12"><title
             id="title12">Tool Angle</title></path></g></symbol><filter
       style="color-interpolation-filters:sRGB"
       inkscape:label="Drop Shadow"
       id="filter69"
       x="0"
       y="0"
       width="1.0057613"
       height="1.0098504"><feFlood
         result="flood"
         in="SourceGraphic"
         flood-opacity="0.498039"
         flood-color="rgb(0,0,0)"
         id="feFlood68" /><feGaussianBlur
         result="blur"
         in="SourceGraphic"
         stdDeviation="0.000000"
         id="feGaussianBlur68" /><feOffset
         result="offset"
         in="blur"
         dx="3.000000"
         dy="6.000000"
         id="feOffset68" /><feComposite
         result="comp1"
         operator="in"
         in="flood"
         in2="offset"
         id="feComposite68" /><feComposite
         result="comp2"
         operator="over"
         in="SourceGraphic"
         in2="comp1"
         id="feComposite69" /></filter><radialGradient
       id="d"
       cx="147.694"
       cy="473.45499"
       r="65"
       xlink:href="#b"
       gradientUnits="userSpaceOnUse"
       gradientTransform="matrix(1.3698544,6.8415542,-28.208258,5.6481097,12981.496,-3610.6956)"
       fx="147.694"
       fy="473.45499" /><linearGradient
       id="b"><stop
         offset="0"
         stop-color="#3771c8"
         id="stop1" /><stop
         stop-color="#3771c8"
         offset=".128"
         id="stop2" /><stop
         offset="1"
         stop-color="#60f"
         stop-opacity="0"
         id="stop3" /></linearGradient><radialGradient
       id="c"
       cx="158.429"
       cy="578.08801"
       r="65"
       xlink:href="#a"
       gradientUnits="userSpaceOnUse"
       gradientTransform="matrix(0,-15.608969,14.521528,0,-8122.7197,3575.6219)"
       fx="158.429"
       fy="578.08801" /><linearGradient
       id="a"><stop
         offset="0"
         stop-color="#fd5"
         id="stop4" /><stop
         offset=".1"
         stop-color="#fd5"
         id="stop5" /><stop
         offset=".5"
         stop-color="#ff543e"
         id="stop6" /><stop
         offset="1"
         stop-color="#c837ab"
         id="stop7" /></linearGradient></defs><title
     id="title1-7">Heroic Games Launcher</title><title
     id="title1-3">KDE</title><title
     id="title1-6">Steam</title><metadata
     id="metadata1"><rdf:RDF><cc:Work
         rdf:about=""><dc:title>Heroic Games Launcher</dc:title></cc:Work></rdf:RDF></metadata><title
     id="title1-75">Fedora</title><title
     id="title1-35">Debian</title><title
     id="title1-62">Facebook</title><title
     id="title1-9">Reddit</title><title
     id="title1-1">VLC media player</title><path
     d="M 758.96289,0.56835937 C 739.91761,0.33055812 714.31214,0.20035797 678.81055,0.13867187 H 512.16797 c -131.56059,0 -205.83212,0.0835481 -246.33008,0.3828125 C 109.64966,9.414847 7.7124301,130.62647 0.41992188,268.46484 c -0.21130309,18.69508 -0.32858536,43.41038 -0.38476563,76.96485 -0.0788,40.76329 0,94.41123 0,166.36914 0,128.81201 0.08609812,202.65299 0.37890625,243.63672 7.1885663,136.75993 107.5473675,257.17435 261.6269575,267.80275 44.56306,0.3756 146.7723,0.623 249.03125,0.623 101.64903,0 203.29792,-0.098 248.14453,-0.4453 155.49647,-9.3723 256.9647,-130.20212 264.3516,-267.62498 0.2997,-54.3639 0.4316,-149.28732 0.4316,-244.125 0,-94.74138 -0.1433,-189.43968 -0.4492,-243.75977 C 1016.025,130.53562 914.487,9.8173804 758.96289,0.56835937 Z"
     style="display:inline;fill:url(#c);stroke-width:7.87544"
     id="path20" /><path
     fill="#ffffff"
     d="m 512.03514,137 c -101.8448,0 -114.6262,0.44533 -154.62661,2.26564 -39.92229,1.82812 -67.17257,8.14843 -91.01656,17.42186 -24.66431,9.57812 -45.58641,22.39063 -66.43039,43.24218 -20.85958,20.84376 -33.67222,41.76564 -43.28169,66.42188 -9.29697,23.85155 -15.62516,51.10937 -17.42205,91.01562 C 137.46876,397.36717 137,410.15625 137,511.99995 c 0,101.84373 0.45312,114.586 2.26564,154.58604 1.83596,39.92173 8.15635,67.17181 17.42206,91.01547 9.58605,24.66417 22.39867,45.58605 43.25046,66.42978 20.83615,20.85928 41.75823,33.70312 66.40693,43.28129 23.85962,9.27337 51.11772,15.59375 91.03219,17.42172 40.00043,1.82043 52.774,2.26575 154.61098,2.26575 101.85263,0 114.59495,-0.44532 154.59536,-2.26575 39.9223,-1.82797 67.20383,-8.14835 91.06344,-17.42172 24.65652,-9.57817 45.54735,-22.42201 66.3835,-43.28129 20.85956,-20.84373 33.67227,-41.76561 43.28175,-66.42192 9.21882,-23.85152 15.54701,-51.1093 17.42202,-91.01563 C 886.53117,626.59365 887,613.84368 887,511.99995 c 0,-101.8437 -0.46883,-114.62496 -2.26567,-154.62496 -1.87501,-39.92187 -8.2032,-67.17188 -17.42202,-91.01561 -9.60948,-24.66406 -22.42219,-45.58594 -43.28175,-66.4297 -20.85956,-20.85937 -41.71918,-33.67187 -66.40693,-43.24218 -23.9065,-9.27343 -51.1724,-15.59374 -91.0947,-17.42186 C 626.52852,137.44533 613.79402,137 511.91796,137 Z m -33.64096,67.57812 c 9.98447,-0.0164 21.12521,0 33.64096,0 100.12604,0 111.99334,0.35939 151.53282,2.15625 36.56289,1.67188 56.40685,7.78125 69.62574,12.91407 17.50018,6.79687 29.97687,14.92188 43.09418,28.04687 13.12514,13.125 21.25024,25.625 28.06283,43.12499 5.1328,13.20314 11.25008,33.04689 12.91419,69.60939 1.79684,39.53123 2.1875,51.40624 2.1875,151.48441 0,100.07801 -0.39066,111.95307 -2.1875,151.48435 -1.67195,36.56249 -7.78139,56.40614 -12.91419,69.60929 -6.79701,17.50004 -14.93769,29.96099 -28.06283,43.07813 -13.12513,13.12499 -25.58621,21.25005 -43.09418,28.04685 -13.20328,5.15624 -33.06285,11.24999 -69.62574,12.92198 -39.53166,1.79685 -51.40678,2.18745 -151.53282,2.18745 -100.13385,0 -112.00117,-0.3906 -151.53282,-2.18745 -36.56288,-1.68756 -56.40683,-7.79687 -69.63354,-12.92969 -17.50018,-6.79695 -30.0003,-14.92185 -43.12546,-28.04684 -13.12513,-13.125 -21.25019,-25.59381 -28.06277,-43.10156 -5.13288,-13.20315 -11.25012,-33.04695 -12.9142,-69.60944 -1.79688,-39.5313 -2.15628,-51.40619 -2.15628,-151.54679 0,-100.14071 0.3594,-111.9532 2.15628,-151.48445 1.6719,-36.56249 7.78132,-56.40624 12.9142,-69.62498 6.79694,-17.50001 14.93764,-30.00002 28.06277,-43.12501 13.12516,-13.125 25.62528,-21.25001 43.12546,-28.06249 13.21889,-5.15627 33.07066,-11.25001 69.63354,-12.92971 34.59411,-1.56248 48.0005,-2.03123 117.89186,-2.10936 z m 233.81491,62.26563 c -24.844,0 -45.00046,20.13281 -45.00046,44.98436 0,24.84377 20.15646,45.00001 45.00046,45.00001 24.844,0 45.00048,-20.15624 45.00048,-45.00001 0,-24.84375 -20.15648,-44.99999 -45.00048,-44.99999 z m -200.17395,52.57811 c -106.35267,0 -192.58013,86.22658 -192.58013,192.57809 0,106.35166 86.22746,192.53905 192.58013,192.53905 106.35268,0 192.54888,-86.18739 192.54888,-192.53905 0,-106.35151 -86.20402,-192.57809 -192.5567,-192.57809 z m 0,67.57814 c 69.03197,0 125.0013,55.96092 125.0013,124.99995 0,69.03124 -55.96933,125.00007 -125.0013,125.00007 -69.03978,0 -125.00129,-55.96883 -125.00129,-125.00007 C 387.03385,442.96092 442.99536,387 512.03514,387 Z"
     id="path9"
     style="display:inline;stroke-width:7.81254" /></svg>
