<?xml version="1.0" encoding="UTF-8" standalone="no"?>
<svg
   viewBox="0 0 1024 1024"
   version="1.1"
   id="svg16"
   sodipodi:docname="kodi.svg"
   inkscape:version="1.4.4 (dcaf3e7d9e, 2026-05-05)"
   inkscape:export-filename="kodi.png"
   inkscape:export-xdpi="48"
   inkscape:export-ydpi="48"
   width="1024"
   height="1024"
   xml:space="preserve"
   xmlns:inkscape="http://www.inkscape.org/namespaces/inkscape"
   xmlns:sodipodi="http://sodipodi.sourceforge.net/DTD/sodipodi-0.dtd"
   xmlns:xlink="http://www.w3.org/1999/xlink"
   xmlns="http://www.w3.org/2000/svg"
   xmlns:svg="http://www.w3.org/2000/svg"
   xmlns:bx="https://boxy-svg.com"><sodipodi:namedview
     id="namedview16"
     pagecolor="#ffffff"
     bordercolor="#000000"
     borderopacity="0.25"
     inkscape:showpageshadow="2"
     inkscape:pageopacity="0.0"
     inkscape:pagecheckerboard="0"
     inkscape:deskcolor="#d1d1d1"
     inkscape:zoom="0.37695312"
     inkscape:cx="301.09845"
     inkscape:cy="334.25907"
     inkscape:window-width="1920"
     inkscape:window-height="978"
     inkscape:window-x="0"
     inkscape:window-y="0"
     inkscape:window-maximized="1"
     inkscape:current-layer="svg16"
     showguides="true"><sodipodi:guide
       position="512,887.00002"
       orientation="0,-1"
       id="guide4"
       inkscape:locked="false" /><sodipodi:guide
       position="512,136.99998"
       orientation="0,-1"
       id="guide5"
       inkscape:locked="false" /><sodipodi:guide
       position="136.99986,512"
       orientation="1,0"
       id="guide6"
       inkscape:locked="false" /><sodipodi:guide
       position="887.00014,512"
       orientation="1,0"
       id="guide7"
       inkscape:locked="false" /></sodipodi:namedview><defs
     id="defs12"><linearGradient
       id="linearGradient63"
       inkscape:collect="always"><stop
         style="stop-color:#17c1e7;stop-opacity:1;"
         offset="0"
         id="stop63" /><stop
         style="stop-color:#007ac1;stop-opacity:1;"
         offset="1"
         id="stop64" /></linearGradient><filter
       id="shadow"
       bx:pinned="true"
       x="0"
       y="0"
       width="1"
       height="1"><title
         id="title1">Drop Shadow</title><feDropShadow
         result="drop-shadow-0"
         in="SourceGraphic"
         style="flood-opacity: 0.3;"
         stdDeviation="10"
         dx="0"
         dy="10" /></filter><bx:guide
       x="-10"
       y="100"
       angle="90" /><bx:guide
       x="100"
       y="-10"
       angle="0" /><bx:guide
       x="924"
       y="-10"
       angle="0" /><bx:guide
       x="-10"
       y="924"
       angle="90" /><clipPath
       id="clip-0"><path
         style="fill:#ffffff;stroke-width:3px"
         d="M 100,724 V 300 C 100,185.001 170,99.995 300.026,100 L 724,99.995 C 854,100 924,185.001 924,300 v 424 c 0,115.001 -70,199.995 -200,200 H 300.026 C 170,924 100,839.001 100,724 Z"
         id="path2"><title
           id="title2">Icon Mask</title></path></clipPath><symbol
       id="symbol-0"
       viewBox="0 0 1024 1024"
       bx:pinned="true"><title
         id="title3">App Icon Guides</title><g
         id="g12"><title
           id="title4">App Icon Guides</title><path
           style="fill:none;stroke:#919191;stroke-width:3px"
           d="m 0,739.001 v -454 C 0,135.001 112,0 284.999,0 H 739.001 C 912,0 1024,135.001 1024,285.001 v 454 C 1024,889.001 912,1024 739.001,1024 H 284.999 C 112,1024 0,889.001 0,739.001 Z"
           id="path5"><title
             id="title5">Outer Bounding Box</title></path><path
           style="fill:none;stroke:#919191;stroke-width:3px"
           d="m 50,739.001 v -454 C 50,162 140,50 284.999,50 H 739.001 C 884.001,50 974,162 974,285.001 v 454 C 974,862 884.001,974 739.001,974 H 284.999 C 140,974 50,862 50,739.001 Z"
           id="path6"><title
             id="title6">Inner Bounding Box</title></path><path
           style="fill:none;stroke:#ff0000;stroke-width:3px"
           d="m 100,724.005 v -424 C 100,185.006 170,100 300.026,100.005 L 724,100 c 130,0.005 200,85.006 200,200.005 v 424 c 0,115.001 -70,199.995 -200,200 H 300.026 C 170,924.005 100,839.006 100,724.005 Z"
           id="path7"><title
             id="title7">Icon Grid Bounding Box</title></path><path
           style="fill:none;stroke:#ff0000"
           d="M 154.017,870.001 H 870.001 V 154.014 H 154.017 Z m 0,0 715.984,-715.987 z M 100,511.995 h 824 z m 0,157.365 H 924 Z M 924,354.631 H 100 Z M 669.365,99.995 v 824 z m -314.73,824 v -824 z M 512,99.995 v 824 z m -357.983,54.019 715.984,715.987 z"
           id="path8"><title
             id="title8">Icon Grid</title></path><circle
           style="fill:none"
           cx="512"
           cy="511.995"
           r="157.397"
           id="circle9"><title
             id="title9">Grid Circle 1</title></circle><circle
           style="fill:none"
           cx="512"
           cy="511.995"
           r="222.577"
           id="circle10"><title
             id="title10">Grid Circle 2</title></circle><circle
           style="fill:none"
           cx="512"
           cy="511.995"
           r="358.00101"
           id="circle11"><title
             id="title11">Grid Circle 3</title></circle><path
           d="m 1084.343,548.001 h -941 c -28.719,0 -52,-23.281 -52,-52 0,-28.719 23.281,-52 52,-52 h 941 c 28.719,0 52,23.281 52,52 0,28.719 -23.281,52 -52,52 z m 51.957,-51.962 -1045,-0.078"
           style="stroke:#0077ff;stroke-width:5px;stroke-dasharray:24, 10"
           transform="rotate(-64.504252,613.82146,496.00118)"
           id="path12"><title
             id="title12">Tool Angle</title></path></g></symbol><linearGradient
       inkscape:collect="always"
       xlink:href="#linearGradient63"
       id="linearGradient64"
       x1="576.76422"
       y1="51.5"
       x2="576.76422"
       y2="972.5"
       gradientUnits="userSpaceOnUse"
       gradientTransform="matrix(1.0029383,0,0,1.0029383,-1.5044074,-1.5044074)" /><filter
       style="color-interpolation-filters:sRGB"
       inkscape:label="Drop Shadow"
       id="filter69"
       x="0"
       y="0"
       width="1.0057613"
       height="1.0098504"><feFlood
         result="flood"
         in="SourceGraphic"
         flood-opacity="0.498039"
         flood-color="rgb(0,0,0)"
         id="feFlood68" /><feGaussianBlur
         result="blur"
         in="SourceGraphic"
         stdDeviation="0.000000"
         id="feGaussianBlur68" /><feOffset
         result="offset"
         in="blur"
         dx="3.000000"
         dy="6.000000"
         id="feOffset68" /><feComposite
         result="comp1"
         operator="in"
         in="flood"
         in2="offset"
         id="feComposite68" /><feComposite
         result="comp2"
         operator="over"
         in="SourceGraphic"
         in2="comp1"
         id="feComposite69" /></filter></defs><path
     id="path63"
     style="baseline-shift:baseline;display:inline;overflow:visible;vector-effect:none;fill:url(#linearGradient64);fill-opacity:1;stroke-width:1.00294;paint-order:markers fill stroke;enable-background:accumulate;stop-color:#000000"
     d="M 284.33105,0 C 111.60637,0 0,134.64308 0,284.33496 V 739.66895 C 0,889.36084 111.60636,1024 284.33105,1024 h 455.3379 C 912.39364,1024 1024,889.36084 1024,739.66895 V 284.33496 C 1024,134.64308 912.39363,0 739.66895,0 Z m 545.53183,65.882468 c 17.8755,6.750901 34.25776,15.510275 49.04799,25.952987 C 864.12063,81.392726 847.73839,72.63338 829.86288,65.882468 Z M 111.75514,903.0284 c 5.7006,6.1289 11.77245,11.94491 18.20568,17.41039 -6.43365,-5.46582 -12.50476,-11.28108 -18.20568,-17.41039 z" /><path
     d="m 512.93371,138.4806 c -7.06257,0 -14.12514,3.34378 -20.90646,10.1251 -28.81279,28.8128 -57.56309,57.65684 -86.34463,86.50088 -7.28132,7.28133 -14.21889,15.00016 -21.96897,21.71897 -9.6876,8.34384 -12.65638,18.21894 -12.46888,30.87532 0.62501,43.71919 0.25,87.46964 0.25,131.18883 0,45.40671 -0.0625,90.84467 0,136.25139 0,3.43753 0.0625,6.96882 0.93751,10.21885 2.71878,10.53136 9.46885,12.28138 17.06268,4.68755 40.93791,-40.93792 81.81333,-81.93834 122.75124,-122.9075 L 651.27889,307.98232 c 13.4376,-13.46888 13.4376,-28.28153 0,-41.75042 L 533.77767,148.57445 c -6.75007,-6.78132 -13.81264,-10.1251 -20.87521,-10.1251 z m 225.75228,225.9398 c -6.9688,0 -13.9064,3.25003 -20.3127,9.65635 l -118.2512,118.2512 c -13.37513,13.40638 -13.34388,27.96903 0,41.31292 l 117.5012,117.68869 c 13.7501,13.75014 28.3753,13.75014 42.0629,0.0625 37.9692,-38.00038 75.8446,-76.03202 113.8762,-113.9699 5.6875,-5.62506 11.0313,-11.37512 13.4376,-19.21895 v -10.3126 c -2.4063,-7.84383 -7.6876,-13.62514 -13.3751,-19.28145 -38.2504,-38.12539 -76.3445,-76.40703 -114.5637,-114.62617 -6.4063,-6.40631 -13.4064,-9.59384 -20.3752,-9.59384 z M 267.61872,374.858 c -2.68753,0.43751 -4.5313,2.93753 -6.46882,4.9063 L 143.52371,498.64051 c -8.75009,8.87509 -8.68759,21.15647 0.125,30.00031 l 63.8444,63.93815 c 18.43768,18.43768 36.78162,36.93787 55.21931,55.37556 5.2813,5.25005 10.3126,4.34379 13.00013,-2.62503 1.37501,-3.56253 1.93752,-7.56257 1.96877,-11.37511 0.125,-40.09416 0.125,-80.21957 0.125,-120.34498 h -0.0625 V 392.76444 c 0,-2.65628 -0.3125,-5.28131 -0.68751,-7.87508 -0.59375,-4.2188 -2.25002,-8.06259 -6.46881,-9.65635 a 5.8125591,5.8125591 0 0 0 -2.96878,-0.37501 z m 247.12751,213.68968 c -7.00007,0 -13.96889,3.31253 -20.50021,9.84385 l -117.8762,117.90744 c -13.53138,13.56264 -13.53138,28.09404 0.0625,41.68788 37.96914,38.0004 75.93828,75.9383 113.84491,114.0325 5.62506,5.625 11.28137,11.0626 19.09394,13.5313 h 10.31261 c 7.62508,-2.1562 13.21888,-7.0625 18.68769,-12.5626 38.18789,-38.4379 76.56332,-76.657 114.87612,-115.0012 13.4377,-13.4376 13.3439,-28.28149 -0.125,-41.81288 L 535.24644,598.26652 c -6.50007,-6.50006 -13.50014,-9.71884 -20.50021,-9.68759 z"
     id="path1"
     style="stroke-width:31.2503;fill:#ffffff" /></svg>
