<?xml version="1.0" encoding="UTF-8" standalone="no"?>
<svg
   viewBox="0 0 1024 1024"
   version="1.1"
   id="svg16"
   sodipodi:docname="mitele.svg"
   inkscape:version="1.4.4 (dcaf3e7d9e, 2026-05-05)"
   inkscape:export-filename="mitele.png"
   inkscape:export-xdpi="48"
   inkscape:export-ydpi="48"
   width="1024"
   height="1024"
   xml:space="preserve"
   xmlns:inkscape="http://www.inkscape.org/namespaces/inkscape"
   xmlns:sodipodi="http://sodipodi.sourceforge.net/DTD/sodipodi-0.dtd"
   xmlns:xlink="http://www.w3.org/1999/xlink"
   xmlns="http://www.w3.org/2000/svg"
   xmlns:svg="http://www.w3.org/2000/svg"
   xmlns:bx="https://boxy-svg.com"><sodipodi:namedview
     id="namedview16"
     pagecolor="#ffffff"
     bordercolor="#000000"
     borderopacity="0.25"
     inkscape:showpageshadow="2"
     inkscape:pageopacity="0.0"
     inkscape:pagecheckerboard="0"
     inkscape:deskcolor="#d1d1d1"
     inkscape:zoom="0.53309221"
     inkscape:cx="369.54207"
     inkscape:cy="519.60991"
     inkscape:window-width="1920"
     inkscape:window-height="978"
     inkscape:window-x="0"
     inkscape:window-y="0"
     inkscape:window-maximized="1"
     inkscape:current-layer="svg16"
     showguides="true"><sodipodi:guide
       position="512,887.00002"
       orientation="0,-1"
       id="guide4"
       inkscape:locked="false" /><sodipodi:guide
       position="512,136.99998"
       orientation="0,-1"
       id="guide5"
       inkscape:locked="false" /><sodipodi:guide
       position="136.99986,512"
       orientation="1,0"
       id="guide6"
       inkscape:locked="false" /><sodipodi:guide
       position="887.00014,512"
       orientation="1,0"
       id="guide7"
       inkscape:locked="false" /><sodipodi:guide
       position="0,511.99805"
       orientation="0,-1"
       id="guide1"
       inkscape:locked="false" /></sodipodi:namedview><defs
     id="defs12"><linearGradient
       id="linearGradient63"
       inkscape:collect="always"><stop
         style="stop-color:#2f2f2f;stop-opacity:1;"
         offset="0"
         id="stop63" /><stop
         style="stop-color:#000000;stop-opacity:1;"
         offset="1"
         id="stop64" /></linearGradient><filter
       id="shadow"
       bx:pinned="true"
       x="0"
       y="0"
       width="1"
       height="1"><title
         id="title1">Drop Shadow</title><feDropShadow
         result="drop-shadow-0"
         in="SourceGraphic"
         style="flood-opacity: 0.3;"
         stdDeviation="10"
         dx="0"
         dy="10" /></filter><bx:guide
       x="-10"
       y="100"
       angle="90" /><bx:guide
       x="100"
       y="-10"
       angle="0" /><bx:guide
       x="924"
       y="-10"
       angle="0" /><bx:guide
       x="-10"
       y="924"
       angle="90" /><clipPath
       id="clip-0"><path
         style="fill:#ffffff;stroke-width:3px"
         d="M 100,724 V 300 C 100,185.001 170,99.995 300.026,100 L 724,99.995 C 854,100 924,185.001 924,300 v 424 c 0,115.001 -70,199.995 -200,200 H 300.026 C 170,924 100,839.001 100,724 Z"
         id="path2"><title
           id="title2">Icon Mask</title></path></clipPath><symbol
       id="symbol-0"
       viewBox="0 0 1024 1024"
       bx:pinned="true"><title
         id="title3">App Icon Guides</title><g
         id="g12"><title
           id="title4">App Icon Guides</title><path
           style="fill:none;stroke:#919191;stroke-width:3px"
           d="m 0,739.001 v -454 C 0,135.001 112,0 284.999,0 H 739.001 C 912,0 1024,135.001 1024,285.001 v 454 C 1024,889.001 912,1024 739.001,1024 H 284.999 C 112,1024 0,889.001 0,739.001 Z"
           id="path5"><title
             id="title5">Outer Bounding Box</title></path><path
           style="fill:none;stroke:#919191;stroke-width:3px"
           d="m 50,739.001 v -454 C 50,162 140,50 284.999,50 H 739.001 C 884.001,50 974,162 974,285.001 v 454 C 974,862 884.001,974 739.001,974 H 284.999 C 140,974 50,862 50,739.001 Z"
           id="path6"><title
             id="title6">Inner Bounding Box</title></path><path
           style="fill:none;stroke:#ff0000;stroke-width:3px"
           d="m 100,724.005 v -424 C 100,185.006 170,100 300.026,100.005 L 724,100 c 130,0.005 200,85.006 200,200.005 v 424 c 0,115.001 -70,199.995 -200,200 H 300.026 C 170,924.005 100,839.006 100,724.005 Z"
           id="path7"><title
             id="title7">Icon Grid Bounding Box</title></path><path
           style="fill:none;stroke:#ff0000"
           d="M 154.017,870.001 H 870.001 V 154.014 H 154.017 Z m 0,0 715.984,-715.987 z M 100,511.995 h 824 z m 0,157.365 H 924 Z M 924,354.631 H 100 Z M 669.365,99.995 v 824 z m -314.73,824 v -824 z M 512,99.995 v 824 z m -357.983,54.019 715.984,715.987 z"
           id="path8"><title
             id="title8">Icon Grid</title></path><circle
           style="fill:none"
           cx="512"
           cy="511.995"
           r="157.397"
           id="circle9"><title
             id="title9">Grid Circle 1</title></circle><circle
           style="fill:none"
           cx="512"
           cy="511.995"
           r="222.577"
           id="circle10"><title
             id="title10">Grid Circle 2</title></circle><circle
           style="fill:none"
           cx="512"
           cy="511.995"
           r="358.00101"
           id="circle11"><title
             id="title11">Grid Circle 3</title></circle><path
           d="m 1084.343,548.001 h -941 c -28.719,0 -52,-23.281 -52,-52 0,-28.719 23.281,-52 52,-52 h 941 c 28.719,0 52,23.281 52,52 0,28.719 -23.281,52 -52,52 z m 51.957,-51.962 -1045,-0.078"
           style="stroke:#0077ff;stroke-width:5px;stroke-dasharray:24, 10"
           transform="rotate(-64.504252,613.82146,496.00118)"
           id="path12"><title
             id="title12">Tool Angle</title></path></g></symbol><linearGradient
       inkscape:collect="always"
       xlink:href="#linearGradient63"
       id="linearGradient64"
       x1="576.76422"
       y1="51.5"
       x2="576.76422"
       y2="972.5"
       gradientUnits="userSpaceOnUse"
       gradientTransform="matrix(1.0029383,0,0,1.0029383,-1.5044074,-1.5044074)" /><filter
       style="color-interpolation-filters:sRGB"
       inkscape:label="Drop Shadow"
       id="filter69"
       x="0"
       y="0"
       width="1.0057613"
       height="1.0098504"><feFlood
         result="flood"
         in="SourceGraphic"
         flood-opacity="0.498039"
         flood-color="rgb(0,0,0)"
         id="feFlood68" /><feGaussianBlur
         result="blur"
         in="SourceGraphic"
         stdDeviation="0.000000"
         id="feGaussianBlur68" /><feOffset
         result="offset"
         in="blur"
         dx="3.000000"
         dy="6.000000"
         id="feOffset68" /><feComposite
         result="comp1"
         operator="in"
         in="flood"
         in2="offset"
         id="feComposite68" /><feComposite
         result="comp2"
         operator="over"
         in="SourceGraphic"
         in2="comp1"
         id="feComposite69" /></filter></defs><path
     id="path63"
     style="baseline-shift:baseline;display:inline;overflow:visible;vector-effect:none;fill:url(#linearGradient64);fill-opacity:1;stroke-width:1.00294;paint-order:markers fill stroke;enable-background:accumulate;stop-color:#000000"
     d="M 284.33105,0 C 111.60637,0 0,134.64308 0,284.33496 V 739.66895 C 0,889.36084 111.60636,1024 284.33105,1024 h 455.3379 C 912.39364,1024 1024,889.36084 1024,739.66895 V 284.33496 C 1024,134.64308 912.39363,0 739.66895,0 Z m 545.53183,65.882468 c 17.8755,6.750901 34.25776,15.510275 49.04799,25.952987 C 864.12063,81.392726 847.73839,72.63338 829.86288,65.882468 Z M 111.75514,903.0284 c 5.7006,6.1289 11.77245,11.94491 18.20568,17.41039 -6.43365,-5.46582 -12.50476,-11.28108 -18.20568,-17.41039 z" /><path
     d="m 505.54346,142.68724 h 12.05834 c 90.99573,1.3119 181.54496,36.62164 247.89377,99.20221 75.64378,68.05149 120.27637,168.45396 121.50457,270.1125 v 14.37511 c -3.7682,64.19952 -22.49775,127.75704 -55.63028,182.96863 -28.08031,46.8377 -67.8561,86.8368 -115.4754,113.7448 -60.48711,34.6957 -131.05075,47.8705 -200.16282,48.0101 -126.22184,0.1395 -252.47159,0.056 -378.72133,0.056 0.1117,-119.7461 -0.1675,-239.49212 0.1396,-359.23818 0.9769,-101.40732 45.63744,-201.6144 120.94627,-269.63798 66.18133,-62.60848 156.53517,-98.02987 247.44728,-99.59299 z"
     style="fill:#ffffff;stroke-width:2.79128;fill-opacity:1"
     id="path1"
     sodipodi:nodetypes="cccccccccccc" /><path
     d="m 377.14442,294.89593 c 22.1907,-6.085 46.9773,9.88114 50.6897,32.54636 4.85684,22.1907 -11.91878,45.8887 -34.41652,48.76372 -22.07905,4.10319 -45.05131,-12.97947 -47.53556,-35.28182 -3.32162,-20.4322 11.10931,-41.56221 31.26238,-46.02826 z"
     style="fill:#42cdff;stroke-width:2.79128"
     id="path2-3" /><path
     d="m 475.09055,359.34666 c 20.68341,-9.26706 47.28434,2.06555 54.84872,23.41887 8.73672,20.90671 -3.43328,47.08895 -24.92616,54.03925 -20.99045,8.03889 -46.69817,-4.5498 -53.22977,-26.01477 -7.1736,-19.84602 3.74032,-43.68358 23.30721,-51.44335 z"
     style="fill:#66ca19;stroke-width:2.79128"
     id="path3" /><path
     d="m 371.78515,426.1979 c 21.40915,-9.09959 48.42877,3.76823 54.82081,26.0985 7.48064,21.46497 -6.33621,46.92147 -28.2757,52.50404 -20.51593,6.3083 -44.24184,-6.19665 -50.6618,-26.62884 -7.3969,-20.2089 3.99154,-44.54889 24.11669,-51.9737 z"
     style="fill:#0098d5;stroke-width:2.79128"
     id="path4" /><path
     d="m 581.27086,426.25372 c 22.19071,-8.73671 49.40572,5.88961 54.40212,29.141 5.91752,21.49289 -8.84837,45.55375 -30.53664,50.24311 -21.5208,5.83378 -45.58155,-8.96002 -50.18717,-30.70412 -5.24761,-19.87394 6.89447,-42.14838 26.32169,-48.67999 z"
     style="fill:#f8c91c;stroke-width:2.79128"
     id="path5-6" /><path
     d="m 480.70103,487.57822 c 22.02323,-6.41995 46.92148,9.04376 51.1084,31.5415 5.58257,22.80479 -12.03043,47.50765 -35.36556,49.76859 -21.85575,3.43328 -44.07436,-13.67729 -46.44695,-35.64469 -3.15416,-20.15307 10.91391,-40.92022 30.70411,-45.6654 z"
     style="fill:#11b8a9;stroke-width:2.79128"
     id="path6-7" /><path
     d="m 689.8797,487.35492 c 22.86061,-6.16874 48.17755,11.13722 50.77345,34.63983 3.62867,21.74409 -13.09112,44.04645 -34.91896,46.78191 -21.99531,3.93571 -44.74427,-12.95156 -47.34017,-35.11435 -3.46119,-20.57176 11.13723,-41.92508 31.48568,-46.30739 z"
     style="fill:#ff9b00;stroke-width:2.79128"
     id="path7-5" /><path
     d="m 377.67476,554.93189 c 22.58148,-5.86169 47.45182,10.96974 50.38267,34.08157 4.01945,21.88366 -12.72826,44.60471 -34.75148,47.39599 -22.1907,4.04736 -45.19088,-13.25859 -47.45182,-35.6726 -3.20998,-20.51593 11.55591,-41.56221 31.82063,-45.80496 z"
     style="fill:#2152a7;stroke-width:2.79128"
     id="path8-3" /><path
     d="m 586.93717,554.70859 c 22.55357,-5.30344 46.92147,11.80713 49.51737,34.83522 3.90779,22.49774 -14.20764,45.47 -36.92868,47.14477 -21.79993,2.79129 -43.43226,-14.59841 -45.44199,-36.45416 -2.95876,-20.71132 12.33748,-41.72969 32.8533,-45.52583 z"
     style="fill:#ff0000;stroke-width:2.79128"
     id="path9" /><path
     d="m 477.63062,618.57315 c 22.94435,-8.7088 50.71762,7.50856 54.40212,31.7369 4.85683,22.6373 -12.812,46.53069 -35.81217,48.70789 -21.46497,3.20998 -43.20907,-13.25859 -46.08409,-34.75148 -3.43328,-19.28777 8.90419,-39.63622 27.49414,-45.69331 z"
     style="fill:#ea3685;stroke-width:2.79128"
     id="path10" /><path
     d="m 374.46479,685.89891 c 21.49288,-7.48064 47.00521,6.39204 52.58778,28.38735 6.47577,21.13003 -7.1736,45.49793 -28.52692,51.08053 -21.01837,6.6432 -45.49792,-6.6991 -51.30379,-27.9408 -6.89447,-20.9067 6.14082,-45.41417 27.24293,-51.52708 z"
     style="fill:#9666d4;stroke-width:2.79128"
     id="path11" /></svg>
