<?xml version="1.0" encoding="UTF-8" standalone="no"?>
<svg
   viewBox="0 0 1024 1024"
   version="1.1"
   id="svg16"
   sodipodi:docname="netflix.svg"
   inkscape:version="1.4.4 (dcaf3e7d9e, 2026-05-05)"
   inkscape:export-filename="netflix.png"
   inkscape:export-xdpi="48"
   inkscape:export-ydpi="48"
   width="1024"
   height="1024"
   xml:space="preserve"
   xmlns:inkscape="http://www.inkscape.org/namespaces/inkscape"
   xmlns:sodipodi="http://sodipodi.sourceforge.net/DTD/sodipodi-0.dtd"
   xmlns:xlink="http://www.w3.org/1999/xlink"
   xmlns="http://www.w3.org/2000/svg"
   xmlns:svg="http://www.w3.org/2000/svg"
   xmlns:bx="https://boxy-svg.com"><sodipodi:namedview
     id="namedview16"
     pagecolor="#ffffff"
     bordercolor="#000000"
     borderopacity="0.25"
     inkscape:showpageshadow="2"
     inkscape:pageopacity="0.0"
     inkscape:pagecheckerboard="0"
     inkscape:deskcolor="#d1d1d1"
     inkscape:zoom="0.37695312"
     inkscape:cx="615.46115"
     inkscape:cy="705.65804"
     inkscape:window-width="1920"
     inkscape:window-height="978"
     inkscape:window-x="1920"
     inkscape:window-y="28"
     inkscape:window-maximized="1"
     inkscape:current-layer="path58"
     showguides="true"><sodipodi:guide
       position="644.64062,887"
       orientation="0,-1"
       id="guide1"
       inkscape:locked="false" /><sodipodi:guide
       position="718.3125,137"
       orientation="0,-1"
       id="guide2"
       inkscape:locked="false" /></sodipodi:namedview><defs
     id="defs12"><linearGradient
       id="linearGradient63"
       inkscape:collect="always"><stop
         style="stop-color:#414141;stop-opacity:1;"
         offset="0"
         id="stop63" /><stop
         style="stop-color:#000000;stop-opacity:1;"
         offset="1"
         id="stop64" /></linearGradient><filter
       id="shadow"
       bx:pinned="true"
       x="0"
       y="0"
       width="1"
       height="1"><title
         id="title1">Drop Shadow</title><feDropShadow
         result="drop-shadow-0"
         in="SourceGraphic"
         style="flood-opacity: 0.3;"
         stdDeviation="10"
         dx="0"
         dy="10" /></filter><bx:guide
       x="-10"
       y="100"
       angle="90" /><bx:guide
       x="100"
       y="-10"
       angle="0" /><bx:guide
       x="924"
       y="-10"
       angle="0" /><bx:guide
       x="-10"
       y="924"
       angle="90" /><clipPath
       id="clip-0"><path
         style="fill:#ffffff;stroke-width:3px"
         d="M 100,724 V 300 C 100,185.001 170,99.995 300.026,100 L 724,99.995 C 854,100 924,185.001 924,300 v 424 c 0,115.001 -70,199.995 -200,200 H 300.026 C 170,924 100,839.001 100,724 Z"
         id="path2"><title
           id="title2">Icon Mask</title></path></clipPath><symbol
       id="symbol-0"
       viewBox="0 0 1024 1024"
       bx:pinned="true"><title
         id="title3">App Icon Guides</title><g
         id="g12"><title
           id="title4">App Icon Guides</title><path
           style="fill:none;stroke:#919191;stroke-width:3px"
           d="m 0,739.001 v -454 C 0,135.001 112,0 284.999,0 H 739.001 C 912,0 1024,135.001 1024,285.001 v 454 C 1024,889.001 912,1024 739.001,1024 H 284.999 C 112,1024 0,889.001 0,739.001 Z"
           id="path5"><title
             id="title5">Outer Bounding Box</title></path><path
           style="fill:none;stroke:#919191;stroke-width:3px"
           d="m 50,739.001 v -454 C 50,162 140,50 284.999,50 H 739.001 C 884.001,50 974,162 974,285.001 v 454 C 974,862 884.001,974 739.001,974 H 284.999 C 140,974 50,862 50,739.001 Z"
           id="path6"><title
             id="title6">Inner Bounding Box</title></path><path
           style="fill:none;stroke:#ff0000;stroke-width:3px"
           d="m 100,724.005 v -424 C 100,185.006 170,100 300.026,100.005 L 724,100 c 130,0.005 200,85.006 200,200.005 v 424 c 0,115.001 -70,199.995 -200,200 H 300.026 C 170,924.005 100,839.006 100,724.005 Z"
           id="path7"><title
             id="title7">Icon Grid Bounding Box</title></path><path
           style="fill:none;stroke:#ff0000"
           d="M 154.017,870.001 H 870.001 V 154.014 H 154.017 Z m 0,0 715.984,-715.987 z M 100,511.995 h 824 z m 0,157.365 H 924 Z M 924,354.631 H 100 Z M 669.365,99.995 v 824 z m -314.73,824 v -824 z M 512,99.995 v 824 z m -357.983,54.019 715.984,715.987 z"
           id="path8"><title
             id="title8">Icon Grid</title></path><circle
           style="fill:none"
           cx="512"
           cy="511.995"
           r="157.397"
           id="circle9"><title
             id="title9">Grid Circle 1</title></circle><circle
           style="fill:none"
           cx="512"
           cy="511.995"
           r="222.577"
           id="circle10"><title
             id="title10">Grid Circle 2</title></circle><circle
           style="fill:none"
           cx="512"
           cy="511.995"
           r="358.00101"
           id="circle11"><title
             id="title11">Grid Circle 3</title></circle><path
           d="m 1084.343,548.001 h -941 c -28.719,0 -52,-23.281 -52,-52 0,-28.719 23.281,-52 52,-52 h 941 c 28.719,0 52,23.281 52,52 0,28.719 -23.281,52 -52,52 z m 51.957,-51.962 -1045,-0.078"
           style="stroke:#0077ff;stroke-width:5px;stroke-dasharray:24, 10"
           transform="rotate(-64.504252,613.82146,496.00118)"
           id="path12"><title
             id="title12">Tool Angle</title></path></g></symbol><linearGradient
       inkscape:collect="always"
       xlink:href="#linearGradient63"
       id="linearGradient64"
       x1="576.76422"
       y1="51.5"
       x2="576.76422"
       y2="972.5"
       gradientUnits="userSpaceOnUse"
       gradientTransform="matrix(1.0029383,0,0,1.0029383,-0.00440744,-0.00440744)" /><filter
       style="color-interpolation-filters:sRGB"
       inkscape:label="Drop Shadow"
       id="filter69"
       x="0"
       y="0"
       width="1.0057613"
       height="1.0098504"><feFlood
         result="flood"
         in="SourceGraphic"
         flood-opacity="0.498039"
         flood-color="rgb(0,0,0)"
         id="feFlood68" /><feGaussianBlur
         result="blur"
         in="SourceGraphic"
         stdDeviation="0.000000"
         id="feGaussianBlur68" /><feOffset
         result="offset"
         in="blur"
         dx="3.000000"
         dy="6.000000"
         id="feOffset68" /><feComposite
         result="comp1"
         operator="in"
         in="flood"
         in2="offset"
         id="feComposite68" /><feComposite
         result="comp2"
         operator="over"
         in="SourceGraphic"
         in2="comp1"
         id="feComposite69" /></filter></defs><g
     style="filter:url(#shadow)"
     id="g16"
     transform="translate(-1.5,-1.5)"><title
       id="title13">App Icon (w/ Shadow)</title><g
       clip-path="url(#clip-0)"
       id="g15"><title
         id="title14">Background (Masked)</title><path
         style="fill:#ffffff;stroke-width:3px"
         d="M 100,724 V 300 C 100,185.001 170,99.995 300.026,100 L 724,99.995 C 854,100 924,185.001 924,300 v 424 c 0,115.001 -70,199.995 -200,200 H 300.026 C 170,924 100,839.001 100,724 Z"
         id="path15"><title
           id="title15">Icon Shape</title></path></g><rect
       x="683.90002"
       y="337.289"
       width="619.79901"
       height="80.511002"
       style="fill:#aebbbb"
       transform="rotate(-64.5042,804.46409,588.45425)"
       id="rect15" /></g><g
     id="use16"
     transform="translate(-1.5,-1.5)"><title
       id="title37">App Icon Guides</title><g
       id="g46"><title
         id="title38">App Icon Guides</title><path
         style="baseline-shift:baseline;display:none;overflow:visible;opacity:1;vector-effect:none;fill:#919191;enable-background:accumulate;stop-color:#000000;stop-opacity:1"
         d="M 284.99805,48.5 C 139.22663,48.5 48.5,161.26925 48.5,285.00195 v 454 C 48.5,862.73267 139.22663,975.5 284.99805,975.5 h 454.0039 C 884.77437,975.5 975.5,862.73266 975.5,739.00195 v -454 C 975.5,161.26926 884.77437,48.5 739.00195,48.5 Z m 0,3 h 454.0039 C 883.22954,51.5 972.5,162.73265 972.5,285.00195 v 454 C 972.5,861.26925 883.22954,972.5 739.00195,972.5 H 284.99805 C 140.77147,972.5 51.5,861.26924 51.5,739.00195 v -454 C 51.5,162.73265 140.77147,51.5 284.99805,51.5 Z"
         id="path40" /><path
         style="baseline-shift:baseline;display:none;overflow:visible;opacity:1;vector-effect:none;fill:#ff0000;enable-background:accumulate;stop-color:#000000;stop-opacity:1"
         d="M 724,98.5 300.02539,98.5059 C 234.6855,98.503347 184.22122,119.90113 150.16406,155.84766 116.1069,191.79418 98.5,242.20201 98.5,300.00586 v 424 c 0,57.80484 17.6069,108.21061 51.66406,144.15625 34.05717,35.94564 84.52148,57.34375 149.86133,57.34375 H 724 c 65.32689,-0.003 115.78596,-21.4007 149.83984,-57.3457 C 907.89372,832.21515 925.5,781.8107 925.5,724.00586 v -424 c 0,-57.80385 -17.60629,-108.2117 -51.66016,-144.1582 C 839.78598,119.90115 789.32692,98.502513 724,98.5 Z m 0,3 c 64.67308,0.002 114.21402,21.10711 147.66016,56.41211 33.44613,35.305 50.83984,84.8986 50.83984,142.09375 v 424 c 0,57.19615 -17.39372,106.7883 -50.83984,142.0918 C 838.21404,901.40115 788.67311,922.50337 724,922.50586 H 300.02539 c -64.68615,0 -114.23426,-21.10214 -147.68359,-56.40625 C 118.89246,830.7955 101.5,781.20201 101.5,724.00586 v -424 c 0,-57.19515 17.39246,-106.79073 50.8418,-142.0957 33.44934,-35.30498 82.99748,-56.40679 147.68359,-56.4043 z"
         id="path41" /><path
         style="baseline-shift:baseline;display:none;overflow:visible;opacity:1;vector-effect:none;fill:#ff0000;enable-background:accumulate;stop-color:#000000;stop-opacity:1"
         d="M 354.13477,99.994141 V 153.51367 H 153.51758 V 354.13086 H 100 v 1 h 53.51758 V 511.49414 H 100 v 1 h 53.51758 V 668.85937 H 100 v 1 h 53.51758 v 200.64258 h 200.61719 v 53.49219 h 1 V 870.50195 H 511.5 v 53.49219 h 1 v -53.49219 h 156.36523 v 53.49219 h 1 V 870.50195 H 870.50195 V 669.85937 H 924 v -1 H 870.50195 V 512.49414 H 924 v -1 H 870.50195 V 355.13086 H 924 v -1 H 870.50195 V 153.51367 H 669.86523 V 99.994141 h -1 V 153.51367 H 512.5 V 99.994141 h -1 V 153.51367 H 355.13477 V 99.994141 Z M 155.22461,154.51367 h 198.91016 v 198.91016 z m 199.91016,0 H 511.5 V 354.13086 H 355.13477 Z m 157.36523,0 H 668.86523 V 354.13086 H 512.5 Z m 157.36523,0 H 868.79297 L 669.86523,353.44336 Z m -515.34765,0.70703 198.9082,198.91016 h -198.9082 z m 714.98437,0 V 354.13086 H 670.59375 Z M 154.51758,355.13086 H 354.13477 V 511.49414 H 154.51758 Z m 201.32422,0 H 511.5 v 155.6582 z m 156.6582,0 H 668.17773 L 512.5,510.80859 Z m 157.36523,0 H 869.50195 V 511.49414 H 669.86523 Z m -314.73046,0.70898 155.65429,155.6543 H 355.13477 Z m 313.73046,0.0195 v 155.6348 H 513.23047 Z M 154.51758,512.49414 H 354.13477 V 668.85937 H 154.51758 Z m 200.61719,0 H 510.81445 L 355.13477,668.17383 Z m 158.06835,0 h 155.66211 v 155.66211 z m 156.66211,0 H 869.50195 V 668.85937 H 669.86523 Z M 512.5,513.20703 668.15234,668.85937 H 512.5 Z m -1,0.0176 V 668.85937 H 355.86523 Z M 154.51758,669.85937 h 198.93164 l -198.93164,198.9336 z m 200.61719,0 H 511.5 V 869.50195 H 355.13477 Z m 157.36523,0 H 668.86523 V 869.50195 H 512.5 Z m 158.06836,0 h 198.93359 v 198.9336 z m -0.70313,0.7129 198.92774,198.92968 H 669.86523 Z m -315.73046,0.0176 V 869.50195 H 155.22461 Z"
         id="path42" /><circle
         style="display:none;fill:none"
         cx="512"
         cy="511.995"
         r="157.397"
         id="circle43"><title
           id="title43">Grid Circle 1</title></circle><circle
         style="display:none;fill:none"
         cx="512"
         cy="511.995"
         r="222.577"
         id="circle44"><title
           id="title44">Grid Circle 2</title></circle><circle
         style="display:none;fill:none"
         cx="512"
         cy="511.995"
         r="358.00101"
         id="circle45"><title
           id="title45">Grid Circle 3</title></circle><g
         id="path46"
         style="display:none;opacity:1"
         transform="rotate(-64.504252,613.82146,496.00118)"><title
           id="title47">Tool Angle</title><path
           style="baseline-shift:baseline;display:inline;overflow:visible;vector-effect:none;stroke-dasharray:24, 10;enable-background:accumulate;stop-color:#000000;stop-opacity:1"
           d="m 1084.343,548.001 h -941 c -28.719,0 -52,-23.281 -52,-52 0,-28.719 23.281,-52 52,-52 h 941 c 28.719,0 52,23.281 52,52 0,28.719 -23.281,52 -52,52 z m 51.957,-51.962 -1045,-0.078"
           id="path47" /><path
           style="baseline-shift:baseline;display:inline;overflow:visible;vector-effect:none;fill:#0077ff;stroke-dasharray:24, 10;enable-background:accumulate;stop-color:#000000;stop-opacity:1"
           d="m 1084.6797,441.49805 c -1.9456,-0.0284 -3.8553,0.004 -5.7207,0.004 v 5 c 3.8349,5.4e-4 7.5412,-0.10542 11.0567,0.32032 h 0.01 l 0.01,0.002 c 3.9814,0.45491 7.9099,1.39505 11.6582,2.80078 l 1.7559,-4.68164 c -4.1312,-1.54933 -8.4494,-2.58418 -12.8282,-3.08594 -2.0082,-0.2432 -3.9899,-0.33093 -5.9355,-0.35937 z m -941.33595,0.004 c -5.72296,-0.003 -11.44569,0.88992 -16.89453,2.66797 l 1.55273,4.75391 c 4.93685,-1.61099 10.13987,-2.42431 15.33985,-2.42188 h 7.61718 v -5 z m 17.61523,0 v 5 h 24 v -5 z m 34,0 v 5 h 24 v -5 z m 34,0 v 5 h 24 v -5 z m 34,0 v 5 h 24 v -5 z m 34,0 v 5 h 24 v -5 z m 34,0 v 5 h 24 v -5 z m 34,0 v 5 h 24 v -5 z m 34,0 v 5 h 24 v -5 z m 34,0 v 5 h 24 v -5 z m 34,0 v 5 h 24 v -5 z m 34,0 v 5 h 24 v -5 z m 34,0 v 5 h 24 v -5 z m 34,0 v 5 h 24 v -5 z m 34,0 v 5 h 24 v -5 z m 34,0 v 5 h 24 v -5 z m 34,0 v 5 h 24 v -5 z m 34,0 v 5 h 24 v -5 z m 34,0 v 5 h 24 v -5 z m 34,0 v 5 h 24 v -5 z m 34,0 v 5 h 24 v -5 z m 34,0 v 5 h 24 v -5 z m 34,0 v 5 h 24 v -5 z m 34,0 v 5 h 24 v -5 z m 34,0 v 5 h 24 v -5 z m 34,0 v 5 h 24.00002 v -5 z m 34.00002,0 v 5 h 24 v -5 z m 34,0 v 5 h 24 v -5 z m -928.09767,6.85547 c -7.33552,4.07917 -13.68904,9.86299 -18.441408,16.7793 l 4.121098,2.83203 c 4.31039,-6.27308 10.09893,-11.54363 16.75,-15.24219 z m 995.98047,1.18164 -2.6152,4.26172 c 6.4867,3.97948 12.0476,9.49036 16.0859,15.94141 l 4.2383,-2.65235 c -4.4527,-7.11309 -10.5552,-13.16209 -17.709,-17.55078 z M 93.34375,474.28125 c -0.252391,0.57737 -0.490461,1.15615 -0.71875,1.73437 -2.859169,7.22941 -4.112612,15.05726 -3.710938,22.80665 l 4.994141,-0.25977 c -0.0018,-0.0338 0.0017,-0.0677 0,-0.10156 l 22.392577,0.002 v -5 l -22.384764,-0.002 c 0.272448,-5.3425 1.395331,-10.64186 3.359375,-15.60742 v -0.002 c 0.209312,-0.53015 0.425476,-1.05189 0.65039,-1.5664 z m 1041.88475,2.16602 -4.664,1.79882 c 1.8812,4.87371 2.8974,10.06528 3.1562,15.29297 l -21.4199,-0.002 v 5 l 21.4004,0.002 c -0.036,0.714 -0.011,1.431 -0.078,2.14258 l 4.9786,0.4707 c 0.7887,-8.34801 -0.3472,-16.86595 -3.3731,-24.70507 z M 126.30078,493.46289 v 5 l 24,0.002 v -5 z m 34,0.004 v 5 l 24,0.002 v -5 z m 34,0.002 v 5 l 24,0.002 v -5 z m 34,0.002 v 5 l 24,0.002 v -5 z m 34,0.004 v 5 h 24 v -5 z m 34,0.002 v 5 l 24,0.002 v -5 z m 34,0.002 v 5 l 24,0.002 v -5 z m 34,0.002 v 5 l 24,0.002 v -5 z m 34,0.004 v 5 l 24,0.002 v -5 z m 34,0.002 v 5 l 24,0.002 v -5 z m 34,0.002 v 5 l 24,0.002 v -5 z m 34,0.004 v 5 l 24,0.002 v -5 z m 34,0.002 v 5 l 24,0.002 v -5 z m 34,0.002 v 5 l 24,0.002 v -5 z m 34,0.004 v 5 h 24 v -5 z m 34,0.002 v 5 l 24,0.002 v -5 z m 34,0.002 v 5 l 24,0.002 v -5 z m 34,0.002 v 5 l 24,0.002 v -5 z m 34,0.004 v 5 l 24,0.002 v -5 z m 34,0.002 v 5 l 24,0.002 v -5 z m 34,0.002 v 5 l 24,0.002 v -5 z m 34,0.004 v 5 l 24,0.002 v -5 z m 34,0.002 v 5 l 24,0.002 v -5 z m 34,0.002 v 5 l 24,0.002 v -5 z m 34,0.004 v 5 h 24 v -5 z m 34,0.002 v 5 l 24.00002,0.002 v -5 z m 34.00002,0.002 v 5 l 24,0.002 v -5 z m 34,0.002 v 5 l 24,0.002 v -5 z m 34,0.004 v 5 l 24,0.002 v -5 z m -983.000019,14.43554 -4.855469,1.19727 c 2.01402,8.15496 5.958847,15.79557 11.410158,22.17578 l 3.80078,-3.24805 c -4.9435,-5.78587 -8.531964,-12.74145 -10.355469,-20.125 z m 1036.529319,2.04688 c -2.1416,7.29804 -6.0277,14.0923 -11.2129,19.66406 l 3.6601,3.40625 c 5.7162,-6.14229 9.9865,-13.60229 12.3516,-21.66211 z m -1019.33791,24.69531 -3.12305,3.9043 c 6.55376,5.24286 14.31852,8.93435 22.53516,10.67968 l 1.03906,-4.89062 c -7.43922,-1.5802 -14.50907,-4.93981 -20.45117,-9.69336 z m 1001.01561,1.28906 c -6.1401,4.49468 -13.3487,7.54517 -20.8496,8.80274 l 0.8281,4.93164 c 8.2847,-1.38897 16.2016,-4.74317 22.9746,-9.70117 z m -971.11718,9.48828 -0.0957,5 0.34375,0.006 0.69727,0.006 h 23.00781 v -5 h -22.99219 l -0.64844,-0.006 z m 33.95313,0.0117 v 5 h 24 v -5 z m 34,0 v 5 h 24 v -5 z m 34,0 v 5 h 24 v -5 z m 34,0 v 5 h 24 v -5 z m 34,0 v 5 h 24 v -5 z m 34,0 v 5 h 24 v -5 z m 34,0 v 5 h 24 v -5 z m 34,0 v 5 h 24 v -5 z m 34,0 v 5 h 24 v -5 z m 34,0 v 5 h 24 v -5 z m 34,0 v 5 h 24 v -5 z m 34,0 v 5 h 24 v -5 z m 34,0 v 5 h 24 v -5 z m 34,0 v 5 h 24 v -5 z m 34,0 v 5 h 24 v -5 z m 34,0 v 5 h 24 v -5 z m 34,0 v 5 h 24 v -5 z m 34,0 v 5 h 24 v -5 z m 34,0 v 5 h 24 v -5 z m 34,0 v 5 h 24 v -5 z m 34,0 v 5 h 24 v -5 z m 34,0 v 5 h 24 v -5 z m 34,0 v 5 h 24 v -5 z m 34,0 v 5 h 24 v -5 z m 34,0 v 5 h 23.99995 v -5 z m 34.00005,0 v 5 h 24 v -5 z m 34,0 v 5 h 24 v -5 z"
           id="path48" /></g></g></g><path
     d="M -1.5,767.53906 V 253.46484 C -2.4948338,263.386 -3,273.41019 -3,283.50195 v 454 c 0,10.09176 0.5051662,20.11599 1.5,30.03711 z"
     style="baseline-shift:baseline;display:inline;overflow:visible;opacity:1;fill:#919191;stroke-width:19.6;enable-background:accumulate;stop-color:#000000;stop-opacity:1"
     id="path56" /><path
     d="M 768.73437,1022.5 H 252.26562 c 10.17368,0.9908 20.58877,1.5 31.23243,1.5 h 454.0039 c 10.64366,0 21.05875,-0.5092 31.23242,-1.5 z"
     style="baseline-shift:baseline;display:inline;overflow:visible;opacity:1;fill:#919191;stroke-width:19.6;enable-background:accumulate;stop-color:#000000;stop-opacity:1"
     id="path54" /><path
     d="m 1022.5,253.46484 v 514.07422 c 0.9948,-9.92112 1.5,-19.94535 1.5,-30.03711 v -454 c 0,-10.09176 -0.5052,-20.11595 -1.5,-30.03711 z"
     style="baseline-shift:baseline;display:inline;overflow:visible;opacity:1;fill:#919191;stroke-width:19.6;enable-background:accumulate;stop-color:#000000;stop-opacity:1"
     id="path52" /><path
     d="m 283.49805,-3 c -10.64351,0 -21.05889,0.5092486 -31.23243,1.5 H 768.73437 C 758.56084,-2.4907514 748.14546,-3 737.50195,-3 Z"
     style="baseline-shift:baseline;display:inline;overflow:visible;opacity:1;fill:#919191;stroke-width:19.6;enable-background:accumulate;stop-color:#000000;stop-opacity:1"
     id="path49" /><g
     id="path58"
     style="opacity:1"
     transform="translate(-1.5,-1.5)"><path
       id="path63"
       style="baseline-shift:baseline;display:inline;overflow:visible;vector-effect:none;fill:url(#linearGradient64);fill-opacity:1;stroke-width:1.00294;paint-order:markers fill stroke;enable-background:accumulate;stop-color:#000000;stop-opacity:1"
       d="M 285.83105,1.5 C 113.10637,1.5 1.5,136.14308 1.5,285.83496 V 741.16895 C 1.5,890.86084 113.10636,1025.5 285.83105,1025.5 h 455.3379 C 913.89364,1025.5 1025.5,890.86084 1025.5,741.16895 V 285.83496 C 1025.5,136.14308 913.89363,1.5 741.16895,1.5 Z m 545.53183,65.882468 c 17.8755,6.750901 34.25776,15.510275 49.04799,25.952987 C 865.62063,82.892726 849.23839,74.13338 831.36288,67.382468 Z M 113.25514,904.5284 c 5.7006,6.1289 11.77245,11.94491 18.20568,17.41039 -6.43365,-5.46582 -12.50476,-11.28108 -18.20568,-17.41039 z" /><path
       d="M 307.1875,138.5 568.06249,876.06247 C 641.375,877.90631 719.8125,888.5 719.8125,888.5 l -265.28125,-750 z m 265.28125,0 V 425.12501 L 719.8125,841.68749 V 138.5 Z M 307.1875,185.375 V 888.5 C 365.71875,881.4687 395,878.75 454.53125,876.06248 V 601.93751 Z"
       id="path1"
       style="fill:#e50914;fill-opacity:1;stroke-width:31.2501" /></g></svg>
