<?xml version="1.0" encoding="UTF-8" standalone="no"?>
<svg
   viewBox="0 0 1024 1024"
   version="1.1"
   id="svg16"
   sodipodi:docname="nintendo.svg"
   inkscape:version="1.4.4 (dcaf3e7d9e, 2026-05-05)"
   inkscape:export-filename="youtube.png"
   inkscape:export-xdpi="48"
   inkscape:export-ydpi="48"
   width="1024"
   height="1024"
   xml:space="preserve"
   xmlns:inkscape="http://www.inkscape.org/namespaces/inkscape"
   xmlns:sodipodi="http://sodipodi.sourceforge.net/DTD/sodipodi-0.dtd"
   xmlns:xlink="http://www.w3.org/1999/xlink"
   xmlns="http://www.w3.org/2000/svg"
   xmlns:svg="http://www.w3.org/2000/svg"
   xmlns:bx="https://boxy-svg.com"><sodipodi:namedview
     id="namedview16"
     pagecolor="#ffffff"
     bordercolor="#000000"
     borderopacity="0.25"
     inkscape:showpageshadow="2"
     inkscape:pageopacity="0.0"
     inkscape:pagecheckerboard="0"
     inkscape:deskcolor="#d1d1d1"
     inkscape:zoom="0.066636528"
     inkscape:cx="-4366.9742"
     inkscape:cy="-855.38671"
     inkscape:window-width="1920"
     inkscape:window-height="978"
     inkscape:window-x="0"
     inkscape:window-y="0"
     inkscape:window-maximized="1"
     inkscape:current-layer="svg16"
     showguides="true"><sodipodi:guide
       position="137,512"
       orientation="1,0"
       id="guide1"
       inkscape:locked="false" /><sodipodi:guide
       position="887,512"
       orientation="1,0"
       id="guide2"
       inkscape:locked="false" /><sodipodi:guide
       position="0,511.99805"
       orientation="0,-1"
       id="guide3"
       inkscape:locked="false" /></sodipodi:namedview><defs
     id="defs12"><linearGradient
       id="linearGradient63"
       inkscape:collect="always"><stop
         style="stop-color:#e60012;stop-opacity:1;"
         offset="0"
         id="stop63" /><stop
         style="stop-color:#ab000d;stop-opacity:1;"
         offset="1"
         id="stop64" /></linearGradient><filter
       id="shadow"
       bx:pinned="true"
       x="0"
       y="0"
       width="1"
       height="1"><title
         id="title1">Drop Shadow</title><feDropShadow
         result="drop-shadow-0"
         in="SourceGraphic"
         style="flood-opacity: 0.3;"
         stdDeviation="10"
         dx="0"
         dy="10" /></filter><bx:guide
       x="-10"
       y="100"
       angle="90" /><bx:guide
       x="100"
       y="-10"
       angle="0" /><bx:guide
       x="924"
       y="-10"
       angle="0" /><bx:guide
       x="-10"
       y="924"
       angle="90" /><clipPath
       id="clip-0"><path
         style="fill:#ffffff;stroke-width:3px"
         d="M 100,724 V 300 C 100,185.001 170,99.995 300.026,100 L 724,99.995 C 854,100 924,185.001 924,300 v 424 c 0,115.001 -70,199.995 -200,200 H 300.026 C 170,924 100,839.001 100,724 Z"
         id="path2"><title
           id="title2">Icon Mask</title></path></clipPath><symbol
       id="symbol-0"
       viewBox="0 0 1024 1024"
       bx:pinned="true"><title
         id="title3">App Icon Guides</title><g
         id="g12"><title
           id="title4">App Icon Guides</title><path
           style="fill:none;stroke:#919191;stroke-width:3px"
           d="m 0,739.001 v -454 C 0,135.001 112,0 284.999,0 H 739.001 C 912,0 1024,135.001 1024,285.001 v 454 C 1024,889.001 912,1024 739.001,1024 H 284.999 C 112,1024 0,889.001 0,739.001 Z"
           id="path5"><title
             id="title5">Outer Bounding Box</title></path><path
           style="fill:none;stroke:#919191;stroke-width:3px"
           d="m 50,739.001 v -454 C 50,162 140,50 284.999,50 H 739.001 C 884.001,50 974,162 974,285.001 v 454 C 974,862 884.001,974 739.001,974 H 284.999 C 140,974 50,862 50,739.001 Z"
           id="path6"><title
             id="title6">Inner Bounding Box</title></path><path
           style="fill:none;stroke:#ff0000;stroke-width:3px"
           d="m 100,724.005 v -424 C 100,185.006 170,100 300.026,100.005 L 724,100 c 130,0.005 200,85.006 200,200.005 v 424 c 0,115.001 -70,199.995 -200,200 H 300.026 C 170,924.005 100,839.006 100,724.005 Z"
           id="path7"><title
             id="title7">Icon Grid Bounding Box</title></path><path
           style="fill:none;stroke:#ff0000"
           d="M 154.017,870.001 H 870.001 V 154.014 H 154.017 Z m 0,0 715.984,-715.987 z M 100,511.995 h 824 z m 0,157.365 H 924 Z M 924,354.631 H 100 Z M 669.365,99.995 v 824 z m -314.73,824 v -824 z M 512,99.995 v 824 z m -357.983,54.019 715.984,715.987 z"
           id="path8"><title
             id="title8">Icon Grid</title></path><circle
           style="fill:none"
           cx="512"
           cy="511.995"
           r="157.397"
           id="circle9"><title
             id="title9">Grid Circle 1</title></circle><circle
           style="fill:none"
           cx="512"
           cy="511.995"
           r="222.577"
           id="circle10"><title
             id="title10">Grid Circle 2</title></circle><circle
           style="fill:none"
           cx="512"
           cy="511.995"
           r="358.00101"
           id="circle11"><title
             id="title11">Grid Circle 3</title></circle><path
           d="m 1084.343,548.001 h -941 c -28.719,0 -52,-23.281 -52,-52 0,-28.719 23.281,-52 52,-52 h 941 c 28.719,0 52,23.281 52,52 0,28.719 -23.281,52 -52,52 z m 51.957,-51.962 -1045,-0.078"
           style="stroke:#0077ff;stroke-width:5px;stroke-dasharray:24, 10"
           transform="rotate(-64.504252,613.82146,496.00118)"
           id="path12"><title
             id="title12">Tool Angle</title></path></g></symbol><linearGradient
       inkscape:collect="always"
       xlink:href="#linearGradient63"
       id="linearGradient64"
       x1="576.76422"
       y1="51.5"
       x2="576.76422"
       y2="972.5"
       gradientUnits="userSpaceOnUse"
       gradientTransform="matrix(1.0029383,0,0,1.0029383,-1.5044074,-1.5044074)" /><filter
       style="color-interpolation-filters:sRGB"
       inkscape:label="Drop Shadow"
       id="filter69"
       x="0"
       y="0"
       width="1.0057613"
       height="1.0098504"><feFlood
         result="flood"
         in="SourceGraphic"
         flood-opacity="0.498039"
         flood-color="rgb(0,0,0)"
         id="feFlood68" /><feGaussianBlur
         result="blur"
         in="SourceGraphic"
         stdDeviation="0.000000"
         id="feGaussianBlur68" /><feOffset
         result="offset"
         in="blur"
         dx="3.000000"
         dy="6.000000"
         id="feOffset68" /><feComposite
         result="comp1"
         operator="in"
         in="flood"
         in2="offset"
         id="feComposite68" /><feComposite
         result="comp2"
         operator="over"
         in="SourceGraphic"
         in2="comp1"
         id="feComposite69" /></filter></defs><path
     id="path63"
     style="baseline-shift:baseline;display:inline;overflow:visible;vector-effect:none;fill:url(#linearGradient64);fill-opacity:1;stroke-width:1.00294;paint-order:markers fill stroke;enable-background:accumulate;stop-color:#000000"
     d="M 284.33105,0 C 111.60637,0 0,134.64308 0,284.33496 V 739.66895 C 0,889.36084 111.60636,1024 284.33105,1024 h 455.3379 C 912.39364,1024 1024,889.36084 1024,739.66895 V 284.33496 C 1024,134.64308 912.39363,0 739.66895,0 Z m 545.53183,65.882468 c 17.8755,6.750901 34.25776,15.510275 49.04799,25.952987 C 864.12063,81.392726 847.73839,72.63338 829.86288,65.882468 Z M 111.75514,903.0284 c 5.7006,6.1289 11.77245,11.94491 18.20568,17.41039 -6.43365,-5.46582 -12.50476,-11.28108 -18.20568,-17.41039 z" /><path
     d="M 235.09501,604.22062 C 176.29178,604.20072 137,562.5285 137,512.00195 v 0 c 0,-50.52653 39.38142,-92.67681 98.00536,-92.54734 h 553.98928 c 58.62394,-0.12949 98.00535,42.02081 98.00535,92.54734 v 0 c 0,50.52655 -39.29177,92.19875 -98.09498,92.21867 z m 0.17927,-162.03752 c -46.55255,0.0897 -75.12749,31.20434 -75.12749,69.69934 v 0 c 0,38.48503 28.39566,69.8587 75.12749,69.68938 h 553.45144 c 46.73183,0.15936 75.13745,-31.20435 75.13745,-69.68938 v 0 c 0,-38.48504 -28.57494,-69.59974 -75.12749,-69.68939 z m 583.22157,32.48917 c 4.23296,0 6.33449,1.43423 6.33449,4.2728 0,1.95214 -1.21511,3.4262 -3.23696,3.93416 l 3.31664,6.62332 h -4.01384 l -2.83857,-6.07553 h -1.7629 v 6.07553 h -3.61544 v -14.83028 z m -0.32868,-5.79665 c -7.39024,0 -13.3861,5.99585 -13.3861,13.38609 0,7.39024 5.99586,13.3861 13.3861,13.3861 7.39025,0 13.3861,-5.99586 13.3861,-13.3861 0,-7.39024 -5.99585,-13.38609 -13.3861,-13.38609 z m 10.82641,13.39605 c 0,5.97594 -4.85047,10.82641 -10.82641,10.82641 -5.97594,0 -10.8264,-4.85047 -10.8264,-10.82641 0,-5.97593 4.85046,-10.82641 10.8264,-10.82641 5.97594,0 10.82641,4.84052 10.82641,10.82641 z m -12.69887,-1.01591 h 1.7629 c 2.06169,0 3.05769,-0.62747 3.05769,-2.10154 0,-1.54378 -1.06571,-2.21109 -3.23697,-2.21109 h -1.58362 z m -302.54176,36.24406 c -0.0398,-5.06959 0.0697,-8.45594 1.73301,-11.34432 2.04179,-3.56564 5.79667,-5.25882 9.20294,-5.27874 h -0.0102 c 3.40629,0.0199 7.16117,1.7131 9.20295,5.27874 1.6633,2.89832 1.73302,6.28469 1.69319,11.35428 z m 21.73248,17.43977 c 0,0 0.0199,0.25897 0.0199,3.50588 0,10.57742 -6.96196,12.92795 -10.82641,12.92795 -3.86443,0 -10.94591,-2.35053 -10.94591,-12.92795 0,-3.16724 0.0199,-11.9419 0.0199,-11.9419 0,0 49.27159,0.0199 49.27159,-0.0103 0,-17.93777 -17.32026,-32.79794 -38.59459,-32.79794 -21.27434,0 -38.51491,14.54145 -38.51491,32.47922 0,17.93778 17.24057,32.46926 38.51491,32.46926 17.64893,0 32.55889,-10.06945 37.11057,-23.72446 z m 82.29862,-40.27781 c 9.78061,-0.27888 29.62072,6.12534 29.48128,29.02314 -0.0199,4.06363 -0.0103,31.47326 -0.0103,31.47326 h -25.98536 c 0,0 0,-34.37159 0,-37.98704 0,-5.03971 -4.8206,-10.64712 -11.95188,-10.64712 -7.12133,0 -12.41999,5.60741 -12.41999,10.64712 0,2.47006 0.0299,37.98704 0.0299,37.98704 h -25.96541 l 0.0199,-57.83711 25.9555,-0.0199 c 0,0 -0.0299,4.65126 0,6.08548 4.99986,-4.77079 12.21083,-8.47586 20.84606,-8.72487 z m -212.56409,0 c 9.78062,-0.27888 29.62074,6.12534 29.4813,29.02314 -0.0199,4.06363 -0.0103,31.47326 -0.0103,31.47326 h -25.98538 c 0,0 0,-34.37159 0,-37.98704 0,-5.03971 -4.82058,-10.64712 -11.95186,-10.64712 -7.12133,0 -12.41999,5.60741 -12.41999,10.64712 0,2.47006 0.0299,37.98704 0.0299,37.98704 h -25.96544 l -0.0102,-57.83711 25.98536,-0.0199 c 0,0 -0.0299,4.65126 0,6.08548 4.99988,-4.77079 12.20087,-8.47586 20.84606,-8.72487 z m 298.41838,-26.46343 h 25.81605 v 86.97976 h -25.8559 c 0,0 -0.0102,-2.8087 -0.0102,-3.34653 -10.00969,6.2847 -21.30421,6.27473 -30.09879,2.17125 -2.36051,-1.09558 -17.88798,-8.54559 -17.88798,-28.67453 0,-15.26853 14.40202,-31.94139 33.2561,-30.28804 6.205,0.54779 10.61724,2.80869 14.8004,5.15923 -0.0199,-13.38611 -0.0199,-32.00114 -0.0199,-32.00114 z m 0.18924,57.76739 c 0,0 0,-7.25082 0,-10.33839 0,-8.94398 -6.17514,-11.22479 -10.23877,-11.22479 -4.16324,0 -10.2587,2.28081 -10.2587,11.22479 0,2.96805 0.0103,10.3085 0.0103,10.3085 0,0 -0.0103,7.21096 -0.0103,10.28857 0,8.93402 6.09546,11.27461 10.24873,11.27461 4.0736,0 10.2587,-2.34059 10.2587,-11.27461 0,-3.71504 -0.0102,-10.25868 -0.0102,-10.25868 z m 82.87628,-0.16932 c 0,0 -0.0103,8.74478 -0.0103,12.25066 0,9.22286 -5.44806,13.02754 -10.68695,13.02754 -5.24888,0 -10.71686,-3.80468 -10.71686,-13.02754 0,-3.50588 0.0103,-12.46979 0.0103,-12.46979 0,0 0.0199,-8.55554 0.0199,-12.06142 0,-9.18303 5.47794,-12.95783 10.68697,-12.95783 5.21897,0 10.68696,3.7748 10.68696,12.95783 0,3.50588 -0.0103,9.98976 0.0199,12.31043 z m -10.50769,-32.40951 c -21.11498,0 -38.22607,14.54146 -38.22607,32.47922 0,17.93777 17.12105,32.47922 38.22607,32.47922 21.11497,0 38.22608,-14.54145 38.22608,-32.47922 0,-17.93776 -17.11111,-32.47922 -38.22608,-32.47922 z M 317.7721,485.95684 v -17.77842 h 26.21443 v 17.77842 z m 0.0598,69.22127 v -57.84708 l 26.15469,0.0102 v 57.83712 z m 131.22162,0 0.0103,-57.72756 H 434.8411 v -8.58543 l 14.23268,-0.0103 -0.0199,-11.71283 h 26.17461 v 11.70287 h 14.16297 v 8.60534 h -14.16297 l 0.0199,57.72756 z m -237.66301,0 0.0102,-86.97976 h 27.10087 l 37.48905,60.65575 -0.0199,-60.65575 h 26.89172 v 86.97976 h -26.85189 l -37.68823,-60.65577 v 60.65577 z"
     style="fill:#ffffff;stroke-width:1.46484"
     id="path29" /></svg>
