<?xml version="1.0" encoding="UTF-8" standalone="no"?>
<svg
   viewBox="0 0 1024 1024"
   version="1.1"
   id="svg16"
   sodipodi:docname="nintendo_switch.svg"
   inkscape:version="1.4.4 (dcaf3e7d9e, 2026-05-05)"
   inkscape:export-filename="../app-icons/nintendo_switch.png"
   inkscape:export-xdpi="48"
   inkscape:export-ydpi="48"
   width="1024"
   height="1024"
   xml:space="preserve"
   xmlns:inkscape="http://www.inkscape.org/namespaces/inkscape"
   xmlns:sodipodi="http://sodipodi.sourceforge.net/DTD/sodipodi-0.dtd"
   xmlns:xlink="http://www.w3.org/1999/xlink"
   xmlns="http://www.w3.org/2000/svg"
   xmlns:svg="http://www.w3.org/2000/svg"
   xmlns:bx="https://boxy-svg.com"><sodipodi:namedview
     id="namedview16"
     pagecolor="#ffffff"
     bordercolor="#000000"
     borderopacity="0.25"
     inkscape:showpageshadow="2"
     inkscape:pageopacity="0.0"
     inkscape:pagecheckerboard="0"
     inkscape:deskcolor="#d1d1d1"
     inkscape:zoom="0.53309222"
     inkscape:cx="562.75441"
     inkscape:cy="302.01154"
     inkscape:window-width="1920"
     inkscape:window-height="978"
     inkscape:window-x="0"
     inkscape:window-y="0"
     inkscape:window-maximized="1"
     inkscape:current-layer="g3"
     showguides="true"><sodipodi:guide
       position="137,512"
       orientation="1,0"
       id="guide1"
       inkscape:locked="false" /><sodipodi:guide
       position="887,512"
       orientation="1,0"
       id="guide2"
       inkscape:locked="false" /><sodipodi:guide
       position="0,511.99805"
       orientation="0,-1"
       id="guide3"
       inkscape:locked="false" /></sodipodi:namedview><defs
     id="defs12"><linearGradient
       id="linearGradient63"
       inkscape:collect="always"><stop
         style="stop-color:#e60012;stop-opacity:1;"
         offset="0"
         id="stop63" /><stop
         style="stop-color:#ab000d;stop-opacity:1;"
         offset="1"
         id="stop64" /></linearGradient><filter
       id="shadow"
       bx:pinned="true"
       x="0"
       y="0"
       width="1"
       height="1"><title
         id="title1">Drop Shadow</title><feDropShadow
         result="drop-shadow-0"
         in="SourceGraphic"
         style="flood-opacity: 0.3;"
         stdDeviation="10"
         dx="0"
         dy="10" /></filter><bx:guide
       x="-10"
       y="100"
       angle="90" /><bx:guide
       x="100"
       y="-10"
       angle="0" /><bx:guide
       x="924"
       y="-10"
       angle="0" /><bx:guide
       x="-10"
       y="924"
       angle="90" /><clipPath
       id="clip-0"><path
         style="fill:#ffffff;stroke-width:3px"
         d="M 100,724 V 300 C 100,185.001 170,99.995 300.026,100 L 724,99.995 C 854,100 924,185.001 924,300 v 424 c 0,115.001 -70,199.995 -200,200 H 300.026 C 170,924 100,839.001 100,724 Z"
         id="path2"><title
           id="title2">Icon Mask</title></path></clipPath><symbol
       id="symbol-0"
       viewBox="0 0 1024 1024"
       bx:pinned="true"><title
         id="title3">App Icon Guides</title><g
         id="g12"><title
           id="title4">App Icon Guides</title><path
           style="fill:none;stroke:#919191;stroke-width:3px"
           d="m 0,739.001 v -454 C 0,135.001 112,0 284.999,0 H 739.001 C 912,0 1024,135.001 1024,285.001 v 454 C 1024,889.001 912,1024 739.001,1024 H 284.999 C 112,1024 0,889.001 0,739.001 Z"
           id="path5"><title
             id="title5">Outer Bounding Box</title></path><path
           style="fill:none;stroke:#919191;stroke-width:3px"
           d="m 50,739.001 v -454 C 50,162 140,50 284.999,50 H 739.001 C 884.001,50 974,162 974,285.001 v 454 C 974,862 884.001,974 739.001,974 H 284.999 C 140,974 50,862 50,739.001 Z"
           id="path6"><title
             id="title6">Inner Bounding Box</title></path><path
           style="fill:none;stroke:#ff0000;stroke-width:3px"
           d="m 100,724.005 v -424 C 100,185.006 170,100 300.026,100.005 L 724,100 c 130,0.005 200,85.006 200,200.005 v 424 c 0,115.001 -70,199.995 -200,200 H 300.026 C 170,924.005 100,839.006 100,724.005 Z"
           id="path7"><title
             id="title7">Icon Grid Bounding Box</title></path><path
           style="fill:none;stroke:#ff0000"
           d="M 154.017,870.001 H 870.001 V 154.014 H 154.017 Z m 0,0 715.984,-715.987 z M 100,511.995 h 824 z m 0,157.365 H 924 Z M 924,354.631 H 100 Z M 669.365,99.995 v 824 z m -314.73,824 v -824 z M 512,99.995 v 824 z m -357.983,54.019 715.984,715.987 z"
           id="path8"><title
             id="title8">Icon Grid</title></path><circle
           style="fill:none"
           cx="512"
           cy="511.995"
           r="157.397"
           id="circle9"><title
             id="title9">Grid Circle 1</title></circle><circle
           style="fill:none"
           cx="512"
           cy="511.995"
           r="222.577"
           id="circle10"><title
             id="title10">Grid Circle 2</title></circle><circle
           style="fill:none"
           cx="512"
           cy="511.995"
           r="358.00101"
           id="circle11"><title
             id="title11">Grid Circle 3</title></circle><path
           d="m 1084.343,548.001 h -941 c -28.719,0 -52,-23.281 -52,-52 0,-28.719 23.281,-52 52,-52 h 941 c 28.719,0 52,23.281 52,52 0,28.719 -23.281,52 -52,52 z m 51.957,-51.962 -1045,-0.078"
           style="stroke:#0077ff;stroke-width:5px;stroke-dasharray:24, 10"
           transform="rotate(-64.504252,613.82146,496.00118)"
           id="path12"><title
             id="title12">Tool Angle</title></path></g></symbol><linearGradient
       inkscape:collect="always"
       xlink:href="#linearGradient63"
       id="linearGradient64"
       x1="576.76422"
       y1="51.5"
       x2="576.76422"
       y2="972.5"
       gradientUnits="userSpaceOnUse"
       gradientTransform="matrix(1.0029383,0,0,1.0029383,-1.5044074,-1.5044074)" /><filter
       style="color-interpolation-filters:sRGB"
       inkscape:label="Drop Shadow"
       id="filter69"
       x="0"
       y="0"
       width="1.0057613"
       height="1.0098504"><feFlood
         result="flood"
         in="SourceGraphic"
         flood-opacity="0.498039"
         flood-color="rgb(0,0,0)"
         id="feFlood68" /><feGaussianBlur
         result="blur"
         in="SourceGraphic"
         stdDeviation="0.000000"
         id="feGaussianBlur68" /><feOffset
         result="offset"
         in="blur"
         dx="3.000000"
         dy="6.000000"
         id="feOffset68" /><feComposite
         result="comp1"
         operator="in"
         in="flood"
         in2="offset"
         id="feComposite68" /><feComposite
         result="comp2"
         operator="over"
         in="SourceGraphic"
         in2="comp1"
         id="feComposite69" /></filter></defs><path
     id="path63"
     style="baseline-shift:baseline;display:inline;overflow:visible;vector-effect:none;fill:url(#linearGradient64);fill-opacity:1;stroke-width:1.00294;paint-order:markers fill stroke;enable-background:accumulate;stop-color:#000000"
     d="M 284.33105,0 C 111.60637,0 0,134.64308 0,284.33496 V 739.66895 C 0,889.36084 111.60636,1024 284.33105,1024 h 455.3379 C 912.39364,1024 1024,889.36084 1024,739.66895 V 284.33496 C 1024,134.64308 912.39363,0 739.66895,0 Z m 545.53183,65.882468 c 17.8755,6.750901 34.25776,15.510275 49.04799,25.952987 C 864.12063,81.392726 847.73839,72.63338 829.86288,65.882468 Z M 111.75514,903.0284 c 5.7006,6.1289 11.77245,11.94491 18.20568,17.41039 -6.43365,-5.46582 -12.50476,-11.28108 -18.20568,-17.41039 z" /><g
     id="g3"
     transform="translate(631.85397,50.61452)"><path
       id="path1"
       d="m -4.8447,136.38548 c -32.3062,0 -59.2277,0.40401 -59.6315,0.94233 -0.5385,0.40374 -0.9425,146.28932 -0.9425,324.20607 0,293.52227 0.134,323.26452 2.1532,324.072 3.6344,1.34581 108.0914,0.80762 121.0139,-0.53819 54.6512,-6.19075 102.8397,-39.43237 129.0885,-88.82379 3.3652,-6.32533 7.8073,-16.95793 10.0956,-23.55243 8.4804,-25.30132 8.2126,-18.57225 8.2126,-211.96587 0,-154.36499 -0.2706,-177.37856 -2.1552,-187.20301 C 189.6636,203.40562 136.2248,150.51654 65.959,138.40421 56.5364,136.78923 41.9992,136.38548 -4.8447,136.38548 Z m -209.0474,0.13406 c -64.0738,0.13458 -83.3231,0.53833 -91.8035,2.01872 -64.7469,11.57402 -116.84048,59.48569 -133.26278,122.46983 -5.92279,22.74427 -6.32819,36.06771 -5.65514,212.50408 0.40382,162.03613 0.53962,165.80375 3.23179,178.31983 14.94159,67.42533 62.86143,115.47041 130.97353,131.35103 8.8842,2.01872 20.1928,2.42326 93.0162,2.827 75.3809,0.53832 83.1867,0.40414 85.2058,-1.61458 2.0191,-2.01873 2.1552,-27.9931 2.1552,-322.45743 0,-218.2912 -0.4045,-321.11148 -1.3467,-322.99562 -1.3461,-2.42247 -3.6336,-2.55744 -82.5144,-2.42286 z m 30.0169,52.35273 V 461.53388 734.1955 l -54.7867,-0.67226 c -50.4784,-0.53832 -55.8614,-0.80815 -65.9571,-3.36519 -43.344,-11.17027 -75.5166,-44.5457 -84.5354,-88.01554 -2.9614,-13.59272 -2.9609,-348.43191 -0.1341,-361.75548 8.0765,-37.81739 34.325,-69.17475 69.7272,-83.30581 17.7683,-7.13282 25.9802,-7.94031 83.5929,-8.07489 z m -97.6263,81.07024 c -4.1558,-0.0565 -8.3774,0.31806 -12.6176,1.1592 -8.4803,1.61498 -21.4028,8.07489 -28.2678,14.13106 -14.134,12.24691 -21.1342,29.60752 -20.0573,50.06392 0.5384,10.63193 1.2116,13.45867 5.5191,22.07189 6.3266,13.0544 15.8832,22.6085 28.9402,29.06842 9.0188,4.44119 11.308,4.98017 23.019,5.38392 10.6341,0.40375 14.4018,0 21.5361,-2.42286 29.2101,-9.82445 46.844,-38.22049 41.8635,-67.2901 -5.0647,-30.26401 -30.8447,-51.76986 -59.9352,-52.16545 z M 60.3867,428.39647 c 6.2314,-0.24169 12.588,0.40807 18.8978,2.04828 20.999,5.51785 38.2297,21.53463 45.2294,41.99102 4.4421,12.65066 4.308,31.22133 -0.1341,42.79534 -8.2112,21.26388 -24.3655,36.20308 -45.0953,41.72093 C 45.6323,565.69983 9.8265,545.37816 0,512.00195 -2.9614,501.77376 -2.8269,484.54771 0.5383,474.05036 8.741,447.26022 33.3839,429.44381 60.3867,428.39647 Z"
       style="fill:#ffffff;stroke-width:0.134595" /></g></svg>
