<?xml version="1.0" encoding="UTF-8" standalone="no"?>
<svg
   viewBox="0 0 1024 1024"
   version="1.1"
   id="svg16"
   sodipodi:docname="playstation.svg"
   inkscape:version="1.4.4 (dcaf3e7d9e, 2026-05-05)"
   inkscape:export-filename="../app-icons/playstation.png"
   inkscape:export-xdpi="48"
   inkscape:export-ydpi="48"
   width="1024"
   height="1024"
   xml:space="preserve"
   xmlns:inkscape="http://www.inkscape.org/namespaces/inkscape"
   xmlns:sodipodi="http://sodipodi.sourceforge.net/DTD/sodipodi-0.dtd"
   xmlns:xlink="http://www.w3.org/1999/xlink"
   xmlns="http://www.w3.org/2000/svg"
   xmlns:svg="http://www.w3.org/2000/svg"
   xmlns:rdf="http://www.w3.org/1999/02/22-rdf-syntax-ns#"
   xmlns:cc="http://creativecommons.org/ns#"
   xmlns:dc="http://purl.org/dc/elements/1.1/"
   xmlns:bx="https://boxy-svg.com"><sodipodi:namedview
     id="namedview16"
     pagecolor="#ffffff"
     bordercolor="#000000"
     borderopacity="0.25"
     inkscape:showpageshadow="2"
     inkscape:pageopacity="0.0"
     inkscape:pagecheckerboard="0"
     inkscape:deskcolor="#d1d1d1"
     inkscape:zoom="0.37695312"
     inkscape:cx="-198.96373"
     inkscape:cy="546.48705"
     inkscape:window-width="1920"
     inkscape:window-height="978"
     inkscape:window-x="0"
     inkscape:window-y="0"
     inkscape:window-maximized="1"
     inkscape:current-layer="svg16"
     showguides="true"><sodipodi:guide
       position="512,887.00002"
       orientation="0,-1"
       id="guide4"
       inkscape:locked="false" /><sodipodi:guide
       position="512,136.99998"
       orientation="0,-1"
       id="guide5"
       inkscape:locked="false" /><sodipodi:guide
       position="136.99986,512"
       orientation="1,0"
       id="guide6"
       inkscape:locked="false" /><sodipodi:guide
       position="887.00014,512"
       orientation="1,0"
       id="guide7"
       inkscape:locked="false" /></sodipodi:namedview><defs
     id="defs12"><linearGradient
       id="linearGradient63"
       inkscape:collect="always"><stop
         style="stop-color:#303030;stop-opacity:1;"
         offset="0"
         id="stop63" /><stop
         style="stop-color:#000000;stop-opacity:1;"
         offset="1"
         id="stop64" /></linearGradient><filter
       id="shadow"
       bx:pinned="true"
       x="0"
       y="0"
       width="1"
       height="1"><title
         id="title1">Drop Shadow</title><feDropShadow
         result="drop-shadow-0"
         in="SourceGraphic"
         style="flood-opacity: 0.3;"
         stdDeviation="10"
         dx="0"
         dy="10" /></filter><bx:guide
       x="-10"
       y="100"
       angle="90" /><bx:guide
       x="100"
       y="-10"
       angle="0" /><bx:guide
       x="924"
       y="-10"
       angle="0" /><bx:guide
       x="-10"
       y="924"
       angle="90" /><clipPath
       id="clip-0"><path
         style="fill:#ffffff;stroke-width:3px"
         d="M 100,724 V 300 C 100,185.001 170,99.995 300.026,100 L 724,99.995 C 854,100 924,185.001 924,300 v 424 c 0,115.001 -70,199.995 -200,200 H 300.026 C 170,924 100,839.001 100,724 Z"
         id="path2"><title
           id="title2">Icon Mask</title></path></clipPath><symbol
       id="symbol-0"
       viewBox="0 0 1024 1024"
       bx:pinned="true"><title
         id="title3">App Icon Guides</title><g
         id="g12"><title
           id="title4">App Icon Guides</title><path
           style="fill:none;stroke:#919191;stroke-width:3px"
           d="m 0,739.001 v -454 C 0,135.001 112,0 284.999,0 H 739.001 C 912,0 1024,135.001 1024,285.001 v 454 C 1024,889.001 912,1024 739.001,1024 H 284.999 C 112,1024 0,889.001 0,739.001 Z"
           id="path5"><title
             id="title5">Outer Bounding Box</title></path><path
           style="fill:none;stroke:#919191;stroke-width:3px"
           d="m 50,739.001 v -454 C 50,162 140,50 284.999,50 H 739.001 C 884.001,50 974,162 974,285.001 v 454 C 974,862 884.001,974 739.001,974 H 284.999 C 140,974 50,862 50,739.001 Z"
           id="path6"><title
             id="title6">Inner Bounding Box</title></path><path
           style="fill:none;stroke:#ff0000;stroke-width:3px"
           d="m 100,724.005 v -424 C 100,185.006 170,100 300.026,100.005 L 724,100 c 130,0.005 200,85.006 200,200.005 v 424 c 0,115.001 -70,199.995 -200,200 H 300.026 C 170,924.005 100,839.006 100,724.005 Z"
           id="path7"><title
             id="title7">Icon Grid Bounding Box</title></path><path
           style="fill:none;stroke:#ff0000"
           d="M 154.017,870.001 H 870.001 V 154.014 H 154.017 Z m 0,0 715.984,-715.987 z M 100,511.995 h 824 z m 0,157.365 H 924 Z M 924,354.631 H 100 Z M 669.365,99.995 v 824 z m -314.73,824 v -824 z M 512,99.995 v 824 z m -357.983,54.019 715.984,715.987 z"
           id="path8"><title
             id="title8">Icon Grid</title></path><circle
           style="fill:none"
           cx="512"
           cy="511.995"
           r="157.397"
           id="circle9"><title
             id="title9">Grid Circle 1</title></circle><circle
           style="fill:none"
           cx="512"
           cy="511.995"
           r="222.577"
           id="circle10"><title
             id="title10">Grid Circle 2</title></circle><circle
           style="fill:none"
           cx="512"
           cy="511.995"
           r="358.00101"
           id="circle11"><title
             id="title11">Grid Circle 3</title></circle><path
           d="m 1084.343,548.001 h -941 c -28.719,0 -52,-23.281 -52,-52 0,-28.719 23.281,-52 52,-52 h 941 c 28.719,0 52,23.281 52,52 0,28.719 -23.281,52 -52,52 z m 51.957,-51.962 -1045,-0.078"
           style="stroke:#0077ff;stroke-width:5px;stroke-dasharray:24, 10"
           transform="rotate(-64.504252,613.82146,496.00118)"
           id="path12"><title
             id="title12">Tool Angle</title></path></g></symbol><linearGradient
       inkscape:collect="always"
       xlink:href="#linearGradient63"
       id="linearGradient64"
       x1="576.76422"
       y1="51.5"
       x2="576.76422"
       y2="972.5"
       gradientUnits="userSpaceOnUse"
       gradientTransform="matrix(1.0029383,0,0,1.0029383,-1.5044074,-1.5044074)" /><filter
       style="color-interpolation-filters:sRGB"
       inkscape:label="Drop Shadow"
       id="filter69"
       x="0"
       y="0"
       width="1.0057613"
       height="1.0098504"><feFlood
         result="flood"
         in="SourceGraphic"
         flood-opacity="0.498039"
         flood-color="rgb(0,0,0)"
         id="feFlood68" /><feGaussianBlur
         result="blur"
         in="SourceGraphic"
         stdDeviation="0.000000"
         id="feGaussianBlur68" /><feOffset
         result="offset"
         in="blur"
         dx="3.000000"
         dy="6.000000"
         id="feOffset68" /><feComposite
         result="comp1"
         operator="in"
         in="flood"
         in2="offset"
         id="feComposite68" /><feComposite
         result="comp2"
         operator="over"
         in="SourceGraphic"
         in2="comp1"
         id="feComposite69" /></filter><linearGradient
       id="SVGID_2_"
       gradientUnits="userSpaceOnUse"
       x1="13.3229"
       y1="885.89117"
       x2="56.284"
       y2="842.93011"
       gradientTransform="matrix(10.523649,0,0,10.523649,145.7957,-8743.907)">
	<stop
   offset="0"
   style="stop-color:#F5A717"
   id="stop8" />
	<stop
   offset="1"
   style="stop-color:#E6511F"
   id="stop9" />
</linearGradient><linearGradient
       id="SVGID_1_"
       gradientUnits="userSpaceOnUse"
       x1="81.148598"
       y1="37.946999"
       x2="234.5256"
       y2="37.946999">
	<stop
   offset="3.067093e-07"
   style="stop-color:#F18601"
   id="stop1" />
	<stop
   offset="0.3926"
   style="stop-color:#D5561B"
   id="stop2" />
	<stop
   offset="0.4792"
   style="stop-color:#D04D20"
   id="stop3" />
	<stop
   offset="0.6218"
   style="stop-color:#C4342F"
   id="stop4" />
	<stop
   offset="0.7148"
   style="stop-color:#BA203B"
   id="stop5" />
	<stop
   offset="0.8255"
   style="stop-color:#CC2E2A"
   id="stop6" />
	<stop
   offset="1"
   style="stop-color:#E54213"
   id="stop7" />
</linearGradient><radialGradient
       id="SVGID_3_"
       cx="203.47"
       cy="74.626297"
       r="30.176399"
       gradientUnits="userSpaceOnUse">
	<stop
   offset="0"
   style="stop-color:#6BA12F"
   id="stop10" />
	<stop
   offset="0.3042"
   style="stop-color:#6D9F2F;stop-opacity:0.6958"
   id="stop11" />
	<stop
   offset="0.4755"
   style="stop-color:#729630;stop-opacity:0.5245"
   id="stop12" />
	<stop
   offset="0.6137"
   style="stop-color:#7C8931;stop-opacity:0.3863"
   id="stop13" />
	<stop
   offset="0.7343"
   style="stop-color:#897532;stop-opacity:0.2657"
   id="stop14" />
	<stop
   offset="0.8434"
   style="stop-color:#9B5B34;stop-opacity:0.1566"
   id="stop15" />
	<stop
   offset="0.9427"
   style="stop-color:#B03D36;stop-opacity:5.727428e-02"
   id="stop16" />
	<stop
   offset="1"
   style="stop-color:#BF2737;stop-opacity:0"
   id="stop17" />
</radialGradient><radialGradient
       id="SVGID_4_"
       cx="104.2308"
       cy="84.022102"
       r="54.242901"
       gradientUnits="userSpaceOnUse">
		<stop
   offset="0"
   style="stop-color:#BB0AFF"
   id="stop18" />
		<stop
   offset="0.3204"
   style="stop-color:#BB0BFD;stop-opacity:0.6796"
   id="stop19" />
		<stop
   offset="0.4615"
   style="stop-color:#BC0DF6;stop-opacity:0.5385"
   id="stop20" />
		<stop
   offset="0.5673"
   style="stop-color:#BE11E9;stop-opacity:0.4327"
   id="stop21" />
		<stop
   offset="0.6557"
   style="stop-color:#C017D7;stop-opacity:0.3443"
   id="stop22" />
		<stop
   offset="0.733"
   style="stop-color:#C21FC0;stop-opacity:0.267"
   id="stop23" />
		<stop
   offset="0.8027"
   style="stop-color:#C529A3;stop-opacity:0.1973"
   id="stop24" />
		<stop
   offset="0.8667"
   style="stop-color:#C93481;stop-opacity:0.1333"
   id="stop25" />
		<stop
   offset="0.9261"
   style="stop-color:#CE4159;stop-opacity:7.388669e-02"
   id="stop26" />
		<stop
   offset="0.9799"
   style="stop-color:#D3502D;stop-opacity:2.009726e-02"
   id="stop27" />
		<stop
   offset="1"
   style="stop-color:#D5561B;stop-opacity:0"
   id="stop28" />
	</radialGradient><radialGradient
       id="SVGID_5_"
       cx="109.4664"
       cy="83.871201"
       r="54.242901"
       gradientUnits="userSpaceOnUse">
		<stop
   offset="0"
   style="stop-color:#BB0AFF"
   id="stop29" />
		<stop
   offset="0.3168"
   style="stop-color:#BC0BFD;stop-opacity:0.6832"
   id="stop30" />
		<stop
   offset="0.454"
   style="stop-color:#BD0DF6;stop-opacity:0.546"
   id="stop31" />
		<stop
   offset="0.5564"
   style="stop-color:#C110E9;stop-opacity:0.4436"
   id="stop32" />
		<stop
   offset="0.6416"
   style="stop-color:#C615D7;stop-opacity:0.3584"
   id="stop33" />
		<stop
   offset="0.7162"
   style="stop-color:#CC1CC0;stop-opacity:0.2838"
   id="stop34" />
		<stop
   offset="0.7832"
   style="stop-color:#D323A3;stop-opacity:0.2168"
   id="stop35" />
		<stop
   offset="0.8446"
   style="stop-color:#DC2D81;stop-opacity:0.1554"
   id="stop36" />
		<stop
   offset="0.9018"
   style="stop-color:#E7385A;stop-opacity:9.824240e-02"
   id="stop37" />
		<stop
   offset="0.9533"
   style="stop-color:#F3442E;stop-opacity:4.672241e-02"
   id="stop38" />
		<stop
   offset="1"
   style="stop-color:#FF5100;stop-opacity:0"
   id="stop39" />
	</radialGradient></defs><path
     id="path63"
     style="baseline-shift:baseline;display:inline;overflow:visible;vector-effect:none;fill:url(#linearGradient64);fill-opacity:1;stroke-width:1.00294;paint-order:markers fill stroke;enable-background:accumulate;stop-color:#000000"
     d="M 284.33105,0 C 111.60637,0 0,134.64308 0,284.33496 V 739.66895 C 0,889.36084 111.60636,1024 284.33105,1024 h 455.3379 C 912.39364,1024 1024,889.36084 1024,739.66895 V 284.33496 C 1024,134.64308 912.39363,0 739.66895,0 Z m 545.53183,65.882468 c 17.8755,6.750901 34.25776,15.510275 49.04799,25.952987 C 864.12063,81.392726 847.73839,72.63338 829.86288,65.882468 Z M 111.75514,903.0284 c 5.7006,6.1289 11.77245,11.94491 18.20568,17.41039 -6.43365,-5.46582 -12.50476,-11.28108 -18.20568,-17.41039 z" /><title
     id="title1-6">Ubisoft</title><metadata
     id="metadata1"><rdf:RDF><cc:Work
         rdf:about=""><dc:title>Ubisoft</dc:title></cc:Work></rdf:RDF></metadata><g
     style="overflow:visible"
     id="g1"
     transform="matrix(1.0516183,0,0,1.0516183,191.80886,217.50889)"><g
       id="g3"
       transform="translate(-61.68556,-312.8684)">
	
	<path
   clip-rule="evenodd"
   d="M 395.06807,434.21345 394.60021,863.39514 279.61012,825.99696 V 321.53515 l 146.77829,38.8061 c 93.9539,25.25126 151.45108,74.33572 150.5154,160.36064 -0.93425,100.0534 -47.2116,140.25584 -137.42843,114.07469 V 437.47977 c 0,-23.84477 -44.40731,-25.24111 -44.40731,-3.26632 z"
   id="path7-3"
   style="fill:#de0029;fill-opacity:1;fill-rule:evenodd" />
	<path
   clip-rule="evenodd"
   d="m 226.78568,742.76757 -54.22512,18.23778 c -35.06323,12.15852 -64.97567,-16.35908 -32.72249,-28.05407 l 26.17539,-9.34411 -98.632455,-31.33052 C 36.994899,702.56663 8.4787729,724.53999 10.3531,755.3983 c 1.869981,31.3204 73.38699,38.80466 128.55071,47.68813 51.4165,8.4113 98.16172,3.73706 140.70488,-11.2242 v -32.26192 z m 168.74878,120.62757 100.50242,-35.0676 -101.43667,-32.25463 v 64.98007 z"
   id="path9"
   style="fill:#f3c202;fill-opacity:1;fill-rule:evenodd" />
	<path
   clip-rule="evenodd"
   d="m 662.91715,769.42531 1.8685,-0.47074 c 43.94098,-15.42334 62.63936,-36.93754 57.96798,-57.03368 -7.4799,-33.65968 -61.23717,-51.89741 -143.97839,-57.97669 -59.36432,-4.20494 -117.79432,8.88207 -174.8237,28.51615 l -9.3499,3.27646 102.37241,31.79113 59.83219,-20.10628 c 62.6393,-11.68485 87.8862,8.88347 27.58184,28.05407 l -29.91827,10.2798 z m -383.30703,-148.67002 -45.3474,15.4234 45.3474,14.02701 z"
   id="path11"
   style="fill:#326db3;fill-opacity:1;fill-rule:evenodd" />
	<path
   clip-rule="evenodd"
   d="m 496.03688,828.32754 166.88027,-58.90223 -108.4502,-33.66978 -159.86674,54.70022 v 5.61716 z m -216.42676,-103.32405 -52.823,17.76557 52.823,16.83125 z m 114.99009,27.59201 v -66.85869 l 102.37241,31.79113 z M 166.01492,723.60717 279.60869,682.93251 V 650.2057 L 234.26272,636.17869 69.718853,691.81461 c -0.46787,0 -1.402132,0.46204 -2.336393,0.46204 z"
   id="path13"
   style="fill:#00aa9e;fill-opacity:1;fill-rule:evenodd" />
	
</g></g></svg>
