<?xml version="1.0" encoding="UTF-8" standalone="no"?>
<svg
   viewBox="0 0 1024 1024"
   version="1.1"
   id="svg16"
   sodipodi:docname="plutotv.svg"
   inkscape:version="1.4.4 (dcaf3e7d9e, 2026-05-05)"
   inkscape:export-filename="plutotv.png"
   inkscape:export-xdpi="48"
   inkscape:export-ydpi="48"
   width="1024"
   height="1024"
   xml:space="preserve"
   xmlns:inkscape="http://www.inkscape.org/namespaces/inkscape"
   xmlns:sodipodi="http://sodipodi.sourceforge.net/DTD/sodipodi-0.dtd"
   xmlns:xlink="http://www.w3.org/1999/xlink"
   xmlns="http://www.w3.org/2000/svg"
   xmlns:svg="http://www.w3.org/2000/svg"
   xmlns:bx="https://boxy-svg.com"><sodipodi:namedview
     id="namedview16"
     pagecolor="#ffffff"
     bordercolor="#000000"
     borderopacity="0.25"
     inkscape:showpageshadow="2"
     inkscape:pageopacity="0.0"
     inkscape:pagecheckerboard="0"
     inkscape:deskcolor="#d1d1d1"
     inkscape:zoom="0.066636527"
     inkscape:cx="-1740.787"
     inkscape:cy="1965.8888"
     inkscape:window-width="1920"
     inkscape:window-height="978"
     inkscape:window-x="0"
     inkscape:window-y="0"
     inkscape:window-maximized="1"
     inkscape:current-layer="svg16"
     showguides="true"><sodipodi:guide
       position="512,887.00002"
       orientation="0,-1"
       id="guide4"
       inkscape:locked="false" /><sodipodi:guide
       position="512,136.99998"
       orientation="0,-1"
       id="guide5"
       inkscape:locked="false" /><sodipodi:guide
       position="136.99986,512"
       orientation="1,0"
       id="guide6"
       inkscape:locked="false" /><sodipodi:guide
       position="887.00014,512"
       orientation="1,0"
       id="guide7"
       inkscape:locked="false" /></sodipodi:namedview><defs
     id="defs12"><linearGradient
       id="linearGradient63"
       inkscape:collect="always"><stop
         style="stop-color:#fff200;stop-opacity:1;"
         offset="0"
         id="stop63" /><stop
         style="stop-color:#d2c400;stop-opacity:1;"
         offset="1"
         id="stop64" /></linearGradient><filter
       id="shadow"
       bx:pinned="true"
       x="0"
       y="0"
       width="1"
       height="1"><title
         id="title1">Drop Shadow</title><feDropShadow
         result="drop-shadow-0"
         in="SourceGraphic"
         style="flood-opacity: 0.3;"
         stdDeviation="10"
         dx="0"
         dy="10" /></filter><bx:guide
       x="-10"
       y="100"
       angle="90" /><bx:guide
       x="100"
       y="-10"
       angle="0" /><bx:guide
       x="924"
       y="-10"
       angle="0" /><bx:guide
       x="-10"
       y="924"
       angle="90" /><clipPath
       id="clip-0"><path
         style="fill:#ffffff;stroke-width:3px"
         d="M 100,724 V 300 C 100,185.001 170,99.995 300.026,100 L 724,99.995 C 854,100 924,185.001 924,300 v 424 c 0,115.001 -70,199.995 -200,200 H 300.026 C 170,924 100,839.001 100,724 Z"
         id="path2"><title
           id="title2">Icon Mask</title></path></clipPath><symbol
       id="symbol-0"
       viewBox="0 0 1024 1024"
       bx:pinned="true"><title
         id="title3">App Icon Guides</title><g
         id="g12"><title
           id="title4">App Icon Guides</title><path
           style="fill:none;stroke:#919191;stroke-width:3px"
           d="m 0,739.001 v -454 C 0,135.001 112,0 284.999,0 H 739.001 C 912,0 1024,135.001 1024,285.001 v 454 C 1024,889.001 912,1024 739.001,1024 H 284.999 C 112,1024 0,889.001 0,739.001 Z"
           id="path5"><title
             id="title5">Outer Bounding Box</title></path><path
           style="fill:none;stroke:#919191;stroke-width:3px"
           d="m 50,739.001 v -454 C 50,162 140,50 284.999,50 H 739.001 C 884.001,50 974,162 974,285.001 v 454 C 974,862 884.001,974 739.001,974 H 284.999 C 140,974 50,862 50,739.001 Z"
           id="path6"><title
             id="title6">Inner Bounding Box</title></path><path
           style="fill:none;stroke:#ff0000;stroke-width:3px"
           d="m 100,724.005 v -424 C 100,185.006 170,100 300.026,100.005 L 724,100 c 130,0.005 200,85.006 200,200.005 v 424 c 0,115.001 -70,199.995 -200,200 H 300.026 C 170,924.005 100,839.006 100,724.005 Z"
           id="path7"><title
             id="title7">Icon Grid Bounding Box</title></path><path
           style="fill:none;stroke:#ff0000"
           d="M 154.017,870.001 H 870.001 V 154.014 H 154.017 Z m 0,0 715.984,-715.987 z M 100,511.995 h 824 z m 0,157.365 H 924 Z M 924,354.631 H 100 Z M 669.365,99.995 v 824 z m -314.73,824 v -824 z M 512,99.995 v 824 z m -357.983,54.019 715.984,715.987 z"
           id="path8"><title
             id="title8">Icon Grid</title></path><circle
           style="fill:none"
           cx="512"
           cy="511.995"
           r="157.397"
           id="circle9"><title
             id="title9">Grid Circle 1</title></circle><circle
           style="fill:none"
           cx="512"
           cy="511.995"
           r="222.577"
           id="circle10"><title
             id="title10">Grid Circle 2</title></circle><circle
           style="fill:none"
           cx="512"
           cy="511.995"
           r="358.00101"
           id="circle11"><title
             id="title11">Grid Circle 3</title></circle><path
           d="m 1084.343,548.001 h -941 c -28.719,0 -52,-23.281 -52,-52 0,-28.719 23.281,-52 52,-52 h 941 c 28.719,0 52,23.281 52,52 0,28.719 -23.281,52 -52,52 z m 51.957,-51.962 -1045,-0.078"
           style="stroke:#0077ff;stroke-width:5px;stroke-dasharray:24, 10"
           transform="rotate(-64.504252,613.82146,496.00118)"
           id="path12"><title
             id="title12">Tool Angle</title></path></g></symbol><linearGradient
       inkscape:collect="always"
       xlink:href="#linearGradient63"
       id="linearGradient64"
       x1="576.76422"
       y1="51.5"
       x2="576.76422"
       y2="972.5"
       gradientUnits="userSpaceOnUse"
       gradientTransform="matrix(1.0029383,0,0,1.0029383,-1.5044074,-1.5044074)" /><filter
       style="color-interpolation-filters:sRGB"
       inkscape:label="Drop Shadow"
       id="filter69"
       x="0"
       y="0"
       width="1.0057613"
       height="1.0098504"><feFlood
         result="flood"
         in="SourceGraphic"
         flood-opacity="0.498039"
         flood-color="rgb(0,0,0)"
         id="feFlood68" /><feGaussianBlur
         result="blur"
         in="SourceGraphic"
         stdDeviation="0.000000"
         id="feGaussianBlur68" /><feOffset
         result="offset"
         in="blur"
         dx="3.000000"
         dy="6.000000"
         id="feOffset68" /><feComposite
         result="comp1"
         operator="in"
         in="flood"
         in2="offset"
         id="feComposite68" /><feComposite
         result="comp2"
         operator="over"
         in="SourceGraphic"
         in2="comp1"
         id="feComposite69" /></filter></defs><path
     id="path63"
     style="baseline-shift:baseline;display:inline;overflow:visible;vector-effect:none;fill:url(#linearGradient64);fill-opacity:1;stroke-width:1.00294;paint-order:markers fill stroke;enable-background:accumulate;stop-color:#000000"
     d="M 284.33105,0 C 111.60637,0 0,134.64308 0,284.33496 V 739.66895 C 0,889.36084 111.60636,1024 284.33105,1024 h 455.3379 C 912.39364,1024 1024,889.36084 1024,739.66895 V 284.33496 C 1024,134.64308 912.39363,0 739.66895,0 Z m 545.53183,65.882468 c 17.8755,6.750901 34.25776,15.510275 49.04799,25.952987 C 864.12063,81.392726 847.73839,72.63338 829.86288,65.882468 Z M 111.75514,903.0284 c 5.7006,6.1289 11.77245,11.94491 18.20568,17.41039 -6.43365,-5.46582 -12.50476,-11.28108 -18.20568,-17.41039 z" /><path
     id="path2-3"
     style="fill:#000000;fill-opacity:1;stroke-width:187.5"
     d="M 416.30497,232.69488 A 279.30424,279.30424 0 0 0 136.99986,512 279.30424,279.30424 0 0 0 416.30497,791.3051 279.30424,279.30424 0 0 0 688.40507,571.79877 c -7.30492,2.87128 -15.23085,4.49585 -23.55478,4.49585 -35.62101,0 -64.50007,-28.86933 -64.50007,-64.49035 0,-35.62102 28.87906,-64.50004 64.50007,-64.50004 8.55338,0 16.69601,1.69709 24.16522,4.72064 A 279.30424,279.30424 0 0 0 416.30497,232.69488 Z m 343.46799,139.31925 -25.51403,10.30752 v 15.89054 h -17.59586 v 22.37463 h 17.59586 v 41.38127 c 0,22.23862 12.5948,35.55408 36.11801,35.55408 h 17.342 v -23.39395 h -14.10769 c -9.71961,0 -13.85187,-5.30321 -13.85187,-13.8519 v -39.6895 h 31.90508 l 31.81012,76.93535 h 22.21378 l 41.3115,-99.91266 h -27.56812 l -24.84351,64.86823 -24.60316,-64.26555 H 759.77296 Z M 356.06243,417.17617 V 573.85485 H 319.89791 V 431.78964 Z m 205.40059,0 v 32.56977 h 30.04858 v 33.22865 h -30.04859 v 39.94142 c 0,12.24906 5.46116,17.70825 17.70825,17.70825 h 12.34034 v 33.23059 h -17.96208 c -14.93525,0 -27.22692,-4.38021 -35.54635,-12.66785 -8.31938,-8.28765 -12.70468,-20.49782 -12.70468,-35.33706 V 482.97459 H 503.044 v -33.22865 h 22.25449 v -17.9563 z m -315.77388,30.1358 c 33.62862,0 59.97318,28.38432 59.97318,64.61439 0,17.32413 -6.04945,33.46959 -17.03388,45.46241 -10.98134,12.10833 -26.59319,18.97565 -42.9393,18.89811 -13.95069,0 -26.12683,-4.0569 -35.53278,-12.54383 v 42.67963 H 173.99959 V 461.88863 l 29.24246,-11.80937 4.98807,12.07873 c 9.53242,-9.73965 22.34898,-14.84602 37.45902,-14.84602 z m 243.19098,2.45529 v 67.89712 c 0.0702,20.99494 -11.08555,40.4287 -29.25602,50.94659 -18.17048,10.51789 -40.58378,10.51789 -58.75426,0 -18.17048,-10.51789 -29.32624,-29.95165 -29.25602,-50.94659 V 465.6229 l 35.91647,-14.5127 v 67.59289 c 0,12.54553 10.17405,22.71958 22.71959,22.71958 12.54553,0 22.71377,-10.17405 22.71377,-22.71958 v -54.42312 z m -248.71973,32.40893 c -16.61899,0 -30.09123,13.26798 -30.09123,29.62808 0,16.3601 13.47224,29.6184 30.09123,29.6184 16.6223,0 30.09318,-13.25896 30.09318,-29.6184 0,-16.35945 -13.47418,-29.62808 -30.09318,-29.62808 z m 424.6899,0 c -16.3599,0 -29.62811,13.2682 -29.62811,29.62808 0,16.35989 13.26821,29.6184 29.62811,29.6184 7.85635,0 15.38537,-3.12444 20.94061,-8.67972 5.55529,-5.55527 8.67971,-13.08233 8.67971,-20.93868 0,-16.35988 -13.26047,-29.62808 -29.62032,-29.62808 z" /></svg>
