<?xml version="1.0" encoding="UTF-8" standalone="no"?>
<svg
   viewBox="0 0 1024 1024"
   version="1.1"
   id="svg16"
   sodipodi:docname="rtve_play.svg"
   inkscape:version="1.4.4 (dcaf3e7d9e, 2026-05-05)"
   inkscape:export-filename="../app-icons/rtve-play.png"
   inkscape:export-xdpi="48"
   inkscape:export-ydpi="48"
   width="1024"
   height="1024"
   xml:space="preserve"
   xmlns:inkscape="http://www.inkscape.org/namespaces/inkscape"
   xmlns:sodipodi="http://sodipodi.sourceforge.net/DTD/sodipodi-0.dtd"
   xmlns:xlink="http://www.w3.org/1999/xlink"
   xmlns="http://www.w3.org/2000/svg"
   xmlns:svg="http://www.w3.org/2000/svg"
   xmlns:bx="https://boxy-svg.com"><sodipodi:namedview
     id="namedview16"
     pagecolor="#ffffff"
     bordercolor="#000000"
     borderopacity="0.25"
     inkscape:showpageshadow="2"
     inkscape:pageopacity="0.0"
     inkscape:pagecheckerboard="0"
     inkscape:deskcolor="#d1d1d1"
     inkscape:zoom="0.37695312"
     inkscape:cx="-233.45078"
     inkscape:cy="612.8083"
     inkscape:window-width="1920"
     inkscape:window-height="978"
     inkscape:window-x="0"
     inkscape:window-y="0"
     inkscape:window-maximized="1"
     inkscape:current-layer="svg16"
     showguides="true"><sodipodi:guide
       position="512,887.00002"
       orientation="0,-1"
       id="guide4"
       inkscape:locked="false" /><sodipodi:guide
       position="512,136.99998"
       orientation="0,-1"
       id="guide5"
       inkscape:locked="false" /><sodipodi:guide
       position="136.99986,512"
       orientation="1,0"
       id="guide6"
       inkscape:locked="false" /><sodipodi:guide
       position="887.00014,512"
       orientation="1,0"
       id="guide7"
       inkscape:locked="false" /></sodipodi:namedview><defs
     id="defs12"><linearGradient
       id="linearGradient63"
       inkscape:collect="always"><stop
         style="stop-color:#303030;stop-opacity:1;"
         offset="0"
         id="stop63" /><stop
         style="stop-color:#000000;stop-opacity:1;"
         offset="1"
         id="stop64" /></linearGradient><filter
       id="shadow"
       bx:pinned="true"
       x="0"
       y="0"
       width="1"
       height="1"><title
         id="title1">Drop Shadow</title><feDropShadow
         result="drop-shadow-0"
         in="SourceGraphic"
         style="flood-opacity: 0.3;"
         stdDeviation="10"
         dx="0"
         dy="10" /></filter><bx:guide
       x="-10"
       y="100"
       angle="90" /><bx:guide
       x="100"
       y="-10"
       angle="0" /><bx:guide
       x="924"
       y="-10"
       angle="0" /><bx:guide
       x="-10"
       y="924"
       angle="90" /><clipPath
       id="clip-0"><path
         style="fill:#ffffff;stroke-width:3px"
         d="M 100,724 V 300 C 100,185.001 170,99.995 300.026,100 L 724,99.995 C 854,100 924,185.001 924,300 v 424 c 0,115.001 -70,199.995 -200,200 H 300.026 C 170,924 100,839.001 100,724 Z"
         id="path2"><title
           id="title2">Icon Mask</title></path></clipPath><symbol
       id="symbol-0"
       viewBox="0 0 1024 1024"
       bx:pinned="true"><title
         id="title3">App Icon Guides</title><g
         id="g12"><title
           id="title4">App Icon Guides</title><path
           style="fill:none;stroke:#919191;stroke-width:3px"
           d="m 0,739.001 v -454 C 0,135.001 112,0 284.999,0 H 739.001 C 912,0 1024,135.001 1024,285.001 v 454 C 1024,889.001 912,1024 739.001,1024 H 284.999 C 112,1024 0,889.001 0,739.001 Z"
           id="path5"><title
             id="title5">Outer Bounding Box</title></path><path
           style="fill:none;stroke:#919191;stroke-width:3px"
           d="m 50,739.001 v -454 C 50,162 140,50 284.999,50 H 739.001 C 884.001,50 974,162 974,285.001 v 454 C 974,862 884.001,974 739.001,974 H 284.999 C 140,974 50,862 50,739.001 Z"
           id="path6"><title
             id="title6">Inner Bounding Box</title></path><path
           style="fill:none;stroke:#ff0000;stroke-width:3px"
           d="m 100,724.005 v -424 C 100,185.006 170,100 300.026,100.005 L 724,100 c 130,0.005 200,85.006 200,200.005 v 424 c 0,115.001 -70,199.995 -200,200 H 300.026 C 170,924.005 100,839.006 100,724.005 Z"
           id="path7"><title
             id="title7">Icon Grid Bounding Box</title></path><path
           style="fill:none;stroke:#ff0000"
           d="M 154.017,870.001 H 870.001 V 154.014 H 154.017 Z m 0,0 715.984,-715.987 z M 100,511.995 h 824 z m 0,157.365 H 924 Z M 924,354.631 H 100 Z M 669.365,99.995 v 824 z m -314.73,824 v -824 z M 512,99.995 v 824 z m -357.983,54.019 715.984,715.987 z"
           id="path8"><title
             id="title8">Icon Grid</title></path><circle
           style="fill:none"
           cx="512"
           cy="511.995"
           r="157.397"
           id="circle9"><title
             id="title9">Grid Circle 1</title></circle><circle
           style="fill:none"
           cx="512"
           cy="511.995"
           r="222.577"
           id="circle10"><title
             id="title10">Grid Circle 2</title></circle><circle
           style="fill:none"
           cx="512"
           cy="511.995"
           r="358.00101"
           id="circle11"><title
             id="title11">Grid Circle 3</title></circle><path
           d="m 1084.343,548.001 h -941 c -28.719,0 -52,-23.281 -52,-52 0,-28.719 23.281,-52 52,-52 h 941 c 28.719,0 52,23.281 52,52 0,28.719 -23.281,52 -52,52 z m 51.957,-51.962 -1045,-0.078"
           style="stroke:#0077ff;stroke-width:5px;stroke-dasharray:24, 10"
           transform="rotate(-64.504252,613.82146,496.00118)"
           id="path12"><title
             id="title12">Tool Angle</title></path></g></symbol><linearGradient
       inkscape:collect="always"
       xlink:href="#linearGradient63"
       id="linearGradient64"
       x1="576.76422"
       y1="51.5"
       x2="576.76422"
       y2="972.5"
       gradientUnits="userSpaceOnUse"
       gradientTransform="matrix(1.0029383,0,0,1.0029383,-1.5044074,-1.5044074)" /><filter
       style="color-interpolation-filters:sRGB"
       inkscape:label="Drop Shadow"
       id="filter69"
       x="0"
       y="0"
       width="1.0057613"
       height="1.0098504"><feFlood
         result="flood"
         in="SourceGraphic"
         flood-opacity="0.498039"
         flood-color="rgb(0,0,0)"
         id="feFlood68" /><feGaussianBlur
         result="blur"
         in="SourceGraphic"
         stdDeviation="0.000000"
         id="feGaussianBlur68" /><feOffset
         result="offset"
         in="blur"
         dx="3.000000"
         dy="6.000000"
         id="feOffset68" /><feComposite
         result="comp1"
         operator="in"
         in="flood"
         in2="offset"
         id="feComposite68" /><feComposite
         result="comp2"
         operator="over"
         in="SourceGraphic"
         in2="comp1"
         id="feComposite69" /></filter><linearGradient
       id="SVGID_2_"
       gradientUnits="userSpaceOnUse"
       x1="13.3229"
       y1="885.89117"
       x2="56.284"
       y2="842.93011"
       gradientTransform="matrix(10.523649,0,0,10.523649,145.7957,-8743.907)">
	<stop
   offset="0"
   style="stop-color:#F5A717"
   id="stop8" />
	<stop
   offset="1"
   style="stop-color:#E6511F"
   id="stop9" />
</linearGradient><linearGradient
       id="SVGID_1_"
       gradientUnits="userSpaceOnUse"
       x1="81.148598"
       y1="37.946999"
       x2="234.5256"
       y2="37.946999">
	<stop
   offset="3.067093e-07"
   style="stop-color:#F18601"
   id="stop1" />
	<stop
   offset="0.3926"
   style="stop-color:#D5561B"
   id="stop2" />
	<stop
   offset="0.4792"
   style="stop-color:#D04D20"
   id="stop3" />
	<stop
   offset="0.6218"
   style="stop-color:#C4342F"
   id="stop4" />
	<stop
   offset="0.7148"
   style="stop-color:#BA203B"
   id="stop5" />
	<stop
   offset="0.8255"
   style="stop-color:#CC2E2A"
   id="stop6" />
	<stop
   offset="1"
   style="stop-color:#E54213"
   id="stop7" />
</linearGradient><radialGradient
       id="SVGID_3_"
       cx="203.47"
       cy="74.626297"
       r="30.176399"
       gradientUnits="userSpaceOnUse">
	<stop
   offset="0"
   style="stop-color:#6BA12F"
   id="stop10" />
	<stop
   offset="0.3042"
   style="stop-color:#6D9F2F;stop-opacity:0.6958"
   id="stop11" />
	<stop
   offset="0.4755"
   style="stop-color:#729630;stop-opacity:0.5245"
   id="stop12" />
	<stop
   offset="0.6137"
   style="stop-color:#7C8931;stop-opacity:0.3863"
   id="stop13" />
	<stop
   offset="0.7343"
   style="stop-color:#897532;stop-opacity:0.2657"
   id="stop14" />
	<stop
   offset="0.8434"
   style="stop-color:#9B5B34;stop-opacity:0.1566"
   id="stop15" />
	<stop
   offset="0.9427"
   style="stop-color:#B03D36;stop-opacity:5.727428e-02"
   id="stop16" />
	<stop
   offset="1"
   style="stop-color:#BF2737;stop-opacity:0"
   id="stop17" />
</radialGradient><radialGradient
       id="SVGID_4_"
       cx="104.2308"
       cy="84.022102"
       r="54.242901"
       gradientUnits="userSpaceOnUse">
		<stop
   offset="0"
   style="stop-color:#BB0AFF"
   id="stop18" />
		<stop
   offset="0.3204"
   style="stop-color:#BB0BFD;stop-opacity:0.6796"
   id="stop19" />
		<stop
   offset="0.4615"
   style="stop-color:#BC0DF6;stop-opacity:0.5385"
   id="stop20" />
		<stop
   offset="0.5673"
   style="stop-color:#BE11E9;stop-opacity:0.4327"
   id="stop21" />
		<stop
   offset="0.6557"
   style="stop-color:#C017D7;stop-opacity:0.3443"
   id="stop22" />
		<stop
   offset="0.733"
   style="stop-color:#C21FC0;stop-opacity:0.267"
   id="stop23" />
		<stop
   offset="0.8027"
   style="stop-color:#C529A3;stop-opacity:0.1973"
   id="stop24" />
		<stop
   offset="0.8667"
   style="stop-color:#C93481;stop-opacity:0.1333"
   id="stop25" />
		<stop
   offset="0.9261"
   style="stop-color:#CE4159;stop-opacity:7.388669e-02"
   id="stop26" />
		<stop
   offset="0.9799"
   style="stop-color:#D3502D;stop-opacity:2.009726e-02"
   id="stop27" />
		<stop
   offset="1"
   style="stop-color:#D5561B;stop-opacity:0"
   id="stop28" />
	</radialGradient><radialGradient
       id="SVGID_5_"
       cx="109.4664"
       cy="83.871201"
       r="54.242901"
       gradientUnits="userSpaceOnUse">
		<stop
   offset="0"
   style="stop-color:#BB0AFF"
   id="stop29" />
		<stop
   offset="0.3168"
   style="stop-color:#BC0BFD;stop-opacity:0.6832"
   id="stop30" />
		<stop
   offset="0.454"
   style="stop-color:#BD0DF6;stop-opacity:0.546"
   id="stop31" />
		<stop
   offset="0.5564"
   style="stop-color:#C110E9;stop-opacity:0.4436"
   id="stop32" />
		<stop
   offset="0.6416"
   style="stop-color:#C615D7;stop-opacity:0.3584"
   id="stop33" />
		<stop
   offset="0.7162"
   style="stop-color:#CC1CC0;stop-opacity:0.2838"
   id="stop34" />
		<stop
   offset="0.7832"
   style="stop-color:#D323A3;stop-opacity:0.2168"
   id="stop35" />
		<stop
   offset="0.8446"
   style="stop-color:#DC2D81;stop-opacity:0.1554"
   id="stop36" />
		<stop
   offset="0.9018"
   style="stop-color:#E7385A;stop-opacity:9.824240e-02"
   id="stop37" />
		<stop
   offset="0.9533"
   style="stop-color:#F3442E;stop-opacity:4.672241e-02"
   id="stop38" />
		<stop
   offset="1"
   style="stop-color:#FF5100;stop-opacity:0"
   id="stop39" />
	</radialGradient></defs><path
     id="path63"
     style="baseline-shift:baseline;display:inline;overflow:visible;vector-effect:none;fill:url(#linearGradient64);fill-opacity:1;stroke-width:1.00294;paint-order:markers fill stroke;enable-background:accumulate;stop-color:#000000"
     d="M 284.33105,0 C 111.60637,0 0,134.64308 0,284.33496 V 739.66895 C 0,889.36084 111.60636,1024 284.33105,1024 h 455.3379 C 912.39364,1024 1024,889.36084 1024,739.66895 V 284.33496 C 1024,134.64308 912.39363,0 739.66895,0 Z m 545.53183,65.882468 c 17.8755,6.750901 34.25776,15.510275 49.04799,25.952987 C 864.12063,81.392726 847.73839,72.63338 829.86288,65.882468 Z M 111.75514,903.0284 c 5.7006,6.1289 11.77245,11.94491 18.20568,17.41039 -6.43365,-5.46582 -12.50476,-11.28108 -18.20568,-17.41039 z" /><g
     id="g1"
     transform="matrix(0.86666662,0,0,0.86666662,65.514357,68.26669)"><path
       class="st1"
       d="m 207.88521,428.50509 c 0,16.83782 -9.47127,24.20436 -30.51856,24.20436 -21.04729,0 -31.57096,-8.41889 -31.57096,-24.20436 V 231.71285 c 0,-17.89021 8.41893,-25.2568 27.36149,-25.2568 16.83782,0 23.15202,4.20946 27.36149,18.9426 1.05234,3.15708 2.10473,4.20947 4.20947,4.20947 1.05234,0 2.10473,-1.05239 6.3142,-4.20947 12.62835,-11.57601 32.6233,-18.9426 53.67058,-18.9426 12.62836,0 18.94256,6.3142 18.94256,19.99494 0,31.57096 -6.3142,43.14697 -21.04729,43.14697 -36.83277,0 -54.72298,19.99495 -53.67059,62.08952 z m 96.81756,-266.24835 c 0,-16.83783 9.47128,-25.25676 30.51861,-25.25676 22.09963,0 31.57091,8.41893 31.57091,25.25676 v 35.78042 c 0,7.36654 2.10473,9.47128 9.47133,9.47128 h 16.83782 c 16.83782,0 24.20441,9.47127 24.20441,29.46622 0,19.99495 -8.41893,29.46622 -24.20441,29.46622 h -15.78543 c -6.3142,0 -9.47133,3.15708 -9.47133,9.47128 v 75.77027 c 0,33.67569 10.52362,50.51351 32.62335,50.51351 5.26181,0 10.52362,-1.05234 25.25671,-2.10473 1.05234,-1.05235 3.15712,-1.05235 5.26181,-1.05235 10.52371,0 15.78552,5.26181 15.78552,18.94256 0,24.20441 -21.04733,37.88515 -57.88005,37.88515 -54.72303,0 -83.13686,-36.83276 -83.13686,-107.34122 V 162.25674 Z m 276.77197,79.97973 c 9.47128,-28.41383 16.83787,-35.78042 36.83281,-35.78042 18.94256,0 28.41384,7.36659 28.41384,21.04733 0,3.15708 -1.0524,5.26181 -2.10474,10.52362 L 579.37,416.92907 c -9.47127,27.36145 -17.89021,34.72804 -36.83271,34.72804 -19.99495,0 -27.36154,-6.3142 -36.83282,-34.72804 L 440.45787,238.027 c -2.10473,-5.26181 -2.10473,-7.36654 -2.10473,-10.52362 0,-13.68074 9.47128,-21.04733 28.41383,-21.04733 19.99495,0 27.36149,6.3142 36.83277,35.78042 l 32.62334,95.76521 c 1.0523,4.20947 3.15708,6.3142 6.31421,6.3142 3.15707,0 5.26181,-2.10473 6.31415,-6.3142 z m 136.80745,141.01691 c -6.31416,0 -8.41894,2.10474 -8.41894,7.36655 0,49.46117 31.57096,79.97973 84.1892,79.97973 18.9426,0 31.57101,-3.15707 54.72303,-12.6284 8.41893,-3.15708 11.57601,-4.20942 14.73309,-4.20942 8.41893,0 14.73313,7.36655 14.73313,18.94256 0,29.46622 -39.98989,52.61824 -93.66048,52.61824 -87.34632,0 -135.7551,-56.82771 -135.7551,-157.85473 0,-99.97468 47.35643,-159.95947 124.17909,-159.95947 66.29899,0 111.55064,50.51351 111.55064,126.28378 0,37.88515 -9.47122,49.46116 -42.09457,49.46116 z m 97.86994,-50.51351 c 6.3142,0 8.41894,-2.10473 8.41894,-9.47127 0,-46.3041 -19.99495,-70.50846 -54.72298,-70.50846 -34.72804,0 -57.88006,29.46622 -57.88006,72.61319 0,4.20942 3.15713,6.31415 8.41894,6.31415 -2.10478,1.05239 95.76516,1.05239 95.76516,1.05239 z"
       id="path9"
       style="fill:url(#SVGID_2_);stroke-width:10.5236" /><g
       id="g40"
       transform="matrix(4.7651829,0,0,4.7651829,-242.56671,525.32264)"><path
         class="st0"
         d="m 137.4,26.2 v 14 c 0,6.3 2.1,9.4 6.3,9.4 1,0 2.1,-0.1 4.8,-0.4 0.3,-0.1 0.6,-0.1 0.9,-0.1 2.1,0 3,1 3,3.5 0,4.6 -4,7.1 -11.1,7.1 -10.4,0 -15.8,-6.8 -15.8,-20.1 V 4.7 c 0,-3.2 1.9,-4.7 5.9,-4.7 4.1,0 6,1.5 6,4.7 v 6.7 z m 92.1,-16.1 c -3.8,0 -5.2,1.3 -7.1,6.7 l -6.2,18 c -0.2,0.7 -0.7,1.1 -1.2,1.1 -0.7,0 -1,-0.4 -1.3,-1.1 l -6.2,-18 c -1.9,-5.4 -3.2,-6.7 -7,-6.7 -3.5,0 -5.4,1.4 -5.4,4 0,0.7 0.1,1.1 0.5,2.1 L 208,49.7 c 0.5,1.3 0.9,2.4 1.4,3.2 l -2.3,6.4 c -2,5.5 -4.7,7.4 -8.3,6.1 -0.9,-0.3 -1.7,-0.7 -4,-1.9 -0.2,-0.2 -0.5,-0.3 -0.8,-0.4 -1.8,-0.6 -2.9,-0.1 -3.7,2 -1.4,3.9 1.2,7.4 7.3,9.6 9,3.3 15.7,-0.9 19.9,-12.3 l 4.2,-11.3 c 0.2,-0.5 0.4,-0.9 0.6,-1.5 l 12.4,-33.5 c 0.4,-1.1 0.5,-1.4 0.5,-2.1 -0.3,-2.5 -2.2,-3.9 -5.7,-3.9 z m -115.7,6.2 c -2.6,-3.9 -6.4,-5.9 -11.3,-5.9 -2.1,0 -4.1,0.4 -5.8,1.1 -1.4,0.6 -2.8,1.4 -4.2,2.6 -0.3,-2.5 -2,-3.7 -5.5,-3.7 -3.7,0 -5.5,1.4 -5.5,4.3 v 9.6 0.9 45.1 c 0,3.1 2.5,5.6 5.6,5.6 v 0 c 3.1,0 5.6,-2.5 5.6,-5.6 v -15 c 0.8,0.4 1.5,0.8 2.2,1 0.7,0.3 1.4,0.5 2.1,0.7 0.7,0.2 1.4,0.3 2.2,0.4 0.8,0.1 1.6,0.1 2.5,0.1 10.7,0 16,-8.1 16,-24.3 0,-7.3 -1.3,-13 -3.9,-16.9 z m -7.7,24.6 c -0.3,2 -0.7,3.5 -1.3,4.8 -0.6,1.2 -1.4,2.1 -2.4,2.6 -1,0.5 -2.2,0.8 -3.6,0.8 -0.6,0 -1.2,0 -1.7,-0.1 -0.5,-0.1 -1,-0.2 -1.5,-0.3 -0.5,-0.1 -1,-0.3 -1.4,-0.5 -0.5,-0.2 -1,-0.5 -1.6,-0.8 V 22.7 c 1.3,-1.2 2.4,-2 3.4,-2.5 1,-0.5 2.2,-0.7 3.4,-0.7 2.4,0 4.2,1.1 5.3,3.4 1.1,2.3 1.7,5.9 1.7,10.8 0.1,2.8 0,5.2 -0.3,7.2 z M 179.7,56 c 0,2.1 1.7,3.7 3.7,3.7 h 3.2 c 2.1,0 3.7,-1.7 3.7,-3.7 V 50.3 47.9 45.1 36 35.8 33.7 c 0,-15 -6.7,-23.6 -18.8,-23.6 -7.6,0 -13.7,3.6 -13.7,8.4 0,2.1 1.1,3.6 2.8,3.6 0.6,0 1.2,-0.2 2.3,-0.6 3,-1.3 4.6,-1.7 6.9,-1.7 6.5,0 10.4,4 10.4,10.6 v 0.1 h -0.5 c -1.2,0 -2.3,0.1 -3.3,0.1 -1,0 -1.9,0.1 -2.7,0.2 -0.8,0.1 -1.5,0.1 -2.2,0.2 -0.7,0.1 -1.3,0.2 -1.9,0.3 -4.5,0.9 -7.9,2.6 -10,4.9 -2.2,2.4 -3.2,5.6 -3.2,9.6 0,2.1 0.3,4 0.9,5.7 0.6,1.7 1.5,3.1 2.7,4.3 1.1,1.2 2.5,2.1 4.2,2.8 1.7,0.7 3.5,1 5.6,1 1.2,0 2.2,-0.1 3.2,-0.3 1,-0.2 1.9,-0.5 2.9,-0.9 0.9,-0.4 1.8,-0.9 2.7,-1.6 0.3,-0.1 0.7,-0.5 1.1,-0.8 m 0,-7.9 c -2.1,2.3 -4.4,3.5 -6.8,3.5 -0.8,0 -1.5,-0.2 -2.2,-0.5 -0.7,-0.3 -1.3,-0.8 -1.8,-1.3 -0.5,-0.5 -0.9,-1.2 -1.2,-2 -0.3,-0.8 -0.4,-1.6 -0.4,-2.5 0,-1.3 0.2,-2.5 0.7,-3.4 0.5,-0.9 1.2,-1.7 2.2,-2.2 1,-0.6 2.3,-1 3.9,-1.3 1.6,-0.3 3.5,-0.4 5.7,-0.4 v 10.1 z"
         id="path7-3"
         style="fill:url(#SVGID_1_)" /><path
         class="st2"
         d="m 229.5,10.1 c -3.8,0 -5.2,1.3 -7.1,6.7 l -6.2,18 c -0.2,0.7 -0.7,1.1 -1.2,1.1 -0.7,0 -1,-0.4 -1.3,-1.1 l -6.2,-18 c -1.9,-5.4 -3.2,-6.7 -7,-6.7 -3.5,0 -5.4,1.4 -5.4,4 0,0.7 0.1,1.1 0.5,2.1 L 208,49.7 c 0.5,1.3 0.9,2.4 1.4,3.2 l -2.3,6.4 c -2,5.5 -4.7,7.4 -8.3,6.1 -0.9,-0.3 -1.7,-0.7 -4,-1.9 -0.2,-0.2 -0.5,-0.3 -0.8,-0.4 -1.8,-0.6 -2.9,-0.1 -3.7,2 -1.4,3.9 1.2,7.4 7.3,9.6 9,3.3 15.7,-0.9 19.9,-12.3 l 4.2,-11.3 c 0.2,-0.5 0.4,-0.9 0.6,-1.5 l 12.4,-33.5 c 0.4,-1.1 0.5,-1.4 0.5,-2.1 -0.3,-2.5 -2.2,-3.9 -5.7,-3.9 z"
         id="path17"
         style="fill:url(#SVGID_3_)" /><g
         id="g39">
	<radialGradient
   id="radialGradient50"
   cx="104.2308"
   cy="84.022102"
   r="54.242901"
   gradientUnits="userSpaceOnUse">
		<stop
   offset="0"
   style="stop-color:#BB0AFF"
   id="stop40" />
		<stop
   offset="0.3204"
   style="stop-color:#BB0BFD;stop-opacity:0.6796"
   id="stop41" />
		<stop
   offset="0.4615"
   style="stop-color:#BC0DF6;stop-opacity:0.5385"
   id="stop42" />
		<stop
   offset="0.5673"
   style="stop-color:#BE11E9;stop-opacity:0.4327"
   id="stop43" />
		<stop
   offset="0.6557"
   style="stop-color:#C017D7;stop-opacity:0.3443"
   id="stop44" />
		<stop
   offset="0.733"
   style="stop-color:#C21FC0;stop-opacity:0.267"
   id="stop45" />
		<stop
   offset="0.8027"
   style="stop-color:#C529A3;stop-opacity:0.1973"
   id="stop46" />
		<stop
   offset="0.8667"
   style="stop-color:#C93481;stop-opacity:0.1333"
   id="stop47" />
		<stop
   offset="0.9261"
   style="stop-color:#CE4159;stop-opacity:7.388669e-02"
   id="stop48" />
		<stop
   offset="0.9799"
   style="stop-color:#D3502D;stop-opacity:2.009726e-02"
   id="stop49" />
		<stop
   offset="1"
   style="stop-color:#D5561B;stop-opacity:0"
   id="stop50" />
	</radialGradient>
	<path
   class="st3"
   d="m 102.5,10.4 c -2.1,0 -4.1,0.4 -5.8,1.1 -1.4,0.6 -2.8,1.4 -4.2,2.6 -0.3,-2.5 -2,-3.7 -5.5,-3.7 -3.7,0 -5.5,1.4 -5.5,4.3 v 9.6 0.9 45.1 c 0,3.1 2.5,5.6 5.6,5.6 3.1,0 5.6,-2.5 5.6,-5.6 v -15 c 0.8,0.4 1.5,0.8 2.2,1 0.7,0.3 1.4,0.5 2.1,0.7 0.7,0.2 1.4,0.3 2.2,0.4 0.8,0.1 1.6,0.1 2.5,0.1 10.7,0 16,-8.1 16,-24.3 0,-7.4 -1.3,-13.1 -3.9,-17 -2.6,-3.8 -6.4,-5.8 -11.3,-5.8 z m 3.6,30.5 c -0.3,2 -0.7,3.5 -1.3,4.8 -0.6,1.2 -1.4,2.1 -2.4,2.6 -1,0.5 -2.2,0.8 -3.6,0.8 -0.6,0 -1.2,0 -1.7,-0.1 -0.5,-0.1 -1,-0.2 -1.5,-0.3 -0.5,-0.1 -1,-0.3 -1.4,-0.5 -0.5,-0.2 -1,-0.5 -1.6,-0.8 V 22.7 c 1.3,-1.2 2.4,-2 3.4,-2.5 1,-0.5 2.2,-0.7 3.4,-0.7 2.4,0 4.2,1.1 5.3,3.4 1.1,2.3 1.7,5.9 1.7,10.8 0.1,2.8 0,5.2 -0.3,7.2 z"
   id="path28"
   style="fill:url(#SVGID_4_)" />
	<radialGradient
   id="radialGradient61"
   cx="109.4664"
   cy="83.871201"
   r="54.242901"
   gradientUnits="userSpaceOnUse">
		<stop
   offset="0"
   style="stop-color:#BB0AFF"
   id="stop51" />
		<stop
   offset="0.3168"
   style="stop-color:#BC0BFD;stop-opacity:0.6832"
   id="stop52" />
		<stop
   offset="0.454"
   style="stop-color:#BD0DF6;stop-opacity:0.546"
   id="stop53" />
		<stop
   offset="0.5564"
   style="stop-color:#C110E9;stop-opacity:0.4436"
   id="stop54" />
		<stop
   offset="0.6416"
   style="stop-color:#C615D7;stop-opacity:0.3584"
   id="stop55" />
		<stop
   offset="0.7162"
   style="stop-color:#CC1CC0;stop-opacity:0.2838"
   id="stop56" />
		<stop
   offset="0.7832"
   style="stop-color:#D323A3;stop-opacity:0.2168"
   id="stop57" />
		<stop
   offset="0.8446"
   style="stop-color:#DC2D81;stop-opacity:0.1554"
   id="stop58" />
		<stop
   offset="0.9018"
   style="stop-color:#E7385A;stop-opacity:9.824240e-02"
   id="stop59" />
		<stop
   offset="0.9533"
   style="stop-color:#F3442E;stop-opacity:4.672241e-02"
   id="stop60" />
		<stop
   offset="1"
   style="stop-color:#FF5100;stop-opacity:0"
   id="stop61" />
	</radialGradient>
	<path
   class="st4"
   d="m 149.4,49.2 c -0.4,0 -0.7,0 -0.9,0.1 -2.8,0.3 -3.8,0.4 -4.8,0.4 -4.2,0 -6.3,-3.1 -6.3,-9.4 v -14 0 -14.9 -6.7 c 0,-3.2 -1.9,-4.7 -6,-4.7 -4,0 -5.9,1.5 -5.9,4.7 v 34.9 c 0,13.3 5.3,20.1 15.8,20.1 7.1,0 11.1,-2.5 11.1,-7.1 0,-2.4 -0.9,-3.4 -3,-3.4 z"
   id="path39"
   style="fill:url(#SVGID_5_)" />
</g></g></g></svg>
