<?xml version="1.0" encoding="UTF-8" standalone="no"?>
<svg
   viewBox="0 0 1024 1024"
   version="1.1"
   id="svg16"
   sodipodi:docname="vlc.svg"
   inkscape:version="1.4.4 (dcaf3e7d9e, 2026-05-05)"
   inkscape:export-filename="../app-icons/vlc.png"
   inkscape:export-xdpi="48"
   inkscape:export-ydpi="48"
   width="1024"
   height="1024"
   xml:space="preserve"
   xmlns:inkscape="http://www.inkscape.org/namespaces/inkscape"
   xmlns:sodipodi="http://sodipodi.sourceforge.net/DTD/sodipodi-0.dtd"
   xmlns:xlink="http://www.w3.org/1999/xlink"
   xmlns="http://www.w3.org/2000/svg"
   xmlns:svg="http://www.w3.org/2000/svg"
   xmlns:rdf="http://www.w3.org/1999/02/22-rdf-syntax-ns#"
   xmlns:cc="http://creativecommons.org/ns#"
   xmlns:dc="http://purl.org/dc/elements/1.1/"
   xmlns:bx="https://boxy-svg.com"><sodipodi:namedview
     id="namedview16"
     pagecolor="#ffffff"
     bordercolor="#000000"
     borderopacity="0.25"
     inkscape:showpageshadow="2"
     inkscape:pageopacity="0.0"
     inkscape:pagecheckerboard="0"
     inkscape:deskcolor="#d1d1d1"
     inkscape:zoom="0.25"
     inkscape:cx="-350"
     inkscape:cy="204"
     inkscape:window-width="1920"
     inkscape:window-height="978"
     inkscape:window-x="0"
     inkscape:window-y="0"
     inkscape:window-maximized="1"
     inkscape:current-layer="svg16"
     showguides="true"><sodipodi:guide
       position="594,887.00002"
       orientation="0,-1"
       id="guide4"
       inkscape:locked="false" /><sodipodi:guide
       position="511.34315,137.00002"
       orientation="0,-1"
       id="guide5"
       inkscape:locked="false" /><sodipodi:guide
       position="137,542.0938"
       orientation="1,0"
       id="guide6"
       inkscape:locked="false" /><sodipodi:guide
       position="887,480.94199"
       orientation="1,0"
       id="guide7"
       inkscape:locked="false" /><sodipodi:guide
       position="512,0"
       orientation="1,0"
       id="guide1"
       inkscape:locked="false" /></sodipodi:namedview><defs
     id="defs12"><linearGradient
       id="linearGradient63"
       inkscape:collect="always"><stop
         style="stop-color:#ff8800;stop-opacity:1;"
         offset="0"
         id="stop63" /><stop
         style="stop-color:#aa5800;stop-opacity:1;"
         offset="1"
         id="stop64" /></linearGradient><filter
       id="shadow"
       bx:pinned="true"
       x="0"
       y="0"
       width="1"
       height="1"><title
         id="title1">Drop Shadow</title><feDropShadow
         result="drop-shadow-0"
         in="SourceGraphic"
         style="flood-opacity: 0.3;"
         stdDeviation="10"
         dx="0"
         dy="10" /></filter><bx:guide
       x="-10"
       y="100"
       angle="90" /><bx:guide
       x="100"
       y="-10"
       angle="0" /><bx:guide
       x="924"
       y="-10"
       angle="0" /><bx:guide
       x="-10"
       y="924"
       angle="90" /><clipPath
       id="clip-0"><path
         style="fill:#ffffff;stroke-width:3px"
         d="M 100,724 V 300 C 100,185.001 170,99.995 300.026,100 L 724,99.995 C 854,100 924,185.001 924,300 v 424 c 0,115.001 -70,199.995 -200,200 H 300.026 C 170,924 100,839.001 100,724 Z"
         id="path2"><title
           id="title2">Icon Mask</title></path></clipPath><symbol
       id="symbol-0"
       viewBox="0 0 1024 1024"
       bx:pinned="true"><title
         id="title3">App Icon Guides</title><g
         id="g12"><title
           id="title4">App Icon Guides</title><path
           style="fill:none;stroke:#919191;stroke-width:3px"
           d="m 0,739.001 v -454 C 0,135.001 112,0 284.999,0 H 739.001 C 912,0 1024,135.001 1024,285.001 v 454 C 1024,889.001 912,1024 739.001,1024 H 284.999 C 112,1024 0,889.001 0,739.001 Z"
           id="path5"><title
             id="title5">Outer Bounding Box</title></path><path
           style="fill:none;stroke:#919191;stroke-width:3px"
           d="m 50,739.001 v -454 C 50,162 140,50 284.999,50 H 739.001 C 884.001,50 974,162 974,285.001 v 454 C 974,862 884.001,974 739.001,974 H 284.999 C 140,974 50,862 50,739.001 Z"
           id="path6"><title
             id="title6">Inner Bounding Box</title></path><path
           style="fill:none;stroke:#ff0000;stroke-width:3px"
           d="m 100,724.005 v -424 C 100,185.006 170,100 300.026,100.005 L 724,100 c 130,0.005 200,85.006 200,200.005 v 424 c 0,115.001 -70,199.995 -200,200 H 300.026 C 170,924.005 100,839.006 100,724.005 Z"
           id="path7"><title
             id="title7">Icon Grid Bounding Box</title></path><path
           style="fill:none;stroke:#ff0000"
           d="M 154.017,870.001 H 870.001 V 154.014 H 154.017 Z m 0,0 715.984,-715.987 z M 100,511.995 h 824 z m 0,157.365 H 924 Z M 924,354.631 H 100 Z M 669.365,99.995 v 824 z m -314.73,824 v -824 z M 512,99.995 v 824 z m -357.983,54.019 715.984,715.987 z"
           id="path8"><title
             id="title8">Icon Grid</title></path><circle
           style="fill:none"
           cx="512"
           cy="511.995"
           r="157.397"
           id="circle9"><title
             id="title9">Grid Circle 1</title></circle><circle
           style="fill:none"
           cx="512"
           cy="511.995"
           r="222.577"
           id="circle10"><title
             id="title10">Grid Circle 2</title></circle><circle
           style="fill:none"
           cx="512"
           cy="511.995"
           r="358.00101"
           id="circle11"><title
             id="title11">Grid Circle 3</title></circle><path
           d="m 1084.343,548.001 h -941 c -28.719,0 -52,-23.281 -52,-52 0,-28.719 23.281,-52 52,-52 h 941 c 28.719,0 52,23.281 52,52 0,28.719 -23.281,52 -52,52 z m 51.957,-51.962 -1045,-0.078"
           style="stroke:#0077ff;stroke-width:5px;stroke-dasharray:24, 10"
           transform="rotate(-64.504252,613.82146,496.00118)"
           id="path12"><title
             id="title12">Tool Angle</title></path></g></symbol><linearGradient
       inkscape:collect="always"
       xlink:href="#linearGradient63"
       id="linearGradient64"
       x1="576.76422"
       y1="51.5"
       x2="576.76422"
       y2="972.5"
       gradientUnits="userSpaceOnUse"
       gradientTransform="matrix(1.0029383,0,0,1.0029383,-1.5044074,-1.5044074)" /><filter
       style="color-interpolation-filters:sRGB"
       inkscape:label="Drop Shadow"
       id="filter69"
       x="0"
       y="0"
       width="1.0057613"
       height="1.0098504"><feFlood
         result="flood"
         in="SourceGraphic"
         flood-opacity="0.498039"
         flood-color="rgb(0,0,0)"
         id="feFlood68" /><feGaussianBlur
         result="blur"
         in="SourceGraphic"
         stdDeviation="0.000000"
         id="feGaussianBlur68" /><feOffset
         result="offset"
         in="blur"
         dx="3.000000"
         dy="6.000000"
         id="feOffset68" /><feComposite
         result="comp1"
         operator="in"
         in="flood"
         in2="offset"
         id="feComposite68" /><feComposite
         result="comp2"
         operator="over"
         in="SourceGraphic"
         in2="comp1"
         id="feComposite69" /></filter></defs><path
     id="path63"
     style="baseline-shift:baseline;display:inline;overflow:visible;vector-effect:none;fill:url(#linearGradient64);fill-opacity:1;stroke-width:1.00294;paint-order:markers fill stroke;enable-background:accumulate;stop-color:#000000"
     d="M 284.33105,0 C 111.60637,0 0,134.64308 0,284.33496 V 739.66895 C 0,889.36084 111.60636,1024 284.33105,1024 h 455.3379 C 912.39364,1024 1024,889.36084 1024,739.66895 V 284.33496 C 1024,134.64308 912.39363,0 739.66895,0 Z m 545.53183,65.882468 c 17.8755,6.750901 34.25776,15.510275 49.04799,25.952987 C 864.12063,81.392726 847.73839,72.63338 829.86288,65.882468 Z M 111.75514,903.0284 c 5.7006,6.1289 11.77245,11.94491 18.20568,17.41039 -6.43365,-5.46582 -12.50476,-11.28108 -18.20568,-17.41039 z" /><title
     id="title1-7">Heroic Games Launcher</title><title
     id="title1-3">KDE</title><title
     id="title1-6">Steam</title><metadata
     id="metadata1"><rdf:RDF><cc:Work
         rdf:about=""><dc:title>Heroic Games Launcher</dc:title></cc:Work></rdf:RDF></metadata><title
     id="title1-75">Fedora</title><title
     id="title1-35">Debian</title><title
     id="title1-62">Facebook</title><title
     id="title1-9">Reddit</title><title
     id="title1-1">VLC media player</title><path
     d="m 512.99532,136.99998 c -27.57188,0 -32.95313,4.25 -32.95313,4.25 -5.43124,1.75 -11.1125,7.96875 -12.82813,13.4375 l -27.62187,87.9625 c 14.77813,5.40313 41.31876,13.33126 69.80313,13.33126 34.33437,0 63.03125,-10.91876 74.25938,-15.85939 l -26.80626,-85.43437 c -1.71875,-5.48437 -7.40625,-11.58438 -12.70938,-13.66875 0,0 -3.56875,-4.01875 -31.14374,-4.01875 z m 111.39063,232.96875 c -11.25313,10.625 -41.48751,29.29062 -114.99063,29.29062 -71.65313,0 -99.65625,-17.74375 -110.04063,-28.47811 L 355.95783,508.9906 c 7.09999,11.29375 39.18437,48.73126 152.64686,48.73126 117.40312,0 151.68437,-42.08438 158.27811,-52.30312 z M 355.95783,508.9906 324.62969,608.74685 h -51.91874 c -7.76876,0 -15.92814,6.0375 -18.20626,13.48438 l -72.9375,238.49063 a 12.38125,12.38125 0 0 0 -0.52812,4.80312 c -0.025,0.15626 -0.0625,0.3125 -0.0625,0.5 0,2.62187 0.72813,7.0625 0.72813,7.0625 1.00625,7.675 8.1625,13.9125 15.93125,13.9125 H 826.3609 c 7.77189,0 14.90008,-6.23125 15.9313,-13.91563 0,0 0.73122,-4.4375 0.73122,-7.0625 a 0.765625,0.765625 0 0 0 -0.0933,-0.31249 10.003125,10.003125 0 0 0 0.0626,-0.97813 12.8,12.8 0 0 0 -0.59374,-4.00625 L 769.46403,622.23123 c -2.27811,-7.44688 -10.43741,-13.48125 -18.20623,-13.48125 h -51.98752 l 6.26564,19.97188 c -7.52185,15.16874 -46.51878,74.375 -196.95935,74.375 -143.75937,0 -182.15,-54.06251 -190.95937,-72.10001 z"
     id="path1"
     style="fill:#ffffff;stroke-width:31.25" /></svg>
